<?xml version="1.0" encoding="utf-8"?>
<!-- Generator: Adobe Illustrator 23.1.0, SVG Export Plug-In . SVG Version: 6.00 Build 0)  -->
<svg version="1.1" id="Layer_1" xmlns="http://www.w3.org/2000/svg" xmlns:xlink="http://www.w3.org/1999/xlink" x="0px" y="0px"
	 viewBox="0 0 100 100" style="enable-background:new 0 0 100 100;" xml:space="preserve">
<style type="text/css">
	.st0{fill:none;stroke:#FFFFFF;stroke-width:2;stroke-linecap:round;stroke-miterlimit:10;}
	.st1{fill:#E6E7E8;}
</style>
<g>
	<path class="st0" d="M33.8,37.5"/>
	<path class="st0" d="M40.2,51.9"/>
	<path class="st0" d="M40.5,30.8"/>
	<path class="st0" d="M49.8,52.1"/>
	<path class="st0" d="M46.9,20.7"/>
	<path class="st0" d="M68.4,42.2"/>
	<line class="st0" x1="49.8" y1="64.2" x2="49.8" y2="16"/>
	<line class="st0" x1="25.7" y1="40.1" x2="73.8" y2="40.1"/>
</g>
<g>
	<path class="st1" d="M20.1,83.2h-4.6l-1.6,4H13l4.6-11.5h0.5l4.5,11.5h-0.9L20.1,83.2z M15.8,82.5h4.1l-1.6-4.1
		C18.2,78,18,77.6,17.8,77c-0.1,0.5-0.3,1-0.5,1.4L15.8,82.5z"/>
	<path class="st1" d="M27.1,78.6c0.6,0,1.1,0.1,1.6,0.3c0.4,0.2,0.8,0.6,1.2,1.1h0c0-0.7,0-1.3,0-1.9v-3.1h0.8v12.2h-0.5L30,85.9
		h-0.1c-0.6,1-1.6,1.5-2.8,1.5c-1.2,0-2.1-0.4-2.7-1.1c-0.6-0.7-0.9-1.8-0.9-3.2c0-1.5,0.3-2.6,0.9-3.4C25.1,78.9,26,78.6,27.1,78.6
		z M27.1,79.3c-0.9,0-1.6,0.3-2.1,1c-0.5,0.7-0.7,1.6-0.7,2.8c0,2.4,0.9,3.6,2.8,3.6c1,0,1.7-0.3,2.1-0.8c0.4-0.6,0.7-1.5,0.7-2.8
		V83c0-1.3-0.2-2.3-0.7-2.8C28.8,79.6,28.1,79.3,27.1,79.3z"/>
	<path class="st1" d="M36.7,78.6c0.6,0,1.1,0.1,1.6,0.3s0.8,0.6,1.2,1.1h0c0-0.7,0-1.3,0-1.9v-3.1h0.8v12.2h-0.5l-0.2-1.3h-0.1
		c-0.6,1-1.6,1.5-2.8,1.5c-1.2,0-2.1-0.4-2.7-1.1s-0.9-1.8-0.9-3.2c0-1.5,0.3-2.6,0.9-3.4S35.5,78.6,36.7,78.6z M36.7,79.3
		c-0.9,0-1.6,0.3-2.1,1s-0.7,1.6-0.7,2.8c0,2.4,0.9,3.6,2.8,3.6c1,0,1.7-0.3,2.1-0.8s0.7-1.5,0.7-2.8V83c0-1.3-0.2-2.3-0.7-2.8
		S37.6,79.3,36.7,79.3z"/>
	<path class="st1" d="M54.2,75.8H55l-4.3,11.4h-0.7l-4.3-11.4h0.9l2.9,7.8c0.4,1.2,0.7,2.1,0.9,2.6c0.1-0.4,0.3-1,0.6-1.8L54.2,75.8
		z"/>
	<path class="st1" d="M56.4,76.4c0-0.5,0.2-0.8,0.5-0.8c0.2,0,0.3,0.1,0.4,0.2s0.1,0.3,0.1,0.6c0,0.2,0,0.4-0.1,0.6
		s-0.2,0.2-0.4,0.2C56.5,77.1,56.4,76.9,56.4,76.4z M57.2,87.2h-0.8v-8.5h0.8V87.2z"/>
	<path class="st1" d="M65.3,85c0,0.8-0.3,1.3-0.9,1.8s-1.4,0.6-2.5,0.6c-1.1,0-2-0.2-2.7-0.5V86c0.9,0.4,1.8,0.6,2.7,0.6
		c0.8,0,1.5-0.1,1.9-0.4s0.7-0.6,0.7-1.1c0-0.4-0.2-0.8-0.5-1.1s-0.9-0.6-1.7-0.9c-0.8-0.3-1.4-0.6-1.8-0.8s-0.6-0.5-0.8-0.8
		s-0.3-0.6-0.3-1c0-0.6,0.3-1.1,0.8-1.5s1.3-0.6,2.2-0.6c0.9,0,1.8,0.2,2.6,0.5l-0.3,0.7c-0.8-0.3-1.6-0.5-2.3-0.5
		c-0.7,0-1.2,0.1-1.6,0.3s-0.6,0.5-0.6,1c0,0.4,0.2,0.8,0.5,1.1s0.9,0.6,1.8,0.9c0.8,0.3,1.3,0.5,1.7,0.7s0.6,0.5,0.8,0.8
		S65.3,84.6,65.3,85z"/>
	<path class="st1" d="M68.2,78.7v5.5c0,0.9,0.2,1.5,0.5,1.9s0.9,0.6,1.7,0.6c1,0,1.8-0.3,2.2-0.8s0.7-1.3,0.7-2.5v-4.7h0.8v8.5h-0.7
		L73.3,86h0c-0.6,0.9-1.5,1.3-2.9,1.3c-1.9,0-2.9-1-2.9-3.1v-5.5H68.2z"/>
	<path class="st1" d="M82.1,87.2l-0.2-1.3h-0.1c-0.4,0.5-0.9,0.9-1.3,1.2s-1,0.3-1.6,0.3c-0.8,0-1.5-0.2-1.9-0.6s-0.7-1-0.7-1.8
		c0-0.8,0.3-1.5,1-1.9s1.7-0.7,3-0.7l1.6,0v-0.6c0-0.8-0.2-1.4-0.5-1.8s-0.9-0.6-1.6-0.6c-0.8,0-1.6,0.2-2.4,0.7l-0.3-0.7
		c0.9-0.4,1.9-0.7,2.8-0.7c0.9,0,1.6,0.2,2.1,0.7s0.7,1.2,0.7,2.3v5.6H82.1z M79,86.7c0.9,0,1.6-0.3,2.1-0.8s0.8-1.2,0.8-2.2v-0.8
		L80.4,83c-1.2,0.1-2,0.2-2.6,0.6s-0.8,0.8-0.8,1.5c0,0.5,0.2,0.9,0.5,1.2S78.4,86.7,79,86.7z"/>
	<path class="st1" d="M86.2,87.2h-0.8V75.1h0.8V87.2z"/>
</g>
</svg>
