<svg width="20" height="20" viewBox="0 0 20 20" fill="none" xmlns="http://www.w3.org/2000/svg">
<g clip-path="url(#clip0_860:14502)">
<path fill-rule="evenodd" clip-rule="evenodd" d="M3.48347 2.11575C3.76625 2.31844 3.83502 2.7175 3.63708 3.00706L1.88708 5.56706C1.77012 5.73815 1.579 5.84004 1.37505 5.84004C1.17111 5.84004 0.979989 5.73815 0.863032 5.56706L0.113034 4.46992C-0.0849128 4.18035 -0.0161411 3.7813 0.26664 3.5786C0.54942 3.3759 0.939126 3.44632 1.13708 3.73589L1.37505 4.08402L2.61303 2.27304C2.81098 1.98347 3.20069 1.91305 3.48347 2.11575ZM19.375 3.60002C19.7202 3.60002 20 3.88656 20 4.24002C20 4.59348 19.7202 4.88002 19.375 4.88002H6.87501C6.52982 4.88002 6.25 4.59348 6.25 4.24002C6.25 3.88656 6.52982 3.60002 6.87501 3.60002H19.375ZM19.375 9.36012C19.7202 9.36012 20 9.64665 20 10.0001C20 10.3536 19.7202 10.6401 19.375 10.6401H6.87501C6.52982 10.6401 6.25 10.3536 6.25 10.0001C6.25 9.64665 6.52982 9.36012 6.87501 9.36012H19.375ZM20 15.76C20 15.4066 19.7202 15.12 19.375 15.12H6.87501C6.52982 15.12 6.25 15.4066 6.25 15.76C6.25 16.1135 6.52982 16.4 6.87501 16.4H19.375C19.7202 16.4 20 16.1135 20 15.76ZM3.48347 8.19578C3.76625 8.39847 3.83502 8.7975 3.63708 9.0871L1.88708 11.6471C1.77012 11.8182 1.579 11.9201 1.37505 11.9201C1.17111 11.9201 0.979989 11.8182 0.863032 11.6471L0.113034 10.5499C-0.0849128 10.2603 -0.0161411 9.86131 0.26664 9.65862C0.54942 9.45593 0.939126 9.52633 1.13708 9.81593L1.37505 10.164L2.61303 8.35303C2.81098 8.06349 3.20069 7.99307 3.48347 8.19578ZM3.48347 14.2757C3.76625 14.4784 3.83502 14.8774 3.63708 15.167L1.88708 17.727C1.77012 17.8981 1.579 18 1.37505 18C1.17111 18 0.979989 17.8981 0.863032 17.727L0.113034 16.6299C-0.0849128 16.3403 -0.0161411 15.9413 0.26664 15.7386C0.54942 15.5359 0.939126 15.6063 1.13708 15.8959L1.37505 16.244L2.61303 14.433C2.81098 14.1434 3.20069 14.073 3.48347 14.2757Z" fill="#4D4D4D"/>
</g>
<defs>
<clipPath id="clip0_860:14502">
<rect width="20" height="20" fill="white"/>
</clipPath>
</defs>
</svg>
