<?xml version="1.0" encoding="utf-8"?>
<!-- Generator: Adobe Illustrator 23.1.0, SVG Export Plug-In . SVG Version: 6.00 Build 0)  -->
<svg version="1.1" id="Layer_1" xmlns="http://www.w3.org/2000/svg" xmlns:xlink="http://www.w3.org/1999/xlink" x="0px" y="0px"
	 viewBox="0 0 52 52" style="enable-background:new 0 0 52 52;" xml:space="preserve">
<style type="text/css">
	.st0{fill-rule:evenodd;clip-rule:evenodd;fill:#7F8080;}
</style>
<g>
	<g>
		<path class="st0" d="M13.6,11.6c0.5,0.4,0.6,1.1,0.3,1.6l-3.2,4.7c-0.2,0.3-0.6,0.5-0.9,0.5c-0.4,0-0.7-0.2-0.9-0.5l-1.4-2
			c-0.4-0.5-0.2-1.3,0.3-1.6c0.5-0.4,1.2-0.2,1.6,0.3l0.4,0.6l2.3-3.3C12.4,11.4,13.1,11.3,13.6,11.6z M42.5,14.3
			c0.6,0,1.1,0.5,1.1,1.2s-0.5,1.2-1.1,1.2H19.7c-0.6,0-1.1-0.5-1.1-1.2s0.5-1.2,1.1-1.2H42.5z M42.5,24.8c0.6,0,1.1,0.5,1.1,1.2
			c0,0.6-0.5,1.2-1.1,1.2H19.7c-0.6,0-1.1-0.5-1.1-1.2c0-0.6,0.5-1.2,1.1-1.2H42.5z M43.6,36.5c0-0.6-0.5-1.2-1.1-1.2H19.7
			c-0.6,0-1.1,0.5-1.1,1.2c0,0.6,0.5,1.2,1.1,1.2h22.7C43.1,37.6,43.6,37.1,43.6,36.5z M13.6,22.7c0.5,0.4,0.6,1.1,0.3,1.6L10.7,29
			c-0.2,0.3-0.6,0.5-0.9,0.5c-0.4,0-0.7-0.2-0.9-0.5l-1.4-2c-0.4-0.5-0.2-1.3,0.3-1.6c0.5-0.4,1.2-0.2,1.6,0.3l0.4,0.6L12,23
			C12.4,22.5,13.1,22.3,13.6,22.7z M13.6,33.8c0.5,0.4,0.6,1.1,0.3,1.6L10.7,40c-0.2,0.3-0.6,0.5-0.9,0.5c-0.4,0-0.7-0.2-0.9-0.5
			l-1.4-2c-0.4-0.5-0.2-1.3,0.3-1.6c0.5-0.4,1.2-0.2,1.6,0.3l0.4,0.6L12,34C12.4,33.5,13.1,33.4,13.6,33.8z"/>
	</g>
</g>
</svg>
