<?xml version="1.0" encoding="utf-8"?>
<!-- Generator: Adobe Illustrator 23.1.0, SVG Export Plug-In . SVG Version: 6.00 Build 0)  -->
<svg version="1.1" xmlns="http://www.w3.org/2000/svg" xmlns:xlink="http://www.w3.org/1999/xlink" x="0px" y="0px"
	 viewBox="0 0 60 60" style="enable-background:new 0 0 60 60;" xml:space="preserve">
<style type="text/css">
	.st0{display:none;}
	.st1{display:inline;stroke:#FFFFFF;stroke-miterlimit:10;}
	.st2{fill:#F7F7F7;}
	.st3{fill:none;stroke:#F7F7F7;stroke-miterlimit:10;}
</style>
<g id="Layer_1" class="st0">
	<circle class="st1" cx="30" cy="30" r="30"/>
</g>
<g id="Layer_2">
	<g>
		<path class="st2" d="M17.8,43.8L17,46.4h-1.1l2.7-8.1h1.3l2.8,8.1h-1.1l-0.9-2.5H17.8z M20.5,43l-0.8-2.3c-0.2-0.5-0.3-1-0.4-1.5
			h0c-0.1,0.5-0.3,1-0.4,1.5L18.1,43H20.5z"/>
		<path class="st2" d="M28.6,44.8c0,0.6,0,1.1,0,1.6h-0.9l-0.1-0.9h0c-0.3,0.5-0.9,1.1-1.9,1.1c-0.9,0-2-0.5-2-2.5v-3.4h1.1v3.2
			c0,1.1,0.3,1.8,1.3,1.8c0.7,0,1.2-0.5,1.4-1c0.1-0.2,0.1-0.3,0.1-0.5v-3.6h1.1V44.8z"/>
		<path class="st2" d="M35.3,37.9v7c0,0.5,0,1.1,0,1.5h-0.9l0-1h0c-0.3,0.6-1,1.1-2,1.1c-1.4,0-2.5-1.2-2.5-3c0-1.9,1.2-3.1,2.6-3.1
			c0.9,0,1.5,0.4,1.8,0.9h0v-3.5H35.3z M34.3,42.9c0-0.1,0-0.3,0-0.4c-0.2-0.7-0.7-1.2-1.5-1.2c-1.1,0-1.7,1-1.7,2.2
			c0,1.2,0.6,2.1,1.7,2.1c0.7,0,1.4-0.5,1.5-1.3c0-0.1,0-0.3,0-0.5V42.9z"/>
		<path class="st2" d="M38.3,38.9c0,0.4-0.3,0.6-0.7,0.6c-0.4,0-0.6-0.3-0.6-0.6c0-0.4,0.3-0.7,0.7-0.7C38,38.3,38.3,38.6,38.3,38.9
			z M37.1,46.4v-5.8h1.1v5.8H37.1z"/>
		<path class="st2" d="M45.1,43.4c0,2.1-1.5,3.1-2.9,3.1c-1.6,0-2.8-1.2-2.8-3c0-1.9,1.3-3.1,2.9-3.1C44,40.4,45.1,41.6,45.1,43.4z
			 M40.5,43.5c0,1.3,0.7,2.2,1.8,2.2c1,0,1.8-0.9,1.8-2.3c0-1-0.5-2.2-1.7-2.2S40.5,42.4,40.5,43.5z"/>
	</g>
	<path class="st2" d="M30.6,27.6L30.6,27.6c-2.7,0-4.8-2.2-4.8-4.8v-9.7c0-2.7,2.2-4.8,4.8-4.8h0c2.7,0,4.8,2.2,4.8,4.8v9.7
		C35.4,25.5,33.3,27.6,30.6,27.6z"/>
	<path class="st3" d="M37.3,24.9c0,2.7-2.2,4.8-4.8,4.8h-3.7c-2.7,0-4.8-2.2-4.8-4.8"/>
	<path class="st2" d="M35.4,28.7c1.3-0.6-0.6,1.3-2.4,3c-1,1-3.6,0.9-4.7-0.1c-1.7-1.7-3.6-2.9-3.6-2.9S29.7,31.3,35.4,28.7z"/>
</g>
</svg>
