<?xml version="1.0" encoding="utf-8"?>
<!-- Generator: Adobe Illustrator 23.1.0, SVG Export Plug-In . SVG Version: 6.00 Build 0)  -->
<svg version="1.1" id="Layer_1" xmlns="http://www.w3.org/2000/svg" xmlns:xlink="http://www.w3.org/1999/xlink" x="0px" y="0px"
	 viewBox="0 0 60 60" style="enable-background:new 0 0 60 60;" xml:space="preserve">
<style type="text/css">
	.st0{display:none;}
	.st1{display:inline;stroke:#FFFFFF;stroke-miterlimit:10;}
	.st2{fill:#F7F7F7;}
	.st3{fill:none;stroke:#E82125;stroke-width:2;stroke-linecap:round;stroke-miterlimit:10;}
	.st4{fill:#E82125;}
</style>
<g class="st0">
	<circle class="st1" cx="30" cy="30" r="30"/>
</g>
<g>
	<g>
		<path class="st2" d="M17.8,43.8L17,46.4h-1.1l2.7-8.1h1.3l2.8,8.1h-1.1l-0.9-2.5h-2.9V43.8z M20.5,43l-0.8-2.3
			c-0.2-0.5-0.3-1-0.4-1.5l0,0c-0.1,0.5-0.3,1-0.4,1.5L18.1,43H20.5z"/>
		<path class="st2" d="M28.6,44.8c0,0.6,0,1.1,0,1.6h-0.9l-0.1-0.9l0,0c-0.3,0.5-0.9,1.1-1.9,1.1c-0.9,0-2-0.5-2-2.5v-3.4h1.1v3.2
			c0,1.1,0.3,1.8,1.3,1.8c0.7,0,1.2-0.5,1.4-1c0.1-0.2,0.1-0.3,0.1-0.5v-3.6h1.1v4.2H28.6z"/>
		<path class="st2" d="M35.3,37.9v7c0,0.5,0,1.1,0,1.5h-0.9v-1l0,0c-0.3,0.6-1,1.1-2,1.1c-1.4,0-2.5-1.2-2.5-3
			c0-1.9,1.2-3.1,2.6-3.1c0.9,0,1.5,0.4,1.8,0.9l0,0v-3.5L35.3,37.9L35.3,37.9z M34.3,42.9c0-0.1,0-0.3,0-0.4
			c-0.2-0.7-0.7-1.2-1.5-1.2c-1.1,0-1.7,1-1.7,2.2s0.6,2.1,1.7,2.1c0.7,0,1.4-0.5,1.5-1.3c0-0.1,0-0.3,0-0.5V42.9z"/>
		<path class="st2" d="M38.3,38.9c0,0.4-0.3,0.6-0.7,0.6S37,39.2,37,38.9c0-0.4,0.3-0.7,0.7-0.7C38,38.3,38.3,38.6,38.3,38.9z
			 M37.1,46.4v-5.8h1.1v5.8H37.1z"/>
		<path class="st2" d="M45.1,43.4c0,2.1-1.5,3.1-2.9,3.1c-1.6,0-2.8-1.2-2.8-3c0-1.9,1.3-3.1,2.9-3.1C44,40.4,45.1,41.6,45.1,43.4z
			 M40.5,43.5c0,1.3,0.7,2.2,1.8,2.2c1,0,1.8-0.9,1.8-2.3c0-1-0.5-2.2-1.7-2.2S40.5,42.4,40.5,43.5z"/>
	</g>
</g>
<path class="st3" d="M37.2,23.8c0,2.7-2.2,4.8-4.8,4.8h-3.7c-2.7,0-4.8-2.2-4.8-4.8"/>
<path class="st4" d="M35.3,27.6c1.3-0.6-0.6,1.3-2.4,3c-1,1-3.6,0.9-4.7-0.1c-1.7-1.7-3.6-2.9-3.6-2.9S29.7,30.2,35.3,27.6z"/>
<g>
	<path class="st4" d="M35.2,11.4c-0.3-2.3-2.3-4.1-4.8-4.1c-2.6,0-4.8,2-4.8,4.8v4.8L35.2,11.4z"/>
	<path class="st4" d="M25.9,22.8c0.5,2.1,2.4,3.7,4.7,3.7c2.7,0,4.8-2,4.8-4.8v-4.4L25.9,22.8z"/>
</g>
<line class="st3" x1="20.6" y1="22.9" x2="38.8" y2="12.4"/>
</svg>
