<?xml version="1.0" encoding="utf-8"?>
<!-- Generator: Adobe Illustrator 23.1.0, SVG Export Plug-In . SVG Version: 6.00 Build 0)  -->
<svg version="1.1" id="Layer_1" xmlns="http://www.w3.org/2000/svg" xmlns:xlink="http://www.w3.org/1999/xlink" x="0px" y="0px"
	 viewBox="0 0 60 60" style="enable-background:new 0 0 60 60;" xml:space="preserve">
<style type="text/css">
	.st0{display:none;}
	.st1{display:inline;stroke:#FFFFFF;stroke-miterlimit:10;}
	.st2{fill:#F7F7F7;}
	.st3{fill:none;stroke:#F7F7F7;stroke-miterlimit:10;}
</style>
<g class="st0">
	<circle class="st1" cx="30" cy="30" r="30"/>
</g>
<g>
	<path class="st2" d="M30.6,36.6L30.6,36.6c-2.7,0-4.8-2.2-4.8-4.8v-9.7c0-2.7,2.2-4.8,4.8-4.8l0,0c2.7,0,4.8,2.2,4.8,4.8v9.7
		C35.4,34.5,33.3,36.6,30.6,36.6z"/>
	<path class="st3" d="M37.3,33.9c0,2.7-2.2,4.8-4.8,4.8h-3.7c-2.7,0-4.8-2.2-4.8-4.8"/>
	<path class="st2" d="M35.4,37.7c1.3-0.6-0.6,1.3-2.4,3c-1,1-3.6,0.9-4.7-0.1c-1.7-1.7-3.6-2.9-3.6-2.9S29.7,40.3,35.4,37.7z"/>
</g>
</svg>
