<?xml version="1.0" encoding="utf-8"?>
<!-- Generator: Adobe Illustrator 23.1.0, SVG Export Plug-In . SVG Version: 6.00 Build 0)  -->
<svg version="1.1" id="Layer_1" xmlns="http://www.w3.org/2000/svg" xmlns:xlink="http://www.w3.org/1999/xlink" x="0px" y="0px"
	 viewBox="0 0 40 40" style="enable-background:new 0 0 40 40;" xml:space="preserve">
<style type="text/css">
	.st0{fill:#FFFFFF;}
	.st1{fill:none;stroke:#85CFC9;stroke-miterlimit:10;}
	.st2{fill:#85CFC9;}
</style>
<path class="st0" d="M19.9,27.5L19.9,27.5c-2.9,0-5.1-2.4-5.1-5.1V11.9c0-2.9,2.4-5.1,5.1-5.1l0,0c2.9,0,5.1,2.4,5.1,5.1v10.4
	C25.1,25.2,22.8,27.5,19.9,27.5z"/>
<path class="st1" d="M27.1,24.6c0,2.9-2.4,5.1-5.1,5.1h-4c-2.9,0-5.1-2.4-5.1-5.1"/>
<path class="st2" d="M25.1,28.6c1.4-0.6-0.6,1.4-2.6,3.2c-1.1,1.1-3.9,1-5-0.1c-1.8-1.8-3.9-3.1-3.9-3.1S19,31.4,25.1,28.6z"/>
<path class="st2" d="M25.1,22.3c0,2.9-2.2,5.1-5.1,5.1l0,0c-2.9,0-5.1-2.4-5.1-5.1"/>
</svg>
