<?xml version="1.0" encoding="utf-8"?>
<!-- Generator: Adobe Illustrator 23.1.0, SVG Export Plug-In . SVG Version: 6.00 Build 0)  -->
<svg version="1.1" id="Layer_1" xmlns="http://www.w3.org/2000/svg" xmlns:xlink="http://www.w3.org/1999/xlink" x="0px" y="0px"
	 viewBox="0 0 40 40" style="enable-background:new 0 0 40 40;" xml:space="preserve">
<style type="text/css">
	.st0{fill:#86D0CA;}
	.st1{fill:none;stroke:#86D0CA;stroke-miterlimit:10;}
</style>
<path class="st0" d="M20,25.6L20,25.6c-2.1,0-3.7-1.7-3.7-3.7v-7.6c0-2.1,1.7-3.7,3.7-3.7l0,0c2.1,0,3.7,1.7,3.7,3.7v7.6
	C23.7,24,22.1,25.6,20,25.6z"/>
<path class="st1" d="M25.2,23.5c0,2.1-1.7,3.7-3.7,3.7h-2.9c-2.1,0-3.7-1.7-3.7-3.7"/>
<path class="st0" d="M23.7,26.5c1-0.5-0.5,1-1.9,2.3c-0.8,0.8-2.8,0.7-3.7-0.1c-1.3-1.3-2.8-2.3-2.8-2.3S19.3,28.5,23.7,26.5z"/>
</svg>
