<?xml version="1.0" encoding="utf-8"?>
<!-- Generator: Adobe Illustrator 23.1.0, SVG Export Plug-In . SVG Version: 6.00 Build 0)  -->
<svg version="1.1" id="Layer_1" xmlns="http://www.w3.org/2000/svg" xmlns:xlink="http://www.w3.org/1999/xlink" x="0px" y="0px"
	 viewBox="0 0 40 40" style="enable-background:new 0 0 40 40;" xml:space="preserve">
<style type="text/css">
	.st0{fill:none;stroke:#E82125;stroke-width:2;stroke-linecap:round;stroke-miterlimit:10;}
	.st1{fill:#E82125;}
</style>
<path class="st0" d="M26.7,24.5c0,2.7-2.2,4.8-4.8,4.8h-3.7c-2.7,0-4.8-2.2-4.8-4.8"/>
<path class="st1" d="M24.8,28.3c1.3-0.6-0.6,1.3-2.4,3c-1,1-3.6,0.9-4.7-0.1c-1.7-1.7-3.6-2.9-3.6-2.9S19.1,30.9,24.8,28.3z"/>
<g>
	<path class="st1" d="M24.7,12.1C24.4,9.8,22.4,8,19.9,8c-2.6,0-4.8,2-4.8,4.8v4.8L24.7,12.1z"/>
	<path class="st1" d="M15.3,23.5c0.5,2.1,2.4,3.7,4.7,3.7c2.7,0,4.8-2,4.8-4.8V18L15.3,23.5z"/>
</g>
<line class="st0" x1="10.1" y1="23.6" x2="28.3" y2="13.1"/>
</svg>
