<?xml version="1.0" encoding="utf-8"?>
<!-- Generator: Adobe Illustrator 23.1.0, SVG Export Plug-In . SVG Version: 6.00 Build 0)  -->
<svg version="1.1" id="Layer_1" xmlns="http://www.w3.org/2000/svg" xmlns:xlink="http://www.w3.org/1999/xlink" x="0px" y="0px"
	 viewBox="0 0 60 60" style="enable-background:new 0 0 60 60;" xml:space="preserve">
<style type="text/css">
	.st0{display:none;}
	.st1{display:inline;stroke:#FFFFFF;stroke-miterlimit:10;}
	.st2{fill:#F7F7F7;}
</style>
<g class="st0">
	<circle class="st1" cx="30" cy="30" r="30"/>
</g>
<g>
	<polyline class="st2" points="31.3,33.7 36,39.5 36,33.7 	"/>
	<g>
		<path class="st2" d="M24.9,20.9c-2.2,0-4,1.8-4,4v4.8c0,2.2,1.8,4,4,4h10.3c2.2,0,4-1.8,4-4v-4.8c0-2.2-1.8-4-4-4
			C35.2,20.9,24.9,20.9,24.9,20.9z M25.3,28.8c-0.8,0-1.5-0.7-1.5-1.5s0.7-1.5,1.5-1.5s1.5,0.7,1.5,1.5
			C26.8,28.1,26.1,28.8,25.3,28.8z M30.1,28.8c-0.8,0-1.5-0.7-1.5-1.5s0.7-1.5,1.5-1.5s1.5,0.7,1.5,1.5
			C31.5,28.1,30.9,28.8,30.1,28.8z M34.8,28.8c-0.8,0-1.5-0.7-1.5-1.5s0.7-1.5,1.5-1.5s1.5,0.7,1.5,1.5
			C36.2,28.1,35.6,28.8,34.8,28.8z"/>
	</g>
</g>
</svg>
