<?xml version="1.0" encoding="utf-8"?>
<!-- Generator: Adobe Illustrator 23.1.0, SVG Export Plug-In . SVG Version: 6.00 Build 0)  -->
<svg version="1.1" id="Layer_1" xmlns="http://www.w3.org/2000/svg" xmlns:xlink="http://www.w3.org/1999/xlink" x="0px" y="0px"
	 viewBox="0 0 32 32" style="enable-background:new 0 0 32 32;" xml:space="preserve">
<style type="text/css">
	.st0{display:none;}
	.st1{display:inline;fill:#050505;stroke:#000000;stroke-width:0.4444;stroke-miterlimit:4.4444;}
	.st2{display:inline;fill:none;stroke:#FFFFFF;stroke-width:0.8889;stroke-miterlimit:4.4444;}
	.st3{fill:none;stroke:#FFFFFF;stroke-miterlimit:10;}
</style>
<g class="st0">
	<rect x="-0.7" y="-0.2" class="st1" width="32.9" height="32.9"/>
</g>
<g id="Layer_5" class="st0">
	<polyline class="st2" points="5.3,9.3 5.3,6.2 28,6.2 28,24.4 5.3,24.4 5.3,20.9 	"/>
	<polygon class="st2" points="12.4,8.2 4.7,15.4 12.4,22.6 12.4,18.2 24,18.2 24,12.4 12.4,12.4 	"/>
</g>
<g id="Layer_3" class="st0">
	<path class="st2" d="M27,16.1c0-0.4,0-0.7,0-1.1l2-3.2l-2.2-4.2L23,7.5c-0.9-0.8-2-1.4-3.1-1.9l-1.9-3.2l-4.8,0l-1.9,3.2
		c-1.1,0.4-2,1-2.9,1.7L4.8,7.6l-2.3,4.2l2,3.2c0,0.4,0,0.8,0,1.2c0,0.4,0,0.8,0,1.1l-2,3.2l2.2,4.3l3.9,0.2
		c0.8,0.7,1.8,1.2,2.8,1.7l2,3.3l4.8,0.1l2-3.4c1-0.4,1.9-1,2.8-1.6l3.9-0.1l2.3-4.2l-2.1-3.4C27,16.9,27,16.5,27,16.1z M15.7,21.9
		c-3.2,0-5.7-2.6-5.7-5.7s2.6-5.7,5.7-5.7s5.7,2.6,5.7,5.7C21.4,19.3,18.9,21.9,15.7,21.9z"/>
	<path class="st2" d="M15.7,0.9"/>
</g>
<g id="Layer_4" class="st0">
	<circle class="st2" cx="15.7" cy="16.1" r="12.6"/>
	<circle class="st2" cx="15.7" cy="12.7" r="5.5"/>
	<path class="st2" d="M7.8,26c0.9-3.6,4.2-6.3,8.1-6.3c3.8,0,7,2.5,8,6"/>
</g>
<circle class="st3" cx="16" cy="16" r="8"/>
</svg>
