<?xml version="1.0" encoding="utf-8"?>
<!-- Generator: Adobe Illustrator 23.1.0, SVG Export Plug-In . SVG Version: 6.00 Build 0)  -->
<svg version="1.1" id="Layer_1" xmlns="http://www.w3.org/2000/svg" xmlns:xlink="http://www.w3.org/1999/xlink" x="0px" y="0px"
	 viewBox="0 0 32 32" style="enable-background:new 0 0 32 32;" xml:space="preserve">
<style type="text/css">
	.st0{fill:#FFFFFF;}
</style>
<g>
	<path class="st0" d="M20.4,10.3C20.4,10.3,20.4,10.3,20.4,10.3l-8.9,0c0,0,0,0,0,0l-1.1,1.3c0,0,0,0,0,0h11.1c0,0,0,0,0,0
		L20.4,10.3z"/>
</g>
<g>
	<path class="st0" d="M17.6,10.5C17.6,10.5,17.6,10.5,17.6,10.5l-3.6,0c0,0,0,0,0,0V9.3c0,0,0,0,0,0h3.6c0,0,0,0,0,0V10.5z"/>
</g>
<g>
	<path class="st0" d="M10.5,12.6C10.5,12.6,10.5,12.6,10.5,12.6l1.9,10.7c0,0,0,0,0,0h7.2c0,0,0,0,0,0l1.9-10.7c0,0,0,0,0,0H10.5z
		 M13.9,22.1c-0.3,0-0.6-0.5-0.6-0.5c0,0,0,0,0,0l-0.8-7.2c0,0,0,0,0,0c0,0,0.2-0.6,0.5-0.6c0.3,0,0.6,0.5,0.6,0.5c0,0,0,0,0,0
		l0.8,7.2c0,0,0,0,0,0C14.4,21.5,14.2,22.1,13.9,22.1z M16.6,21.6C16.6,21.6,16.6,21.6,16.6,21.6c0,0-0.3,0.6-0.6,0.6
		c-0.3,0-0.6-0.6-0.6-0.6c0,0,0,0,0,0v-7.2c0,0,0,0,0,0c0,0,0.3-0.6,0.6-0.6c0.3,0,0.6,0.6,0.6,0.6c0,0,0,0,0,0V21.6z M18.8,21.6
		C18.8,21.6,18.8,21.6,18.8,21.6c0,0-0.3,0.6-0.6,0.5c-0.3,0-0.5-0.6-0.5-0.6c0,0,0,0,0,0l0.7-7.2c0,0,0,0,0,0c0,0,0.3-0.6,0.6-0.5
		c0.3,0,0.5,0.6,0.5,0.6c0,0,0,0,0,0L18.8,21.6z"/>
</g>
</svg>
