<?xml version="1.0" encoding="utf-8"?>
<!-- Generator: Adobe Illustrator 23.1.0, SVG Export Plug-In . SVG Version: 6.00 Build 0)  -->
<svg version="1.1" id="Layer_1" xmlns="http://www.w3.org/2000/svg" xmlns:xlink="http://www.w3.org/1999/xlink" x="0px" y="0px"
	 viewBox="0 0 50 50" style="enable-background:new 0 0 50 50;" xml:space="preserve">
<style type="text/css">
	.st0{fill:#FFFFFF;}
</style>
<g>
	<path class="st0" d="M25,31.8c-3.7,0.1-6.8-3.1-6.8-6.8c0-3.8,3.1-6.9,6.8-6.9c3.7,0,6.8,3.1,6.8,6.9C31.8,28.7,28.7,31.9,25,31.8z
		"/>
	<path class="st0" d="M12.2,31.1c-0.4,0-0.7-0.2-0.8-0.6c-0.1-0.4,0-0.7,0.4-0.9c1-0.4,2-0.9,3-1.3c0.5-0.2,1-0.4,1.4-0.6
		c0.4-0.2,0.8,0,1,0.5c0.1,0.3,0,0.7-0.3,0.9c-0.4,0.2-0.8,0.4-1.2,0.5c-0.5,0.2-1,0.4-1.6,0.7c-0.5,0.2-1,0.4-1.5,0.6
		C12.6,31,12.4,31.1,12.2,31.1z"/>
	<path class="st0" d="M37.8,31.1c-0.1,0-0.3-0.1-0.4-0.1c-0.5-0.2-1-0.4-1.5-0.6c-0.6-0.3-1.2-0.5-1.9-0.8c-0.3-0.1-0.7-0.3-1-0.4
		c-0.3-0.2-0.5-0.6-0.3-0.9c0.2-0.5,0.6-0.6,1-0.4c0.8,0.3,1.6,0.7,2.4,1c0.7,0.3,1.4,0.6,2.1,0.9c0.3,0.2,0.4,0.5,0.3,0.9
		C38.5,30.9,38.2,31.1,37.8,31.1z"/>
	<path class="st0" d="M19.7,38.6c-0.7,0-0.9-0.6-0.7-1.1c0.2-0.5,0.4-1.1,0.7-1.6c0.2-0.5,0.4-1,0.6-1.5c0.1-0.3,0.3-0.7,0.4-1.1
		c0.2-0.4,0.4-0.7,0.9-0.6c0.4,0,0.8,0.6,0.6,1c-0.3,0.9-0.7,1.8-1.1,2.7c-0.2,0.5-0.4,1-0.6,1.5c-0.1,0.2-0.1,0.3-0.2,0.5
		C20.2,38.5,20,38.6,19.7,38.6z"/>
	<path class="st0" d="M30.3,38.6c-0.4,0-0.6-0.2-0.7-0.5c-0.2-0.5-0.4-1-0.6-1.5c-0.1-0.3-0.3-0.7-0.4-1c-0.2-0.5-0.4-1-0.6-1.5
		c-0.1-0.3-0.3-0.6-0.1-1c0.1-0.2,0.3-0.4,0.5-0.4c0.3,0,0.6,0,0.8,0.3c0.2,0.4,0.4,0.8,0.5,1.2c0.2,0.5,0.4,1,0.6,1.5
		c0.2,0.5,0.4,1,0.6,1.5c0.1,0.2,0.2,0.4,0.2,0.6C31.1,38.3,30.8,38.6,30.3,38.6z"/>
	<path class="st0" d="M31.1,12.2c0,0.3-0.2,0.6-0.3,0.8c-0.2,0.5-0.4,1.1-0.6,1.6c-0.2,0.5-0.4,1-0.6,1.5c-0.1,0.3-0.2,0.6-0.4,0.9
		c-0.2,0.3-0.6,0.4-0.9,0.3c-0.4-0.2-0.6-0.6-0.5-1c0.3-0.7,0.6-1.5,0.9-2.2c0.3-0.6,0.5-1.3,0.8-1.9c0.1-0.3,0.2-0.7,0.7-0.8
		C30.6,11.3,31.1,11.7,31.1,12.2z"/>
	<path class="st0" d="M19.7,11.4c0.4,0,0.6,0.2,0.7,0.5c0.3,0.6,0.5,1.3,0.8,1.9c0.2,0.5,0.4,1,0.6,1.5c0.1,0.3,0.3,0.7,0.4,1
		c0.1,0.2,0,0.6-0.2,0.8c-0.2,0.2-0.6,0.2-0.8,0.1c-0.2-0.1-0.3-0.3-0.4-0.5c-0.3-0.7-0.5-1.3-0.8-2c-0.3-0.6-0.5-1.2-0.8-1.9
		c-0.1-0.3-0.3-0.5-0.3-0.8C18.9,11.7,19.2,11.4,19.7,11.4z"/>
	<path class="st0" d="M38.6,19.7c0,0.4-0.2,0.6-0.5,0.8c-0.7,0.3-1.3,0.6-2,0.8c-0.5,0.2-1,0.4-1.4,0.6c-0.4,0.1-0.7,0.3-1.1,0.4
		c-0.4,0.1-0.7-0.1-0.9-0.5c-0.1-0.2,0-0.7,0.3-0.9c0.5-0.3,1-0.4,1.5-0.7c0.5-0.2,1-0.4,1.5-0.6c0.5-0.2,1-0.4,1.5-0.6
		C38.1,18.8,38.6,19.1,38.6,19.7z"/>
	<path class="st0" d="M12.2,18.9c0.3,0,0.6,0.2,0.8,0.3c0.5,0.2,1.1,0.4,1.6,0.6c0.7,0.3,1.5,0.6,2.2,0.9c0.5,0.2,0.6,0.7,0.4,1.2
		c-0.1,0.2-0.5,0.4-0.7,0.3c-0.6-0.2-1.2-0.5-1.8-0.7c-0.5-0.2-1-0.4-1.5-0.6c-0.5-0.2-0.9-0.4-1.4-0.6c-0.3-0.1-0.5-0.5-0.4-0.9
		C11.5,19.1,11.8,18.9,12.2,18.9z"/>
	<path class="st0" d="M16.9,16.1c0.2,0,0.3,0,0.4,0.1c0.7,0.6,1.3,1.2,1.9,1.9c0.2,0.3,0.2,0.7-0.1,0.9c-0.3,0.3-0.6,0.3-0.9,0.1
		c-0.3-0.2-0.5-0.5-0.8-0.7c-0.4-0.4-0.8-0.7-1.1-1.2c-0.2-0.2-0.2-0.5-0.1-0.8C16.3,16.3,16.5,16.1,16.9,16.1z"/>
	<path class="st0" d="M16.1,33.1c0-0.2,0.1-0.4,0.2-0.5c0.6-0.6,1.2-1.2,1.8-1.8c0.3-0.2,0.7-0.2,1,0.1c0.3,0.3,0.3,0.7,0.1,1
		c-0.4,0.5-0.9,0.9-1.3,1.4c-0.2,0.2-0.4,0.4-0.6,0.6c-0.2,0.1-0.4,0.2-0.7,0.1C16.3,33.7,16.1,33.5,16.1,33.1z"/>
	<path class="st0" d="M33.1,16.1c0.4,0,0.6,0.2,0.7,0.4c0.1,0.2,0.1,0.5-0.1,0.7c-0.4,0.5-0.8,0.8-1.2,1.2c-0.3,0.3-0.5,0.5-0.8,0.7
		c-0.5,0.3-1.1-0.2-1.1-0.6c0-0.3,0.1-0.5,0.3-0.7c0.5-0.5,1-1,1.5-1.5C32.7,16.2,32.9,16.1,33.1,16.1z"/>
	<path class="st0" d="M33.9,33.1c0,0.4-0.2,0.6-0.5,0.8c-0.3,0.1-0.5,0-0.7-0.1c-0.6-0.6-1.3-1.2-1.8-1.9c-0.3-0.3-0.2-0.7,0.1-1
		c0.3-0.3,0.7-0.3,1,0c0.7,0.6,1.3,1.2,1.8,1.8C33.9,32.8,33.9,33,33.9,33.1z"/>
	<path class="st0" d="M14.7,25.8c-0.4,0-0.8,0-1.2,0c-0.5,0-0.8-0.3-0.8-0.8c0-0.4,0.3-0.8,0.8-0.8c0.8,0,1.5,0,2.3,0
		c0.5,0,0.8,0.3,0.8,0.8c0,0.5-0.3,0.8-0.8,0.8C15.5,25.8,15.1,25.8,14.7,25.8z"/>
	<path class="st0" d="M35.3,24.2c0.4,0,0.8,0,1.2,0c0.4,0,0.7,0.3,0.7,0.7c0,0.4-0.3,0.8-0.7,0.8c-0.8,0-1.7,0-2.5,0
		c-0.4,0-0.7-0.4-0.7-0.8c0-0.4,0.3-0.7,0.8-0.7C34.5,24.2,34.9,24.2,35.3,24.2z"/>
	<path class="st0" d="M25.7,35.3c0,0.4,0,0.8,0,1.2c0,0.5-0.4,0.7-0.7,0.7c-0.4,0-0.7-0.2-0.7-0.7c0-0.8,0-1.6,0-2.4
		c0-0.4,0.3-0.7,0.7-0.7c0.4,0,0.7,0.3,0.7,0.7c0,0.2,0,0.4,0,0.6C25.7,34.9,25.7,35.1,25.7,35.3C25.7,35.3,25.7,35.3,25.7,35.3z"/>
	<path class="st0" d="M24.3,14.7c0-0.4,0-0.8,0-1.2c0-0.4,0.3-0.8,0.7-0.8c0.4,0,0.7,0.3,0.7,0.8c0,0.8,0,1.6,0,2.4
		c0,0.5-0.4,0.7-0.7,0.7c-0.3,0-0.8-0.3-0.7-0.7C24.3,15.5,24.3,15.1,24.3,14.7z"/>
</g>
</svg>
