<svg width="16" height="16" viewBox="0 0 16 16" fill="none" xmlns="http://www.w3.org/2000/svg">
<path d="M3.80586 7.5L9.12883 12.8229" stroke="#343434" stroke-linejoin="round"/>
<path d="M6.93628 14.5H4.07531L1.34672 11.783C1.23687 11.6748 1.14967 11.5459 1.09016 11.4038C1.03064 11.2618 1 11.1094 1 10.9555C1 10.8016 1.03064 10.6492 1.09016 10.5072C1.14967 10.3651 1.23687 10.2362 1.34672 10.128L9.66486 1.84524C9.7736 1.73586 9.90304 1.64903 10.0457 1.58977C10.1883 1.53051 10.3414 1.5 10.4959 1.5C10.6505 1.5 10.8035 1.53051 10.9462 1.58977C11.0888 1.64903 11.2183 1.73586 11.327 1.84524L14.6587 5.1554C14.8774 5.37723 15 5.67571 15 5.9866C15 6.2975 14.8774 6.59597 14.6587 6.8178L6.93628 14.5Z" stroke="#343434" stroke-linejoin="round"/>
</svg>
