<?xml version="1.0" encoding="utf-8"?>
<!-- Generator: Adobe Illustrator 23.1.0, SVG Export Plug-In . SVG Version: 6.00 Build 0)  -->
<svg version="1.1" id="Layer_1" xmlns="http://www.w3.org/2000/svg" xmlns:xlink="http://www.w3.org/1999/xlink" x="0px" y="0px"
	 viewBox="0 0 60 60" style="enable-background:new 0 0 60 60;" xml:space="preserve">
<style type="text/css">
	.st0{display:none;}
	.st1{display:inline;stroke:#FFFFFF;stroke-miterlimit:10;}
	.st2{fill:#FFFFFF;}
</style>
<g class="st0">
	<circle class="st1" cx="30" cy="30" r="30"/>
</g>
<g>
	<path class="st2" d="M30,21.2c-1.5,0.2-3,0.4-4.5,0.6c-0.8,0.1-1,0.5-1,1.3c0,0.8,0.1,1.5,0.1,2.3c0,1-0.5,1.6-1.4,1.9
		c-0.9,0.3-1.8,0.7-2.8,1c-1.4,0.5-2.3,0-2.7-1.4c-0.8-3.6-0.5-5.9,3.5-8.1c3.3-1.8,7-2.2,10.7-1.9c2.6,0.2,5.1,0.9,7.3,2.3
		c0.7,0.5,1.3,1,1.9,1.6c0.8,0.9,1.3,2,1.2,3.2c-0.1,1-0.2,2.1-0.4,3.1c-0.3,1.3-1.2,1.7-2.4,1.3c-1-0.3-2-0.7-3-1
		c-0.8-0.3-1.3-1-1.3-1.9c0-0.8,0.1-1.6,0.1-2.4c0-0.8-0.2-1.2-0.9-1.3C33.1,21.6,31.6,21.4,30,21.2z"/>
</g>
<g>
	<path class="st2" d="M25.1,41.8H22v2.9h3.5v0.9H21v-8.1h4.4v0.9H22v2.6h3.1V41.8z"/>
	<path class="st2" d="M27.3,39.8l0.8,1.2c0.2,0.3,0.4,0.6,0.6,0.9h0c0.2-0.3,0.4-0.6,0.6-1l0.8-1.2h1.1l-2,2.8l2,3h-1.2l-0.9-1.3
		c-0.2-0.3-0.4-0.7-0.6-1h0c-0.2,0.3-0.4,0.7-0.6,1l-0.8,1.3H26l2.1-3l-2-2.8H27.3z"/>
	<path class="st2" d="M33.6,38.1c0,0.4-0.3,0.6-0.7,0.6c-0.4,0-0.6-0.3-0.6-0.6c0-0.4,0.3-0.7,0.7-0.7
		C33.3,37.5,33.6,37.8,33.6,38.1z M32.4,45.6v-5.8h1.1v5.8H32.4z"/>
	<path class="st2" d="M36.5,38.1v1.7H38v0.8h-1.5v3.1c0,0.7,0.2,1.1,0.8,1.1c0.3,0,0.5,0,0.6-0.1l0,0.8c-0.2,0.1-0.5,0.1-0.9,0.1
		c-0.5,0-0.9-0.2-1.1-0.4c-0.3-0.3-0.4-0.8-0.4-1.5v-3.2h-0.9v-0.8h0.9v-1.4L36.5,38.1z"/>
</g>
</svg>
