<?xml version="1.0" encoding="utf-8"?>
<!-- Generator: Adobe Illustrator 23.1.0, SVG Export Plug-In . SVG Version: 6.00 Build 0)  -->
<svg version="1.1" id="Layer_1" xmlns="http://www.w3.org/2000/svg" xmlns:xlink="http://www.w3.org/1999/xlink" x="0px" y="0px"
	 viewBox="0 0 60 60" style="enable-background:new 0 0 60 60;" xml:space="preserve">
<style type="text/css">
	.st0{display:none;}
	.st1{display:inline;stroke:#FFFFFF;stroke-miterlimit:10;}
	.st2{fill:#FFFFFF;}
</style>
<g class="st0">
	<circle class="st1" cx="30" cy="30" r="30"/>
</g>
<g>
	<path class="st2" d="M30.7,26.8c-1.7,0.2-3.4,0.4-5.1,0.7c-0.9,0.1-1.2,0.6-1.1,1.5c0,0.9,0.1,1.7,0.1,2.6c0,1.1-0.5,1.8-1.6,2.2
		c-1,0.4-2.1,0.7-3.1,1.1c-1.6,0.5-2.7,0-3-1.6c-0.9-4.1-0.6-6.7,4-9.3c3.8-2.1,7.9-2.5,12.2-2.1c3,0.2,5.8,1,8.3,2.6
		c0.8,0.5,1.5,1.2,2.1,1.8c0.9,1,1.5,2.3,1.4,3.7c-0.1,1.2-0.2,2.4-0.5,3.5c-0.4,1.4-1.3,1.9-2.7,1.4c-1.2-0.4-2.3-0.8-3.4-1.2
		c-0.9-0.3-1.5-1.1-1.5-2.1c0-0.9,0.1-1.8,0.1-2.7c0-0.9-0.2-1.3-1.1-1.5C34.2,27.2,32.5,27,30.7,26.8z"/>
</g>
</svg>
