<?xml version="1.0" encoding="utf-8"?>
<!-- Generator: Adobe Illustrator 23.1.0, SVG Export Plug-In . SVG Version: 6.00 Build 0)  -->
<svg version="1.1" id="Layer_1" xmlns="http://www.w3.org/2000/svg" xmlns:xlink="http://www.w3.org/1999/xlink" x="0px" y="0px"
	 viewBox="0 0 60 60" style="enable-background:new 0 0 60 60;" xml:space="preserve">
<style type="text/css">
	.st0{display:none;}
	.st1{display:inline;stroke:#FFFFFF;stroke-miterlimit:10;}
	.st2{fill:#FFFFFF;}
	.st3{fill:#A02727;}
</style>
<g class="st0">
	<circle class="st1" cx="30" cy="30" r="30"/>
</g>
<g>
	<path class="st2" d="M25.6,43.5h-3.1v2.9H26v0.9h-4.5v-8.1h4.4v0.9h-3.3v2.6h3.1v0.8C25.7,43.5,25.6,43.5,25.6,43.5z"/>
	<path class="st2" d="M27.8,41.5l0.8,1.2c0.2,0.3,0.4,0.6,0.6,0.9l0,0c0.2-0.3,0.4-0.6,0.6-1l0.8-1.2h1.1l-2,2.8l2,3h-1.2L29.8,46
		c-0.2-0.3-0.4-0.7-0.6-1l0,0c-0.2,0.3-0.4,0.7-0.6,1l-0.8,1.3h-1.2l2.1-3l-2-2.8H27.8z"/>
	<path class="st2" d="M34,39.9c0,0.4-0.3,0.6-0.7,0.6s-0.6-0.3-0.6-0.6c0-0.4,0.3-0.7,0.7-0.7C33.8,39.2,34,39.5,34,39.9z
		 M32.9,47.3v-5.8H34v5.8H32.9z"/>
	<path class="st2" d="M36.9,39.8v1.7h1.5v0.8h-1.5v3.1c0,0.7,0.2,1.1,0.8,1.1c0.3,0,0.5,0,0.6-0.1v0.8c-0.2,0.1-0.5,0.1-0.9,0.1
		c-0.5,0-0.9-0.2-1.1-0.4c-0.3-0.3-0.4-0.8-0.4-1.5v-3.2H35v-0.8h0.9V40L36.9,39.8z"/>
</g>
<g>
	<path class="st3" d="M30.7,20.8c-1.7,0.2-3.4,0.4-5.1,0.7c-0.9,0.1-1.2,0.6-1.1,1.5c0,0.9,0.1,1.7,0.1,2.6c0,1.1-0.5,1.8-1.6,2.2
		c-1,0.4-2.1,0.7-3.1,1.1c-1.6,0.5-2.7,0-3-1.6c-0.9-4.1-0.6-6.7,4-9.3c3.8-2.1,7.9-2.5,12.2-2.1c3,0.2,5.8,1,8.3,2.6
		c0.8,0.5,1.5,1.2,2.1,1.8c0.9,1,1.5,2.3,1.4,3.7c-0.1,1.2-0.2,2.4-0.5,3.5c-0.4,1.4-1.3,1.9-2.7,1.4c-1.2-0.4-2.3-0.8-3.4-1.2
		c-0.9-0.3-1.5-1.1-1.5-2.1c0-0.9,0.1-1.8,0.1-2.7c0-0.9-0.2-1.3-1.1-1.5C34.2,21.2,32.5,21,30.7,20.8z"/>
</g>
</svg>
