<?xml version="1.0" encoding="utf-8"?>
<!-- Generator: Adobe Illustrator 23.1.0, SVG Export Plug-In . SVG Version: 6.00 Build 0)  -->
<svg version="1.1" id="Layer_1" xmlns="http://www.w3.org/2000/svg" xmlns:xlink="http://www.w3.org/1999/xlink" x="0px" y="0px"
	 viewBox="0 0 60 60" style="enable-background:new 0 0 60 60;" xml:space="preserve">
<style type="text/css">
	.st0{display:none;}
	.st1{display:inline;stroke:#FFFFFF;stroke-miterlimit:10;}
	.st2{fill:#FFFFFF;}
</style>
<g class="st0">
	<circle class="st1" cx="30" cy="30" r="30"/>
</g>
<g>
	<path class="st2" d="M19.5,21.9c-0.5,0.6-0.9,1.2-1.4,1.7c-0.2,0.2-0.6,0.3-0.9,0.3c-0.2-0.2-0.5-0.6-0.5-0.9c0-2,0-4.1,0-6
		c0-0.6,0.3-0.9,0.9-0.9c2,0,4.1,0,6,0c0.3,0,0.6,0.3,0.8,0.5c0.2,0.2-0.2,0.6-0.3,0.8c-0.5,0.6-1.1,1.1-1.8,1.7
		c1.5,1.5,3,2.9,4.4,4.2c0.8,0.6,0.8,1.1,0,1.8c-2.6,2.4-1.8,2.4-4.2,0c-0.9-0.9-2-1.8-2.9-2.7c0,0-0.2,0-0.2-0.2
		C19.6,22.1,19.6,21.9,19.5,21.9z"/>
	<path class="st2" d="M22.3,39.6c0.9,0.6,1.5,1.1,2,1.5c0.2,0.2,0.3,0.6,0.3,0.9c0,0.2-0.5,0.3-0.8,0.3c-2.1,0-4.1,0-6.2,0
		c-0.3,0-0.9-0.6-0.9-0.9c-0.2-2.1,0-4.1,0-6.2c0-0.3,0.2-0.8,0.5-0.8c0.3,0,0.6,0.2,0.9,0.3c0.6,0.5,1.1,1.1,1.7,1.7
		c1.5-1.5,3-3,4.4-4.5c0.6-0.6,1.1-0.6,1.7,0c2.3,2.1,2.3,2.1,0,4.4C24.7,37.5,23.7,38.4,22.3,39.6z"/>
	<path class="st2" d="M37.5,39.6c-1.7-1.5-3-3-4.5-4.4c-0.8-0.6-0.6-1.1,0-1.8c2.1-2.1,2.1-2.1,4.2,0c0.9,0.9,2,1.8,2.9,2.9
		c0,0,0.2,0,0.5,0.3c0.5-0.6,0.8-1.2,1.4-1.7c0.3-0.3,0.6-0.5,0.9-0.3c0.2,0,0.5,0.6,0.5,0.9c0,2,0,3.9,0,6c0,0.6-0.3,0.9-0.9,0.9
		c-2,0-4.1,0-6,0c-0.3,0-0.6-0.3-0.8-0.5s0.2-0.6,0.3-0.8C36.2,40.6,36.8,40.2,37.5,39.6z"/>
	<path class="st2" d="M40.4,21.6c-1.5,1.7-2.9,3-4.2,4.4c-0.6,0.8-1.2,0.8-2,0c-0.5-0.5-0.9-0.9-1.4-1.4c-0.6-0.6-0.6-1.1,0-1.5
		c1.5-1.4,2.9-2.7,4.5-4.4c-0.8-0.6-1.4-1.1-1.8-1.5c-0.2-0.2-0.3-0.6-0.3-0.9c0-0.2,0.5-0.3,0.8-0.3c2,0,4.1,0,6,0
		c0.8,0,1.1,0.3,1.1,1.1c0,2,0,3.9,0,6c0,0.3-0.2,0.8-0.5,0.8c-0.3,0.2-0.6-0.2-0.9-0.3C41.5,23,41,22.4,40.4,21.6z"/>
</g>
</svg>
