<?xml version="1.0" encoding="utf-8"?>
<!-- Generator: Adobe Illustrator 23.1.0, SVG Export Plug-In . SVG Version: 6.00 Build 0)  -->
<svg version="1.1" id="Layer_1" xmlns="http://www.w3.org/2000/svg" xmlns:xlink="http://www.w3.org/1999/xlink" x="0px" y="0px"
	 viewBox="0 0 50 50" style="enable-background:new 0 0 50 50;" xml:space="preserve">
<style type="text/css">
	.st0{fill:none;stroke:#FFFFFF;stroke-miterlimit:10;}
</style>
<g>
	<path class="st0" d="M19.4,16.6c0.6-0.5,1-0.8,1.4-1.2c0.2-0.2,0.4-0.6,0.3-0.7c-0.1-0.2-0.5-0.4-0.7-0.4c-1.6,0-3.3,0-5,0
		c-0.6,0-0.8,0.3-0.8,0.9c0,1.6,0,3.3,0,4.9c0,0.2,0.2,0.7,0.3,0.7c0.2,0.1,0.7-0.1,0.9-0.3c0.4-0.4,0.7-0.9,1.2-1.5
		c1.1,1.1,1.8,2,2.6,2.7c2,2,1.4,2,3.6-0.1c0.5-0.5,0.5-0.8,0-1.3C21.9,19.1,20.7,17.9,19.4,16.6z M19.2,33.7
		c1.1-1.1,2.1-1.8,2.9-2.6c1.6-1.6,1.6-1.6,0-3.3c-0.7-0.7-1.1-0.7-1.8,0c-1.1,1.1-2.2,2.3-3.3,3.6c-0.5-0.7-0.8-1.1-1.2-1.5
		c-0.2-0.2-0.6-0.3-0.7-0.3c-0.2,0.1-0.4,0.5-0.4,0.7c0,1.6-0.1,3.3,0,5c0,0.2,0.5,0.7,0.7,0.7c1.7,0.1,3.4,0.1,5,0
		c0.2,0,0.7-0.2,0.7-0.3c0.1-0.2-0.1-0.6-0.2-0.7C20.5,34.6,19.9,34.3,19.2,33.7z M34.1,31.5c-1-1.1-1.8-2-2.6-2.8c-2-2-1.3-2-3.5,0
		c-0.6,0.5-0.6,0.9,0,1.5c1.2,1.1,2.4,2.3,3.7,3.6c-0.6,0.5-1.1,0.9-1.5,1.3c-0.2,0.2-0.3,0.6-0.2,0.7c0.2,0.2,0.5,0.4,0.7,0.4
		c1.6,0,3.3,0.1,5,0c0.2,0,0.8-0.5,0.8-0.7c0.1-1.7,0.1-3.4,0-5c0-0.2-0.2-0.6-0.3-0.7c-0.2-0.1-0.6,0.1-0.7,0.2
		C35,30.3,34.6,30.8,34.1,31.5z M34.1,18.9c0.5,0.6,0.9,1.1,1.3,1.5c0.2,0.2,0.6,0.3,0.7,0.2c0.2-0.2,0.3-0.5,0.4-0.7
		c0-1.6,0-3.3,0-4.9c0-0.6-0.2-0.9-0.8-0.9c-1.7,0-3.4,0-5,0c-0.2,0-0.6,0.2-0.7,0.3c-0.1,0.2,0,0.6,0.2,0.7c0.5,0.4,1,0.8,1.6,1.3
		c-1.1,1.1-2,1.8-2.8,2.7c-1.9,2-1.9,1.3,0,3.3c0.6,0.7,1.1,0.6,1.6,0C31.7,21.4,32.8,20.3,34.1,18.9z"/>
	<path class="st0" d="M19.4,16.6c1.3,1.3,2.5,2.5,3.7,3.7c0.5,0.5,0.5,0.8,0,1.3c-2.2,2.1-1.6,2-3.6,0.1C18.8,20.9,18,20.1,17,19
		c-0.5,0.6-0.8,1.1-1.2,1.5c-0.2,0.2-0.6,0.3-0.9,0.3c-0.2,0-0.3-0.5-0.3-0.7c0-1.6,0-3.3,0-4.9c0-0.6,0.2-0.9,0.8-0.9
		c1.6,0,3.3,0,5,0c0.2,0,0.7,0.2,0.7,0.4c0.1,0.2-0.1,0.6-0.3,0.7C20.4,15.8,19.9,16.2,19.4,16.6z"/>
	<path class="st0" d="M19.2,33.7c0.7,0.6,1.2,0.9,1.7,1.3c0.2,0.2,0.3,0.6,0.2,0.7c0,0.2-0.4,0.3-0.7,0.3c-1.7,0-3.4,0.1-5,0
		c-0.2,0-0.7-0.5-0.7-0.7c-0.1-1.6-0.1-3.3,0-5c0-0.2,0.2-0.7,0.4-0.7c0.2-0.1,0.6,0.1,0.7,0.3c0.4,0.4,0.7,0.8,1.3,1.5
		c1.2-1.2,2.3-2.4,3.3-3.6c0.7-0.7,1.1-0.7,1.8,0c1.6,1.7,1.6,1.7,0,3.3C21.3,31.9,20.4,32.7,19.2,33.7z"/>
	<path class="st0" d="M34.1,31.5c0.5-0.7,0.8-1.1,1.2-1.5c0.2-0.2,0.5-0.3,0.7-0.2c0.2,0,0.3,0.4,0.3,0.7c0,1.7,0.1,3.4,0,5
		c0,0.2-0.5,0.7-0.8,0.7c-1.6,0.1-3.3,0.1-5,0c-0.2,0-0.6-0.2-0.7-0.4c-0.1-0.2,0.1-0.5,0.2-0.7c0.4-0.4,0.9-0.8,1.5-1.3
		c-1.3-1.3-2.5-2.4-3.7-3.6c-0.6-0.6-0.6-1,0-1.5c2.2-2,1.5-2,3.5,0C32.4,29.4,33.1,30.3,34.1,31.5z"/>
	<path class="st0" d="M34.1,18.9c-1.3,1.3-2.4,2.4-3.5,3.6c-0.6,0.7-1.1,0.7-1.6,0c-2-2-2-1.4,0-3.3c0.8-0.8,1.7-1.6,2.8-2.7
		c-0.7-0.5-1.2-0.9-1.6-1.3c-0.2-0.2-0.2-0.5-0.2-0.7c0.1-0.2,0.4-0.3,0.7-0.3c1.7,0,3.4,0,5,0c0.6,0,0.8,0.3,0.8,0.9
		c0,1.6,0,3.3,0,4.9c0,0.2-0.2,0.6-0.4,0.7c-0.2,0.1-0.5-0.1-0.7-0.2C35,20,34.6,19.6,34.1,18.9z"/>
</g>
</svg>
