<?xml version="1.0" encoding="utf-8"?>
<!-- Generator: Adobe Illustrator 23.1.0, SVG Export Plug-In . SVG Version: 6.00 Build 0)  -->
<svg version="1.1" id="Layer_1" xmlns="http://www.w3.org/2000/svg" xmlns:xlink="http://www.w3.org/1999/xlink" x="0px" y="0px"
	 viewBox="0 0 72 72" style="enable-background:new 0 0 72 72;" xml:space="preserve">
<style type="text/css">
	.st0{display:none;}
	.st1{display:inline;fill:#050505;stroke:#000000;stroke-miterlimit:10;}
	.st2{display:inline;fill:none;stroke:#FFFFFF;stroke-width:2;stroke-miterlimit:10;}
	.st3{fill:none;stroke:#FFFFFF;stroke-miterlimit:10;}
</style>
<g class="st0">
	<rect x="-1.5" y="-0.5" class="st1" width="74" height="74"/>
</g>
<g id="Layer_5" class="st0">
	<polyline class="st2" points="12,21 12,14 63,14 63,55 12,55 12,47 	"/>
	<polygon class="st2" points="28,18.5 10.6,34.7 28,50.9 28,41 54,41 54,28 28,28 	"/>
</g>
<g id="Layer_3" class="st0">
	<path class="st2" d="M60.8,36.3c0-0.8,0-1.6-0.1-2.4l4.5-7.2l-5-9.5l-8.4-0.3c-2.1-1.7-4.4-3.2-6.9-4.2l-4.2-7.2L30,5.5l-4.2,7.2
		c-2.4,1-4.6,2.3-6.6,3.9L10.9,17l-5.2,9.4l4.4,7.3C10,34.6,10,35.4,10,36.3c0,0.8,0,1.7,0.1,2.5l-4.4,7.3l4.9,9.6l8.8,0.4
		c1.9,1.5,4,2.8,6.2,3.8l4.5,7.4l10.7,0.2l4.5-7.6c2.2-0.9,4.3-2.2,6.2-3.7l8.7-0.2l5.1-9.4L60.6,39C60.7,38.1,60.8,37.2,60.8,36.3z
		 M35.3,49.2c-7.1,0-12.9-5.8-12.9-12.9s5.8-12.9,12.9-12.9s12.9,5.8,12.9,12.9C48.2,43.4,42.5,49.2,35.3,49.2z"/>
	<path class="st2" d="M35.4,2"/>
</g>
<g id="Layer_4" class="st0">
	<circle class="st2" cx="35.4" cy="36.3" r="28.3"/>
	<circle class="st2" cx="35.4" cy="28.6" r="12.4"/>
	<path class="st2" d="M17.6,58.4c2.1-8.1,9.5-14.1,18.3-14.1c8.6,0,15.8,5.7,18.1,13.5"/>
</g>
<rect x="22.6" y="22.6" class="st3" width="26.8" height="26.8"/>
<line class="st3" x1="22.6" y1="36" x2="49.4" y2="36"/>
<line class="st3" x1="36" y1="22.6" x2="36" y2="49.4"/>
</svg>
