<?xml version="1.0" encoding="utf-8"?>
<!-- Generator: Adobe Illustrator 23.1.0, SVG Export Plug-In . SVG Version: 6.00 Build 0)  -->
<svg version="1.1" id="Layer_1" xmlns="http://www.w3.org/2000/svg" xmlns:xlink="http://www.w3.org/1999/xlink" x="0px" y="0px"
	 viewBox="0 0 60 60" style="enable-background:new 0 0 60 60;" xml:space="preserve">
<style type="text/css">
	.st0{display:none;}
	.st1{display:inline;stroke:#FFFFFF;stroke-miterlimit:10;}
	.st2{fill:#FDFDFD;}
	.st3{fill:#FBFBFB;}
	.st4{fill:#FCFCFC;}
	.st5{fill:#F9F9F9;}
</style>
<g class="st0">
	<circle class="st1" cx="30" cy="30" r="30"/>
</g>
<g>
	<path class="st2" d="M30.3,37.6c-1.7,0-3.5,0-5.2,0c-1.7,0-1.7-0.6-1.6-1.9c0.4-3.9,3.6-7.2,6.9-7.2c3.4,0.1,6.6,3.7,6.8,7.6
		c0,1.1-0.3,1.5-1.4,1.4C34,37.6,32.2,37.6,30.3,37.6z"/>
	<path class="st3" d="M40.7,33.6c-1.1-0.1-2.6,0.3-3.1-0.3c-0.8-1-1.4-2.4-2.7-3.9c-0.4-0.4,0.2-0.8,0.4-1.1c1.5-2,4.6-2.2,6.5-0.6
		c0.4,0.4,0.9,0.9,1.2,1.4c0.7,1.2,1.5,2.6,1.1,3.8C43.6,33.8,42.2,33.6,40.7,33.6z"/>
	<path class="st3" d="M19.8,33.5c-0.7,0-2.8,0.1-3-0.4c-0.6-1.4,0.2-2.8,1-4c1.7-2.8,4.9-3.3,7.1-1.3c0.9,0.8,1.3,1.4,0.2,2.6
		c-0.3,0.3-0.8,1-1,1.3C22.5,34,22.8,33.5,19.8,33.5z"/>
	<path class="st4" d="M30.2,26.8c-1.8-0.1-3.1-1.5-3-3.3c0.1-1.8,1.5-3.1,3.3-3.1c1.7,0,3.2,1.6,3.1,3.3
		C33.5,25.4,31.9,26.8,30.2,26.8z"/>
	<path class="st5" d="M24.4,22.7c-0.3,1.5-1,2.6-2.5,2.6c-1.5,0-2.5-1-2.5-2.4c0-1.5,0.8-2.4,2.4-2.5C23.4,20.4,24,21.4,24.4,22.7z"
		/>
	<path class="st5" d="M38.9,25.4c-1.4-0.3-2.5-1-2.5-2.5c0-1.5,0.8-2.5,2.3-2.5c1.6,0,2.5,1,2.5,2.4C41.3,24.2,40.3,25.1,38.9,25.4z
		"/>
</g>
</svg>
