<?xml version="1.0" encoding="utf-8"?>
<!-- Generator: Adobe Illustrator 23.1.0, SVG Export Plug-In . SVG Version: 6.00 Build 0)  -->
<svg version="1.1" id="Layer_1" xmlns="http://www.w3.org/2000/svg" xmlns:xlink="http://www.w3.org/1999/xlink" x="0px" y="0px"
	 viewBox="0 0 60 60" style="enable-background:new 0 0 60 60;" xml:space="preserve">
<style type="text/css">
	.st0{display:none;}
	.st1{display:inline;stroke:#FFFFFF;stroke-miterlimit:10;}
	.st2{fill:#FFFFFF;}
	.st3{fill:#FDFDFD;}
	.st4{fill:#FBFBFB;}
	.st5{fill:#FCFCFC;}
	.st6{fill:#F9F9F9;}
</style>
<g class="st0">
	<circle class="st1" cx="30" cy="30" r="30"/>
</g>
<g>
	<path class="st2" d="M19.4,45.6c-0.5,0.2-1.4,0.4-2.5,0.4c-1.2,0-2.2-0.3-3-1.1c-0.7-0.7-1.1-1.8-1.1-3c0-2.4,1.7-4.2,4.4-4.2
		c0.9,0,1.7,0.2,2,0.4L18.9,39c-0.4-0.2-1-0.3-1.8-0.3c-2,0-3.3,1.2-3.3,3.3c0,2.1,1.2,3.3,3.1,3.3c0.7,0,1.2-0.1,1.4-0.2v-2.4h-1.6
		v-0.8h2.7V45.6z"/>
	<path class="st2" d="M21,42c0-0.7,0-1.3,0-1.8h0.9l0,1.1h0c0.3-0.8,0.9-1.3,1.6-1.3c0.1,0,0.2,0,0.3,0v1c-0.1,0-0.2,0-0.4,0
		c-0.7,0-1.3,0.6-1.4,1.4c0,0.1,0,0.3,0,0.5V46h-1V42z"/>
	<path class="st2" d="M30,43c0,2.1-1.5,3.1-2.9,3.1c-1.6,0-2.8-1.2-2.8-3c0-1.9,1.3-3.1,2.9-3.1C28.9,40,30,41.3,30,43z M25.4,43.1
		c0,1.3,0.7,2.2,1.8,2.2c1,0,1.8-0.9,1.8-2.3c0-1-0.5-2.2-1.7-2.2C26,40.8,25.4,42,25.4,43.1z"/>
	<path class="st2" d="M36.2,44.4c0,0.6,0,1.1,0,1.6h-0.9L35.3,45h0c-0.3,0.5-0.9,1.1-1.9,1.1c-0.9,0-2-0.5-2-2.5v-3.4h1.1v3.2
		c0,1.1,0.3,1.8,1.3,1.8c0.7,0,1.2-0.5,1.4-1c0.1-0.2,0.1-0.3,0.1-0.5v-3.6h1.1V44.4z"/>
	<path class="st2" d="M38,42.1c0-0.7,0-1.3,0-1.9h0.9l0,1h0c0.4-0.7,1.1-1.1,2.1-1.1c1.4,0,2.5,1.2,2.5,3c0,2.1-1.3,3.1-2.6,3.1
		c-0.8,0-1.4-0.3-1.8-0.9h0v3.2h-1V42.1z M39,43.6c0,0.2,0,0.3,0,0.4c0.2,0.7,0.8,1.2,1.6,1.2c1.1,0,1.8-0.9,1.8-2.2
		c0-1.2-0.6-2.2-1.7-2.2c-0.7,0-1.4,0.5-1.6,1.3c0,0.1-0.1,0.3-0.1,0.4V43.6z"/>
	<path class="st2" d="M44.7,44.9c0.3,0.2,0.9,0.4,1.4,0.4c0.8,0,1.1-0.4,1.1-0.9c0-0.5-0.3-0.8-1.1-1.1c-1-0.4-1.5-0.9-1.5-1.6
		c0-0.9,0.8-1.7,2-1.7c0.6,0,1.1,0.2,1.4,0.4l-0.3,0.8c-0.2-0.1-0.6-0.3-1.2-0.3c-0.6,0-1,0.4-1,0.8c0,0.5,0.3,0.7,1.1,1
		c1,0.4,1.5,0.9,1.5,1.8c0,1-0.8,1.7-2.2,1.7c-0.6,0-1.2-0.2-1.6-0.4L44.7,44.9z"/>
</g>
<g>
	<path class="st3" d="M30.3,31.6c-1.7,0-3.5,0-5.2,0c-1.7,0-1.7-0.6-1.6-1.9c0.4-3.9,3.6-7.2,6.9-7.2c3.4,0.1,6.6,3.7,6.8,7.6
		c0,1.1-0.3,1.5-1.4,1.4C34,31.6,32.2,31.6,30.3,31.6z"/>
	<path class="st4" d="M40.7,27.6c-1.1-0.1-2.6,0.3-3.1-0.3c-0.8-1-1.4-2.4-2.7-3.9c-0.4-0.4,0.2-0.8,0.4-1.1c1.5-2,4.6-2.2,6.5-0.6
		c0.4,0.4,0.9,0.9,1.2,1.4c0.7,1.2,1.5,2.6,1.1,3.8C43.6,27.8,42.2,27.6,40.7,27.6z"/>
	<path class="st4" d="M19.8,27.5c-0.7,0-2.8,0.1-3-0.4c-0.6-1.4,0.2-2.8,1-4c1.7-2.8,4.9-3.3,7.1-1.3c0.9,0.8,1.3,1.4,0.2,2.6
		c-0.3,0.3-0.8,1-1,1.3C22.5,28,22.8,27.5,19.8,27.5z"/>
	<path class="st5" d="M30.2,20.8c-1.8-0.1-3.1-1.5-3-3.3c0.1-1.8,1.5-3.1,3.3-3.1c1.7,0,3.2,1.6,3.1,3.3
		C33.5,19.4,31.9,20.8,30.2,20.8z"/>
	<path class="st6" d="M24.4,16.7c-0.3,1.5-1,2.6-2.5,2.6c-1.5,0-2.5-1-2.5-2.4c0-1.5,0.8-2.4,2.4-2.5C23.4,14.4,24,15.4,24.4,16.7z"
		/>
	<path class="st6" d="M38.9,19.4c-1.4-0.3-2.5-1-2.5-2.5c0-1.5,0.8-2.5,2.3-2.5c1.6,0,2.5,1,2.5,2.4C41.3,18.2,40.3,19.1,38.9,19.4z
		"/>
</g>
</svg>
