<svg width="60" height="60" viewBox="0 0 60 60" fill="none" xmlns="http://www.w3.org/2000/svg">
<path d="M29.9785 42.0005C27.4423 42.0005 24.757 42.0005 22.2208 42.0005C19.6846 42.0005 19.6846 41.0936 19.8338 39.1284C20.4306 33.233 25.2045 28.2446 30.1277 28.2446C35.2001 28.3958 39.974 33.8377 40.2724 39.7331C40.2724 41.3959 39.8248 42.0005 38.1838 41.8494C35.4984 42.0005 32.8131 42.0005 29.9785 42.0005Z" fill="#35B1A6"/>
<path d="M45.4942 35.9539C43.8531 35.8028 41.6153 36.4074 40.8694 35.5004C39.6759 33.9888 38.7808 31.8725 36.8414 29.6051C36.2446 29.0004 37.1397 28.3957 37.4381 27.9422C39.6759 24.919 44.3007 24.6166 47.1352 27.0353C47.732 27.6399 48.4779 28.3957 48.9255 29.1516C49.9698 30.9655 51.1633 33.0818 50.5665 34.8958C49.8206 36.2563 47.732 35.9539 45.4942 35.9539Z" fill="#35B1A6"/>
<path d="M14.3145 35.8027C13.2702 35.8027 10.1373 35.9538 9.83889 35.198C8.94377 33.0817 10.1373 30.9654 11.3308 29.1515C13.8669 24.9189 18.6409 24.1631 21.923 27.1863C23.2657 28.3956 23.8625 29.3026 22.2214 31.1166C21.7738 31.5701 21.0279 32.6282 20.7295 33.0817C18.3425 36.5585 18.7901 35.8027 14.3145 35.8027Z" fill="#35B1A6"/>
<path d="M29.8303 25.6745C27.145 25.5233 25.2055 23.407 25.3547 20.6861C25.5039 17.9651 27.5925 16 30.2779 16C32.8141 16 35.0519 18.4186 34.9027 20.9884C34.7535 23.5582 32.3665 25.6745 29.8303 25.6745Z" fill="#35B1A6"/>
<path d="M21.1771 19.4768C20.7296 21.7442 19.6852 23.407 17.4474 23.407C15.2096 23.407 13.7178 21.8954 13.7178 19.7791C13.7178 17.5116 14.9113 16.1512 17.2983 16C19.6852 16 20.5804 17.5116 21.1771 19.4768Z" fill="#35B1A6"/>
<path d="M42.8097 23.5582C40.7211 23.1047 39.0801 22.0466 39.0801 19.7791C39.0801 17.5116 40.2736 16 42.5114 16C44.8984 16 46.241 17.5116 46.241 19.6279C46.3902 21.7442 44.8984 23.1047 42.8097 23.5582Z" fill="#35B1A6"/>
</svg>
