<svg width="60" height="60" viewBox="0 0 60 60" fill="none" xmlns="http://www.w3.org/2000/svg">
<path d="M30.2514 41.8309C27.7151 41.8309 25.0296 41.8309 22.4934 41.8309C19.9571 41.8309 19.9571 40.9358 20.1063 38.9963C20.703 33.1778 25.4772 28.2544 30.4006 28.2544C35.4731 28.4036 40.2473 33.7745 40.5457 39.5931C40.5457 41.2342 40.0981 41.8309 38.457 41.6818C35.7715 41.8309 33.086 41.8309 30.2514 41.8309Z" fill="#7F8080"/>
<path d="M45.767 35.863C44.1259 35.7138 41.888 36.3106 41.142 35.4154C39.9485 33.9235 39.0533 31.8348 37.1138 29.5969C36.5171 29.0001 37.4122 28.4034 37.7106 27.9558C39.9485 24.9719 44.5735 24.6735 47.4081 27.0606C48.0049 27.6574 48.7509 28.4034 49.1985 29.1493C50.2428 30.9396 51.4363 33.0283 50.8396 34.8187C50.0936 36.1614 48.0049 35.863 45.767 35.863Z" fill="#7F8080"/>
<path d="M14.5862 35.7138C13.5418 35.7138 10.4088 35.863 10.1104 35.117C9.21523 33.0283 10.4088 30.9396 11.6023 29.1493C14.1386 24.9719 18.9128 24.2259 22.195 27.2098C23.5377 28.4033 24.1345 29.2985 22.4934 31.0888C22.0458 31.5364 21.2999 32.5807 21.0015 33.0283C18.6144 36.4597 19.062 35.7138 14.5862 35.7138Z" fill="#7F8080"/>
<path d="M30.103 25.7178C27.4175 25.5686 25.478 23.4799 25.6272 20.7944C25.7764 18.1089 27.8651 16.1694 30.5506 16.1694C33.0868 16.1694 35.3247 18.5565 35.1755 21.0928C35.0263 23.6291 32.6393 25.7178 30.103 25.7178Z" fill="#7F8080"/>
<path d="M21.4489 19.6009C21.0013 21.8388 19.957 23.4799 17.7191 23.4799C15.4812 23.4799 13.9893 21.988 13.9893 19.8993C13.9893 17.6614 15.1828 16.3186 17.5699 16.1694C19.957 16.1694 20.8521 17.6614 21.4489 19.6009Z" fill="#7F8080"/>
<path d="M43.0824 23.6291C40.9937 23.1815 39.3525 22.1371 39.3525 19.8993C39.3525 17.6614 40.5461 16.1694 42.784 16.1694C45.1711 16.1694 46.5138 17.6614 46.5138 19.7501C46.663 21.8388 45.1711 23.1815 43.0824 23.6291Z" fill="#7F8080"/>
</svg>
