<svg width="16" height="24" viewBox="0 0 16 24" fill="none" xmlns="http://www.w3.org/2000/svg">
<path d="M15.9693 7.48644C15.9693 5.50145 15.1683 3.59771 13.7426 2.19382C12.3168 0.789933 10.383 0.000822964 8.36621 0V7.48644H15.9693Z" fill="black"/>
<path d="M8.36621 15.7178C10.3824 15.717 12.3158 14.9283 13.7415 13.5251C15.1672 12.1219 15.9685 10.2189 15.9693 8.2345H8.36621V15.7178Z" fill="black"/>
<path d="M7.60306 8.2345C5.5866 8.2345 3.65273 9.02291 2.22688 10.4263C0.801031 11.8297 0 13.7331 0 15.7178H7.60306V8.2345Z" fill="black"/>
<path d="M-2.77013e-05 24C2.01643 24 3.9503 23.2116 5.37615 21.8082C6.802 20.4048 7.60303 18.5014 7.60303 16.5167L-2.83555e-05 16.5167L-2.77013e-05 24Z" fill="black"/>
<path d="M0 0C-1.73327e-07 1.98499 0.800929 3.88873 2.22669 5.29262C3.65245 6.69651 5.58631 7.48562 7.60306 7.48644V0H0Z" fill="black"/>
</svg>
