<svg width="24" height="23" viewBox="0 0 24 23" fill="none" xmlns="http://www.w3.org/2000/svg">
<path fill-rule="evenodd" clip-rule="evenodd" d="M0 23H24L16.9333 4.78613L13.7333 6.78035L10.8 0L0 23ZM11.0439 17.1787V17.6846H12.8555V17.2744C12.8555 17.001 12.9124 16.7799 13.0264 16.6113C13.1449 16.4427 13.4229 16.1966 13.8604 15.873C14.4984 15.4173 14.9313 15.0072 15.1592 14.6426C15.387 14.278 15.501 13.8451 15.501 13.3438C15.501 12.5918 15.223 11.9902 14.667 11.5391C14.1156 11.0879 13.3704 10.8623 12.4316 10.8623C11.2923 10.8623 10.2145 11.1471 9.19824 11.7168L9.94336 13.2139C10.8184 12.7673 11.5977 12.5439 12.2812 12.5439C12.6732 12.5439 12.9785 12.6214 13.1973 12.7764C13.416 12.9313 13.5254 13.1569 13.5254 13.4531C13.5254 13.7174 13.4479 13.9567 13.293 14.1709C13.1426 14.3851 12.8281 14.6631 12.3496 15.0049C11.8529 15.3695 11.5111 15.7135 11.3242 16.0371C11.1374 16.3607 11.0439 16.7412 11.0439 17.1787ZM11.1328 19.1543C10.9277 19.3503 10.8252 19.6396 10.8252 20.0225C10.8252 20.3916 10.93 20.6787 11.1396 20.8838C11.3493 21.0843 11.6455 21.1846 12.0283 21.1846C12.402 21.1846 12.6937 21.082 12.9033 20.877C13.113 20.6673 13.2178 20.3825 13.2178 20.0225C13.2178 19.6488 13.113 19.3617 12.9033 19.1611C12.6982 18.9606 12.4066 18.8604 12.0283 18.8604C11.6364 18.8604 11.3379 18.9583 11.1328 19.1543Z" fill="white"/>
</svg>
