<?xml version="1.0" encoding="utf-8"?>
<!-- Generator: Adobe Illustrator 23.1.0, SVG Export Plug-In . SVG Version: 6.00 Build 0)  -->
<svg version="1.1" xmlns="http://www.w3.org/2000/svg" xmlns:xlink="http://www.w3.org/1999/xlink" x="0px" y="0px"
	 viewBox="0 0 60 60" style="enable-background:new 0 0 60 60;" xml:space="preserve">
<style type="text/css">
	.st0{display:none;}
	.st1{display:inline;stroke:#FFFFFF;stroke-miterlimit:10;}
	.st2{fill:#86D0CA;}
</style>
<g id="Layer_1" class="st0">
	<circle class="st1" cx="30" cy="30" r="30"/>
</g>
<g id="Layer_2">
	<g>
		
			<image style="overflow:visible;opacity:0.25;" width="45" height="70" xlink:href="4476F3EB.png"  transform="matrix(0.24 0 0 0.24 15.96 26.56)">
		</image>
		<g>
			<path class="st2" d="M21.3,40.2L21.3,40.2c-1.2,0-2.3-1-2.3-2.3v-6.1c0-1.2,1-2.3,2.3-2.3h0c1.2,0,2.3,1,2.3,2.3v6.1
				C23.6,39.2,22.6,40.2,21.3,40.2z"/>
		</g>
	</g>
	<g>
		
			<image style="overflow:visible;opacity:0.25;" width="45" height="101" xlink:href="4476F3F6.png"  transform="matrix(0.24 0 0 0.24 23.88 19.12)">
		</image>
		<g>
			<path class="st2" d="M29.3,40.2L29.3,40.2c-1.2,0-2.3-1-2.3-2.3V24.4c0-1.2,1-2.3,2.3-2.3h0c1.2,0,2.3,1,2.3,2.3v13.5
				C31.6,39.2,30.6,40.2,29.3,40.2z"/>
		</g>
	</g>
	<g>
		
			<image style="overflow:visible;opacity:0.25;" width="45" height="86" xlink:href="4476F3F7.png"  transform="matrix(0.24 0 0 0.24 31.8 22.72)">
		</image>
		<g>
			<path class="st2" d="M37.3,40.2L37.3,40.2c-1.2,0-2.3-1-2.3-2.3v-9.7c0-1.2,1-2.3,2.3-2.3h0c1.2,0,2.3,1,2.3,2.3v9.7
				C39.5,39.2,38.5,40.2,37.3,40.2z"/>
		</g>
	</g>
</g>
</svg>
