<?xml version="1.0" encoding="utf-8"?>
<!-- Generator: Adobe Illustrator 23.1.0, SVG Export Plug-In . SVG Version: 6.00 Build 0)  -->
<svg version="1.1" id="Layer_1" xmlns="http://www.w3.org/2000/svg" xmlns:xlink="http://www.w3.org/1999/xlink" x="0px" y="0px"
	 viewBox="0 0 80 80" style="enable-background:new 0 0 80 80;" xml:space="preserve">
<style type="text/css">
	.st0{fill:#FFFFFF;}
</style>
<g>
	<path class="st0" d="M37,29.8c2.5-2.2,4.6-4.5,7-6.3c6.3-4.6,15.3-0.9,16.5,6.8c0.5,3.2-0.7,5.9-3,8.2c-2.1,2-4.3,4-6.4,6.1
		c-5,4.7-13.5,3.5-16.7-2.4c0.8-0.7,1.5-1.4,2.4-2c0.6-0.5,1.2-0.4,1.7,0.4c2.2,3.1,6.4,3.6,9.3,1.1c2.2-2,4.4-4.1,6.5-6.1
		c2-1.9,2.4-4.4,1.2-6.7c-1.2-2.2-3.9-3.4-6.4-3c-2.1,0.4-3.5,1.7-4.9,3.2c-1,1.1-2,1.6-3.6,1.1C39.7,29.7,38.4,29.9,37,29.8z"/>
	<path class="st0" d="M47.5,38c-0.9,0.7-1.8,1.4-2.7,2.1c-0.5,0.4-0.9,0.3-1.3-0.3c-2.4-3.4-6.5-3.9-9.6-1.1c-2,1.8-4,3.7-6,5.6
		c-2.6,2.5-2.9,5.7-0.7,8.1c2.2,2.4,6.2,2.6,8.7,0.4c1-0.9,1.9-1.8,2.9-2.7c0.3-0.2,0.7-0.5,1.1-0.5c1.6,0.2,3.2,0.4,5,0.7
		c-3.6,2.8-6.1,6.9-10.9,7.9c-6.5,1.4-12.8-3.6-12.6-10.2c0.1-2.4,1-4.4,2.7-6.1c2.5-2.4,4.9-4.8,7.6-7C36.4,30.9,44.5,32.4,47.5,38
		z"/>
</g>
</svg>
