<?xml version="1.0" encoding="utf-8"?>
<!-- Generator: Adobe Illustrator 23.1.0, SVG Export Plug-In . SVG Version: 6.00 Build 0)  -->
<svg version="1.1" id="Layer_1" xmlns="http://www.w3.org/2000/svg" xmlns:xlink="http://www.w3.org/1999/xlink" x="0px" y="0px"
	 viewBox="0 0 80 80" style="enable-background:new 0 0 80 80;" xml:space="preserve">
<style type="text/css">
	.st0{fill:#FFFFFF;}
</style>
<path class="st0" d="M40.2,63.7c-2.5,0-5.1,0-7.6,0c-5.7-0.1-10.1-4.5-10.2-10.2c0-2.8,0-5.7,0-8.5c0-3.9,1.6-6.8,4.7-9
	c0.5-0.3,0.9-1.1,0.9-1.7c0.1-2.8,0-5.7,0-8.5c0-6.3,5.3-11.4,11.8-11.4c6.4,0,11.7,5.1,11.7,11.4c0,2.7,0,5.3,0,8
	c0,0.9,0.2,1.5,1.1,1.9c3.5,2,5.3,5.1,5.3,9.1c0,2.8,0,5.7,0,8.5c-0.1,5.7-4.5,10.2-10.2,10.3C45.3,63.7,42.8,63.7,40.2,63.7z
	 M47.5,34.3c0-3.1,0.1-6.1,0-9c-0.2-3.7-3.1-6.5-6.9-6.9c-3.4-0.4-7.3,1.8-7.9,5.2c-0.6,3.5-0.5,7.1-0.7,10.6
	C37.5,34.3,42.4,34.3,47.5,34.3z M40.3,41.7c-3.1,0-5,3.1-3.7,5.8c0.5,1.1,0.7,2.3,0.9,3.5c0.1,1,0,2.1,0,3.1
	c0.1,1.7,1.2,2.7,2.7,2.7c1.5,0,2.7-1.1,2.8-2.7c0.1-0.9,0-1.9,0-2.8c0-1.4,0.1-2.7,0.9-4.1C45.4,45,43.3,41.7,40.3,41.7z"/>
</svg>
