<?xml version="1.0" encoding="utf-8"?>
<!-- Generator: Adobe Illustrator 23.1.0, SVG Export Plug-In . SVG Version: 6.00 Build 0)  -->
<svg version="1.1" id="Layer_1" xmlns="http://www.w3.org/2000/svg" xmlns:xlink="http://www.w3.org/1999/xlink" x="0px" y="0px"
	 viewBox="0 0 52 52" style="enable-background:new 0 0 52 52;" xml:space="preserve">
<style type="text/css">
	.st0{fill:#7F8080;}
</style>
<path class="st0" d="M30.7,35.8c0,0.1-0.1,0.2-0.2,0.2h-4.8V14.6c0-0.5-0.3-1-0.8-1.1l-7.6-2.9h13.2c0.1,0,0.2,0.1,0.2,0.2v5.5h2
	V9.6c0-0.5-0.4-1-1-1H11.9c0,0-0.1,0-0.1,0c0,0,0,0-0.1,0c0,0,0,0,0,0c0,0-0.1,0-0.1,0c0,0,0,0,0,0c0,0-0.1,0-0.1,0.1c0,0,0,0,0,0
	c0,0,0,0-0.1,0.1c0,0,0,0,0,0c0,0,0,0-0.1,0.1c0,0,0,0,0,0c0,0,0,0.1,0,0.1c0,0,0,0,0,0.1c0,0,0,0.1,0,0.1c0,0,0,0.1,0,0.1
	c0,0,0,0,0,0.1v28c0,0,0,0.1,0,0.1c0,0,0,0,0,0.1c0,0,0,0,0,0.1c0,0,0,0,0,0.1c0,0,0,0,0,0.1c0,0,0,0,0,0.1c0,0,0,0,0,0.1
	c0,0,0,0,0,0.1c0,0,0,0,0.1,0c0,0,0,0,0.1,0c0,0,0,0,0,0c0,0,0.1,0,0.1,0c0,0,9.7,3.7,13,5c0.6,0.2,1.1-0.1,1.1-0.7V38h6
	c0.5,0,1-0.4,1-1v-6.7h-2L30.7,35.8L30.7,35.8z"/>
<path class="st0" d="M39.5,20.8h-5.2v-2c0-0.2-0.1-0.4-0.2-0.5c-0.3-0.3-0.8-0.3-1,0l-4.2,4.2c-0.2,0.2-0.3,0.5-0.3,0.8
	c0,0.3,0.1,0.6,0.3,0.8l4.2,4.2c0.3,0.3,0.8,0.3,1,0c0.1-0.1,0.2-0.3,0.2-0.5l0-2h5.2c0.3,0,0.6-0.3,0.6-0.6v-3.8
	C40,21.1,39.8,20.8,39.5,20.8z"/>
</svg>
