<svg width="20" height="20" viewBox="0 0 20 20" fill="none" xmlns="http://www.w3.org/2000/svg">
<path d="M13.4581 15.822C13.4581 15.8749 13.4149 15.9187 13.361 15.9187H10.558V3.51756C10.558 3.25089 10.3549 2.95733 10.1044 2.86133L5.70426 1.18022H13.3614C13.4149 1.18022 13.4585 1.22356 13.4585 1.27667V4.48733H14.6467V0.570222C14.6463 0.255333 14.3895 0 14.0723 0H2.53622C2.5143 0.00133333 2.50044 0.00333331 2.4859 0.00466665C2.4718 0.00644442 2.45726 0.00733332 2.44362 0.0104444C2.434 0.0126667 2.42461 0.0164444 2.41499 0.0191111C2.39776 0.024 2.38054 0.0288889 2.36421 0.036C2.35728 0.0391112 2.35079 0.0433333 2.3443 0.0466667C2.32641 0.0557778 2.30896 0.0646667 2.29286 0.0757778C2.28525 0.0806667 2.27876 0.0873334 2.27138 0.0931111C2.25729 0.104 2.24297 0.115333 2.23022 0.127556C2.22307 0.135111 2.21703 0.143778 2.21054 0.151778C2.19913 0.165111 2.1875 0.177778 2.17811 0.192444C2.17274 0.200444 2.16894 0.208889 2.16401 0.217333C2.15484 0.233556 2.14545 0.25 2.13851 0.267778C2.1327 0.281556 2.13136 0.290889 2.12867 0.299333C2.12375 0.315556 2.11816 0.331556 2.11525 0.348C2.1119 0.363778 2.11122 0.379333 2.11055 0.394889C2.10966 0.405556 2.10742 0.414889 2.10742 0.425556V16.6731C2.10832 16.6962 2.11078 16.7133 2.11301 16.7302C2.11458 16.7413 2.11503 16.7531 2.11749 16.7638C2.12062 16.7778 2.12576 16.7907 2.13024 16.8044C2.13471 16.8178 2.13762 16.8307 2.14344 16.8429C2.14836 16.8551 2.15574 16.8656 2.162 16.8767C2.16871 16.8893 2.17497 16.9022 2.18303 16.9142C2.19086 16.9251 2.20003 16.9351 2.20897 16.9456C2.2177 16.956 2.22597 16.9676 2.23559 16.9767C2.24476 16.9858 2.25505 16.9924 2.26512 17.0004C2.27675 17.0102 2.28838 17.0204 2.30091 17.0287C2.30963 17.0342 2.31925 17.0387 2.32842 17.0433C2.3443 17.052 2.36019 17.0607 2.37719 17.068C2.38144 17.0698 8.03416 19.23 9.93928 19.9582C10.2808 20.0889 10.5578 19.8998 10.5578 19.5369V17.0984H14.0721C14.3892 17.0984 14.6458 16.8433 14.6458 16.5284V12.6118H13.4576V15.822H13.4581Z" fill="#5DC1B8"/>
<path d="M18.5603 7.12344H15.5115V5.95877C15.5149 5.84677 15.473 5.73366 15.3869 5.6481C15.2196 5.48188 14.9487 5.48188 14.7814 5.6481L12.3148 8.09788C12.1941 8.21833 12.127 8.37899 12.127 8.54899C12.127 8.7201 12.1941 8.88033 12.3148 9.00033L14.7814 11.4505C14.9487 11.6168 15.2196 11.6168 15.3869 11.4505C15.4708 11.3672 15.5129 11.2579 15.5126 11.149L15.5124 9.97566H18.5603C18.7431 9.97566 18.8912 9.82833 18.8912 9.64677V7.45255C18.8918 7.27099 18.7433 7.12344 18.5603 7.12344Z" fill="#5DC1B8"/>
</svg>
