<?xml version="1.0" encoding="utf-8"?>
<!-- Generator: Adobe Illustrator 23.1.0, SVG Export Plug-In . SVG Version: 6.00 Build 0)  -->
<svg version="1.1" id="Layer_1" xmlns="http://www.w3.org/2000/svg" xmlns:xlink="http://www.w3.org/1999/xlink" x="0px" y="0px"
	 viewBox="0 0 60 60" style="enable-background:new 0 0 60 60;" xml:space="preserve">
<style type="text/css">
	.st0{display:none;}
	.st1{display:inline;stroke:#FFFFFF;stroke-miterlimit:10;}
	.st2{fill:#FFFFFF;}
</style>
<g class="st0">
	<circle class="st1" cx="30" cy="30" r="30"/>
</g>
<g>
	<path class="st2" d="M25.1,19.8c-1.6,0-3,1.4-3,3v14.4c0,1.7,1.4,3,3,3h9.8c1.6,0,3-1.3,3-3V22.8c0-1.6-1.4-3-3-3H25.1z M35,36
		c-0.6,0.3-2.5,0.5-4.2,0.5h-1.7c-1.6,0-3.5-0.2-4.2-0.5c0,0,0,0,0-0.6s0-0.6,0-0.6c0.6-0.3,2.5-0.5,4.2-0.5h1.7
		c1.7,0,3.5,0.2,4.2,0.5c0,0,0,0,0,0.6S35,36,35,36z M35,30.6c-0.6,0.3-2.5,0.5-4.2,0.5h-1.7c-1.6,0-3.5-0.2-4.2-0.5c0,0,0,0,0-0.6
		c0-0.6,0-0.6,0-0.6c0.6-0.3,2.5-0.5,4.2-0.5h1.7c1.7,0,3.5,0.2,4.2,0.5c0,0,0,0,0,0.6C35,30.6,35,30.6,35,30.6z M35,25.2
		c-0.6,0.3-2.5,0.5-4.2,0.5h-1.7c-1.6,0-3.5-0.2-4.2-0.5c0,0,0,0,0-0.6c0-0.6,0-0.6,0-0.6c0.6-0.3,2.5-0.5,4.2-0.5h1.7
		c1.7,0,3.5,0.2,4.2,0.5c0,0,0,0,0,0.6C35,25.2,35,25.2,35,25.2z"/>
</g>
</svg>
