<?xml version="1.0" encoding="utf-8"?>
<!-- Generator: Adobe Illustrator 23.1.0, SVG Export Plug-In . SVG Version: 6.00 Build 0)  -->
<svg version="1.1" id="Layer_1" xmlns="http://www.w3.org/2000/svg" xmlns:xlink="http://www.w3.org/1999/xlink" x="0px" y="0px"
	 viewBox="0 0 60 60" style="enable-background:new 0 0 60 60;" xml:space="preserve">
<style type="text/css">
	.st0{display:none;}
	.st1{display:inline;stroke:#FFFFFF;stroke-miterlimit:10;}
	.st2{fill:#FDFDFD;}
</style>
<g class="st0">
	<circle class="st1" cx="30" cy="30" r="30"/>
</g>
<g>
	<g>
		<path class="st2" d="M31.4,38.8c-2.9,0-5.9,0-8.7,0c-4.8,0-8.6-4.2-8.1-9c0.4-4.2,3-7.1,7.4-8.5c1.1-0.4,2.3-0.4,3.4-0.4
			c1.9,0,3.7,0,5.6,0c1.2,0,1.8,0.3,1.8,1.1c0,1-0.8,1.9-1.9,1.9c-1.2,0-2.3,0-3.6,0c-0.4,0-1-0.3-1,0.4c0,0.5,0.7,0.3,1,0.3
			c4.9,0,9.8,0,14.8,0c1.5,0,2.2,0.5,2.2,1.6c0,1.1-0.7,1.5-2.2,1.5c-3,0-6.2,0-9.2,0c-0.3,0-0.4,0-0.7,0c-0.3,0-0.4,0-0.4,0.3
			c0,0.4,0.3,0.4,0.5,0.4c1.2,0,2.5,0,3.7,0s1.9,1.2,1.2,2.3c-0.3,0.5-0.8,0.7-1.4,0.7c-1.1,0-2.3,0-3.4,0c-0.3,0-0.7-0.1-0.7,0.3
			c0,0.5,0.4,0.4,0.7,0.4c0.7,0,1.4,0,2.2,0c1.4,0,1.9,0.5,1.9,1.5s-0.7,1.5-2.1,1.5c-0.7,0-1.4,0-2.2,0c-0.3,0-0.7-0.1-0.7,0.3
			c0,0.4,0.4,0.4,0.7,0.4c0.4,0,1,0,1.4,0c1,0,1.4,0.7,1.4,1.6s-0.5,1.4-1.5,1.4C32.8,38.7,32.1,38.7,31.4,38.8z"/>
	</g>
</g>
</svg>
