<?xml version="1.0" encoding="utf-8"?>
<!-- Generator: Adobe Illustrator 23.1.0, SVG Export Plug-In . SVG Version: 6.00 Build 0)  -->
<svg version="1.1" id="Layer_1" xmlns="http://www.w3.org/2000/svg" xmlns:xlink="http://www.w3.org/1999/xlink" x="0px" y="0px"
	 viewBox="0 0 60 60" style="enable-background:new 0 0 60 60;" xml:space="preserve">
<style type="text/css">
	.st0{display:none;}
	.st1{display:inline;stroke:#FFFFFF;stroke-miterlimit:10;}
	.st2{fill:#FFFFFF;}
</style>
<g class="st0">
	<circle class="st1" cx="30" cy="30" r="30"/>
</g>
<g>
	<g>
		<g>
			<g>
				<path class="st2" d="M29.6,33.7c-0.6,0-1.1-0.8-1-1.7c0,0,0,0,0.2-0.6s0.2-0.6,0.2-0.6c0.6-0.7,1.4-1.7,1.9-2.1s1.3-1.6,1.8-2.4
					c0,0,0,0,0-0.9s-0.2-1.5-0.7-2s-1.1-0.7-2-0.7c-0.8,0-1.5,0.2-2,0.7c-0.5,0.4-0.5,0.4-0.5,0.4c-0.1,0.7-0.8,1.3-1.4,1.3
					s-0.9-1.1-0.6-2.4c0,0,0,0,0.9-0.8c0.9-0.8,2.1-1.2,3.6-1.2c1.6,0,2.8,0.4,3.6,1.2c0.9,0.8,1.3,2,1.3,3.4c0,1.4,0,1.4,0,1.4
					c-1.1,1.5-2.3,3.1-2.7,3.5c-0.4,0.4-0.9,1-1.1,1.5C30.9,32.2,30.2,33.7,29.6,33.7z M28.3,37.6c0-0.4,0.1-0.7,0.3-0.9
					c0.2-0.3,0.6-0.4,1-0.4s0.8,0.1,1,0.4s0.3,0.6,0.3,0.9c0,0.3-0.1,0.7-0.3,0.9c-0.2,0.2-0.6,0.4-1,0.4s-0.8-0.1-1-0.4
					C28.5,38.3,28.3,38,28.3,37.6z"/>
			</g>
		</g>
	</g>
</g>
</svg>
