<?xml version="1.0" encoding="utf-8"?>
<!-- Generator: Adobe Illustrator 23.1.0, SVG Export Plug-In . SVG Version: 6.00 Build 0)  -->
<svg version="1.1" xmlns="http://www.w3.org/2000/svg" xmlns:xlink="http://www.w3.org/1999/xlink" x="0px" y="0px"
	 viewBox="0 0 60 60" style="enable-background:new 0 0 60 60;" xml:space="preserve">
<style type="text/css">
	.st0{display:none;}
	.st1{display:inline;stroke:#FFFFFF;stroke-miterlimit:10;}
	.st2{fill:#F7F7F7;}
	.st3{fill:#FFFFFF;}
</style>
<g id="Layer_1" class="st0">
	<circle class="st1" cx="30" cy="30" r="30"/>
</g>
<g id="Layer_2">
	<g>
		<path class="st2" d="M25.5,47.7c-1.1-0.3-2.2-0.6-3.1-0.9c-0.2-0.1-0.3-0.1-0.5-0.1c-1.9-0.1-3.6-1.5-3.6-4.1
			c0-2.6,1.6-4.3,3.8-4.3c2.2,0,3.6,1.7,3.6,4.1c0,2.1-1,3.4-2.3,3.9v0c0.8,0.2,1.7,0.4,2.4,0.5L25.5,47.7z M24.6,42.4
			c0-1.6-0.8-3.3-2.6-3.3c-1.8,0-2.6,1.6-2.6,3.4c0,1.7,0.9,3.3,2.6,3.3C23.7,45.8,24.6,44.3,24.6,42.4z"/>
		<path class="st2" d="M32,44.9c0,0.6,0,1.1,0,1.6h-0.9L31,45.6h0c-0.3,0.5-0.9,1.1-1.9,1.1c-0.9,0-2-0.5-2-2.5v-3.4h1.1v3.2
			c0,1.1,0.3,1.8,1.3,1.8c0.7,0,1.2-0.5,1.4-1c0.1-0.2,0.1-0.3,0.1-0.5v-3.6H32V44.9z"/>
		<path class="st2" d="M34.9,39.1c0,0.4-0.3,0.6-0.7,0.6c-0.4,0-0.6-0.3-0.6-0.6c0-0.4,0.3-0.7,0.7-0.7
			C34.6,38.4,34.9,38.7,34.9,39.1z M33.7,46.5v-5.8h1.1v5.8H33.7z"/>
		<path class="st2" d="M35.9,45.9l2.6-3.4c0.3-0.3,0.5-0.6,0.8-0.9v0h-3.1v-0.9h4.4l0,0.7l-2.6,3.4c-0.2,0.3-0.5,0.6-0.7,0.9v0h3.4
			v0.8h-4.7V45.9z"/>
	</g>
	<g>
		<g>
			<g>
				<path class="st3" d="M29.6,23.7c-0.6,0-1.1-0.8-1-1.7c0,0,0,0,0.2-0.6c0.2-0.6,0.2-0.6,0.2-0.6c0.6-0.7,1.4-1.7,1.9-2.1
					s1.3-1.6,1.8-2.4c0,0,0,0,0-0.9c0-0.9-0.2-1.5-0.7-2s-1.1-0.7-2-0.7c-0.8,0-1.5,0.2-2,0.7c-0.5,0.4-0.5,0.4-0.5,0.4
					c-0.1,0.7-0.8,1.3-1.4,1.3s-0.9-1.1-0.6-2.4c0,0,0,0,0.9-0.8s2.1-1.2,3.6-1.2c1.6,0,2.8,0.4,3.6,1.2c0.9,0.8,1.3,2,1.3,3.4
					c0,1.4,0,1.4,0,1.4c-1.1,1.5-2.3,3.1-2.7,3.5c-0.4,0.4-0.9,1-1.1,1.5S30.2,23.7,29.6,23.7z M28.3,27.6c0-0.4,0.1-0.7,0.3-0.9
					c0.2-0.3,0.6-0.4,1-0.4c0.4,0,0.8,0.1,1,0.4c0.2,0.3,0.3,0.6,0.3,0.9s-0.1,0.7-0.3,0.9c-0.2,0.2-0.6,0.4-1,0.4
					c-0.4,0-0.8-0.1-1-0.4C28.5,28.3,28.3,28,28.3,27.6z"/>
			</g>
		</g>
	</g>
</g>
</svg>
