<?xml version="1.0" encoding="utf-8"?>
<!-- Generator: Adobe Illustrator 23.1.0, SVG Export Plug-In . SVG Version: 6.00 Build 0)  -->
<svg version="1.1" id="Layer_1" xmlns="http://www.w3.org/2000/svg" xmlns:xlink="http://www.w3.org/1999/xlink" x="0px" y="0px"
	 viewBox="0 0 40 40" style="enable-background:new 0 0 40 40;" xml:space="preserve">
<style type="text/css">
	.st0{fill:#FFFFFF;}
</style>
<g>
	<path class="st0" d="M15.9,21.7c0-2.9,0-5.8,0-8.8c0-0.3,0-0.6,0-0.8c0.1-0.7,0.6-1.1,1.3-1c0.7,0.1,1,0.5,1,1.2c0,1.5,0,3,0,4.4
		c0,0.3,0,0.5,0,0.8c0.1,0,0.2,0,0.3,0c0-0.2,0.1-0.5,0.1-0.7c0-1.8,0-3.6,0-5.4c0-0.9,0.4-1.4,1.2-1.4c0.7,0,1.1,0.5,1.1,1.4
		c0,2,0,4,0,5.9c0,0.3,0,0.5,0,0.8c0.1,0,0.1,0,0.2,0c0-0.7,0-1.4,0-2c0-1.1,0-2.2,0-3.3c0-0.7,0.5-1.1,1.2-1.1
		c0.7,0,1.1,0.5,1.1,1.2c0,1.8,0,3.6,0,5.4c0,0.2,0,0.5,0.1,0.7c0.1,0,0.2,0,0.3,0c0-0.3,0-0.5,0.1-0.8c0-0.9,0-1.9,0-2.8
		c0-0.7,0.4-1,1-1c0.7,0,0.9,0.4,0.9,1c0,2.6,0.1,5.2,0,7.8c-0.1,1.9-0.9,3.6-1.8,5.2c-0.1,0.2-0.6,0.4-0.9,0.4
		c-1.7,0-3.5,0.1-5.2,0c-0.4,0-0.9-0.3-1.1-0.6c-1.3-2-2.6-4-3.9-6c-0.2-0.3-0.4-1.1-0.2-1.2c0.4-0.3,1.1-0.6,1.5-0.5
		C14.6,20.7,15.2,21.3,15.9,21.7z"/>
</g>
</svg>
