<?xml version="1.0" encoding="utf-8"?>
<!-- Generator: Adobe Illustrator 23.1.0, SVG Export Plug-In . SVG Version: 6.00 Build 0)  -->
<svg version="1.1" id="Layer_1" xmlns="http://www.w3.org/2000/svg" xmlns:xlink="http://www.w3.org/1999/xlink" x="0px" y="0px"
	 viewBox="0 0 60 60" style="enable-background:new 0 0 60 60;" xml:space="preserve">
<style type="text/css">
	.st0{display:none;}
	.st1{display:inline;stroke:#FFFFFF;stroke-miterlimit:10;}
	.st2{fill:#FFFFFF;}
</style>
<g class="st0">
	<circle class="st1" cx="30" cy="30" r="30"/>
</g>
<g>
	<path class="st2" d="M17.9,35.5c0.5-0.1,1.3-0.2,2-0.2c1.1,0,1.8,0.2,2.3,0.7c0.4,0.4,0.6,0.9,0.6,1.5c0,1.1-0.7,1.8-1.5,2.1l0,0
		c0.6,0.2,1,0.8,1.2,1.6c0.3,1.1,0.5,1.9,0.6,2.2H22c-0.1-0.2-0.3-0.9-0.5-1.9C21.3,40.4,20.9,40,20,40h-1v3.5h-1v-8H17.9z M19,39.2
		h1c1.1,0,1.8-0.6,1.8-1.5c0-1-0.8-1.5-1.9-1.5c-0.5,0-0.9,0-1,0.1v2.9H19z"/>
	<path class="st2" d="M27.7,43.5l-0.1-0.7l0,0c-0.3,0.5-0.9,0.9-1.8,0.9c-1.2,0-1.8-0.8-1.8-1.7c0-1.4,1.2-2.2,3.5-2.2v-0.1
		c0-0.5-0.1-1.3-1.3-1.3c-0.5,0-1.1,0.2-1.5,0.4l-0.2-0.7c0.5-0.3,1.2-0.5,1.9-0.5c1.8,0,2.2,1.2,2.2,2.4v2.2c0,0.5,0,1,0.1,1.4h-1
		V43.5z M27.6,40.5c-1.2,0-2.5,0.2-2.5,1.3c0,0.7,0.5,1,1,1c0.8,0,1.2-0.5,1.4-1c0-0.1,0.1-0.2,0.1-0.3V40.5z"/>
	<path class="st2" d="M31.5,36c0,0.4-0.3,0.6-0.7,0.6c-0.4,0-0.6-0.3-0.6-0.6c0-0.4,0.3-0.7,0.7-0.7C31.2,35.4,31.5,35.7,31.5,36z
		 M30.3,43.5v-5.8h1.1v5.8H30.3z"/>
	<path class="st2" d="M32.9,42.4c0.3,0.2,0.9,0.4,1.4,0.4c0.8,0,1.1-0.4,1.1-0.9s-0.3-0.8-1.1-1.1c-1-0.4-1.5-0.9-1.5-1.6
		c0-0.9,0.8-1.7,2-1.7c0.6,0,1.1,0.2,1.4,0.4L36,38.7c-0.2-0.1-0.6-0.3-1.2-0.3c-0.6,0-1,0.4-1,0.8c0,0.5,0.3,0.7,1.1,1
		c1,0.4,1.5,0.9,1.5,1.8c0,1-0.8,1.7-2.2,1.7c-0.6,0-1.2-0.2-1.6-0.4L32.9,42.4z"/>
	<path class="st2" d="M38.4,40.8c0,1.4,0.9,2,2,2c0.8,0,1.2-0.1,1.6-0.3l0.2,0.8c-0.4,0.2-1,0.4-1.9,0.4c-1.8,0-2.9-1.2-2.9-2.9
		s1-3.1,2.7-3.1c1.9,0,2.4,1.7,2.4,2.7c0,0.2,0,0.4,0,0.5h-4.1V40.8z M41.5,40c0-0.7-0.3-1.7-1.5-1.7c-1.1,0-1.5,1-1.6,1.7H41.5z"/>
	<path class="st2" d="M18.4,45.4v3.4h3.9v-3.4h1.1v8.1h-1.1v-3.8h-3.9v3.8h-1v-8.1H18.4z"/>
	<path class="st2" d="M28.4,53.5l-0.1-0.7l0,0c-0.3,0.5-0.9,0.9-1.8,0.9c-1.2,0-1.8-0.8-1.8-1.7c0-1.4,1.2-2.2,3.5-2.2v-0.1
		c0-0.5-0.1-1.3-1.3-1.3c-0.5,0-1.1,0.2-1.5,0.4l-0.2-0.7c0.5-0.3,1.2-0.5,1.9-0.5c1.8,0,2.2,1.2,2.2,2.4v2.2c0,0.5,0,1,0.1,1.4h-1
		V53.5z M28.2,50.5c-1.2,0-2.5,0.2-2.5,1.3c0,0.7,0.5,1,1,1c0.8,0,1.2-0.5,1.4-1c0-0.1,0.1-0.2,0.1-0.3V50.5z"/>
	<path class="st2" d="M31,49.2c0-0.6,0-1.1,0-1.6h0.9l0.1,1l0,0c0.3-0.6,1-1.1,1.9-1.1c0.8,0,2.1,0.5,2.1,2.5v3.5h-1.1v-3.3
		c0-0.9-0.3-1.7-1.3-1.7c-0.7,0-1.2,0.5-1.4,1.1c0,0.1-0.1,0.3-0.1,0.5v3.5H31V49.2z"/>
	<path class="st2" d="M42.6,45v7c0,0.5,0,1.1,0,1.5h-0.9v-1l0,0c-0.3,0.6-1,1.1-2,1.1c-1.4,0-2.5-1.2-2.5-3c0-1.9,1.2-3.1,2.6-3.1
		c0.9,0,1.5,0.4,1.8,0.9l0,0V45H42.6z M41.6,50c0-0.1,0-0.3,0-0.4c-0.2-0.7-0.7-1.2-1.5-1.2c-1.1,0-1.7,1-1.7,2.2s0.6,2.1,1.7,2.1
		c0.7,0,1.4-0.5,1.5-1.3c0-0.1,0-0.3,0-0.5V50z"/>
</g>
<g>
	<path class="st2" d="M25.6,20.5c0-3.4,0-6.9,0-10.4c0-0.3,0-0.7,0-1c0.1-0.8,0.7-1.3,1.5-1.2C28,8,28.3,8.5,28.3,9.3
		c0,1.7,0,3.5,0,5.2c0,0.3,0,0.6,0.1,0.9c0.1,0,0.2,0,0.3,0c0-0.3,0.1-0.6,0.1-0.8c0-2.1,0-4.3,0-6.4c0-1.1,0.5-1.7,1.4-1.6
		c0.8,0,1.3,0.6,1.3,1.6c0,2.3,0,4.7,0,7c0,0.3,0,0.6,0,0.9c0.1,0,0.2,0,0.3,0c0-0.8,0-1.6,0-2.4c0-1.3,0-2.6,0-3.9
		c0-0.9,0.5-1.3,1.4-1.3c0.8,0,1.3,0.5,1.3,1.4c0,2.1,0,4.3,0,6.4c0,0.3,0,0.6,0.1,0.9c0.1,0,0.2,0,0.3,0c0-0.3,0.1-0.6,0.1-0.9
		c0-1.1,0-2.2,0-3.4c0-0.8,0.4-1.2,1.2-1.2c0.8,0,1.1,0.5,1.1,1.2c0,3.1,0.1,6.1,0,9.2c-0.1,2.2-1.1,4.3-2.2,6.2
		c-0.2,0.3-0.7,0.5-1.1,0.5c-2,0-4.1,0.1-6.1,0c-0.5,0-1.1-0.4-1.3-0.8c-1.6-2.3-3.1-4.7-4.6-7.2c-0.2-0.4-0.4-1.3-0.3-1.4
		c0.5-0.4,1.2-0.7,1.7-0.6C24.2,19.3,24.9,20,25.6,20.5z"/>
</g>
</svg>
