<?xml version="1.0" encoding="utf-8"?>
<!-- Generator: Adobe Illustrator 23.1.0, SVG Export Plug-In . SVG Version: 6.00 Build 0)  -->
<svg version="1.1" id="Layer_1" xmlns="http://www.w3.org/2000/svg" xmlns:xlink="http://www.w3.org/1999/xlink" x="0px" y="0px"
	 viewBox="0 0 60 60" style="enable-background:new 0 0 60 60;" xml:space="preserve">
<style type="text/css">
	.st0{display:none;}
	.st1{display:inline;stroke:#FFFFFF;stroke-miterlimit:10;}
	.st2{fill:#FFFFFF;}
</style>
<g class="st0">
	<circle class="st1" cx="30" cy="30" r="30"/>
</g>
<g>
	<path class="st2" d="M24.5,21.5c0.5-0.6,0.9-1.3,1.4-1.7c0.2-0.2,0.6-0.3,0.9-0.3c0.2,0.2,0.5,0.6,0.5,0.9c0,2.1,0,4.3,0,6.3
		c0,0.6-0.3,0.9-0.9,0.9c-2.1,0-4.3,0-6.3,0c-0.3,0-0.6-0.3-0.8-0.5c-0.2-0.2,0.2-0.6,0.3-0.8c0.5-0.6,1.1-1.1,1.9-1.7
		c-1.6-1.6-3.2-3-4.6-4.4c-0.8-0.6-0.8-1.1,0-1.9c2.7-2.5,1.9-2.5,4.4,0c0.9,0.9,2.1,1.9,3,2.8c0,0,0.2,0,0.2,0.2
		C24.3,21.3,24.5,21.3,24.5,21.5z"/>
	<path class="st2" d="M21.3,35.8c-0.9-0.6-1.6-1.1-2.1-1.6c-0.2-0.2-0.3-0.6-0.3-0.9c0-0.2,0.5-0.3,0.8-0.3c2.2,0,4.3,0,6.5,0
		c0.3,0,0.9,0.6,0.9,0.9c0.2,2.2,0,4.3,0,6.5c0,0.3-0.2,0.8-0.5,0.8c-0.3,0-0.6-0.2-0.9-0.3c-0.6-0.5-1.1-1.1-1.7-1.7
		c-1.6,1.6-3.2,3.2-4.6,4.7c-0.6,0.6-1.1,0.6-1.7,0c-2.4-2.2-2.4-2.2,0-4.6C18.8,37.9,19.9,37.1,21.3,35.8z"/>
	<path class="st2" d="M38.7,36c1.7,1.6,3.2,3.2,4.7,4.6c0.8,0.6,0.6,1.1,0,1.9c-2.2,2.2-2.2,2.2-4.4,0c-0.9-0.9-2.1-1.9-3-3
		c0,0-0.2,0-0.5-0.3c-0.5,0.6-0.8,1.3-1.4,1.7c-0.3,0.3-0.6,0.5-0.9,0.3c-0.2,0-0.5-0.6-0.5-0.9c0-2.1,0-4.1,0-6.3
		c0-0.6,0.3-0.9,0.9-0.9c2.1,0,4.3,0,6.3,0c0.3,0,0.6,0.3,0.8,0.5c0.2,0.2-0.2,0.6-0.3,0.8C39.9,34.9,39.3,35.3,38.7,36z"/>
	<path class="st2" d="M35.7,21.5c1.6-1.7,3-3.2,4.4-4.6c0.6-0.8,1.3-0.8,2.1,0c0.5,0.5,0.9,0.9,1.4,1.4c0.6,0.6,0.6,1.1,0,1.6
		c-1.6,1.4-3,2.8-4.7,4.6c0.8,0.6,1.4,1.1,1.9,1.6c0.2,0.2,0.3,0.6,0.3,0.9c0,0.2-0.5,0.3-0.8,0.3c-2.1,0-4.3,0-6.3,0
		c-0.8,0-1.1-0.3-1.1-1.1c0-2.1,0-4.1,0-6.3c0-0.3,0.2-0.8,0.5-0.8c0.3-0.2,0.6,0.2,0.9,0.3C34.4,20.2,34.9,20.8,35.7,21.5z"/>
</g>
</svg>
