<?xml version="1.0" encoding="utf-8"?>
<!-- Generator: Adobe Illustrator 23.1.0, SVG Export Plug-In . SVG Version: 6.00 Build 0)  -->
<svg version="1.1" id="Layer_1" xmlns="http://www.w3.org/2000/svg" xmlns:xlink="http://www.w3.org/1999/xlink" x="0px" y="0px"
	 viewBox="0 0 60 60" style="enable-background:new 0 0 60 60;" xml:space="preserve">
<style type="text/css">
	.st0{display:none;}
	.st1{display:inline;stroke:#FFFFFF;stroke-miterlimit:10;}
	.st2{fill:#FFFFFF;}
</style>
<g class="st0">
	<circle class="st1" cx="30" cy="30" r="30"/>
</g>
<g>
	<path class="st2" d="M16.9,19.9c0-0.5,0.1-0.9,0.1-1.4c1,0,1.9,0,2.8,0c0.1,0.4,0,1,0.2,1.2c0.5,0.5,1.1,0.3,1.6-0.3
		c1-1.1,2-2.2,3.1-3.2c0.4-0.4,1-0.6,1.6-0.6c2.5-0.1,5.1-0.1,7.6,0c0.6,0,1.2,0.3,1.6,0.6c1,0.9,2,1.9,2.9,2.9
		c0.5,0.6,0.9,0.8,1.7,0.8c1.5,0,3,0,4.4,0c1.8,0,2.9,0.9,2.9,2.7c0.1,5.3,0.1,10.6,0,15.9c0,2-1.2,3-3.1,3c-9.4,0-18.8,0-28.2,0
		c-2.2,0-3.4-1.2-3.4-3.4c0-4.9,0.1-9.8,0-14.7c0-2.3,1.5-3.7,3.4-3.5C16.3,20,16.5,19.9,16.9,19.9z M33.5,28.5
		c1.3,1.7,2.4,3.2,3.6,4.8c1.2-1.6,2.3-3.1,3.5-4.8c-1,0-1.8,0-2.6,0c-1.5-7.9-9.5-8.8-13.5-5c0.4,0.3,0.7,0.7,1.1,1
		c2.3-1.8,4.7-2.2,7.3-0.9c1.9,1,3,2.6,3.4,4.9C35.4,28.5,34.6,28.5,33.5,28.5z M22,30.3c1.7,7.6,9.8,8.7,13.4,4.8
		c-0.3-0.3-0.6-0.7-1-1c-2.3,1.8-4.7,2.3-7.2,1c-1.9-0.9-3-2.5-3.5-4.8c0.9,0,1.8,0,2.8,0c-1.3-1.6-2.4-3.1-3.6-4.6
		c-1.2,1.6-2.3,3-3.5,4.7C20.4,30.3,21.2,30.3,22,30.3z"/>
</g>
</svg>
