<?xml version="1.0" encoding="utf-8"?>
<!-- Generator: Adobe Illustrator 23.1.0, SVG Export Plug-In . SVG Version: 6.00 Build 0)  -->
<svg version="1.1" id="Layer_1" xmlns="http://www.w3.org/2000/svg" xmlns:xlink="http://www.w3.org/1999/xlink" x="0px" y="0px"
	 viewBox="0 0 32 32" style="enable-background:new 0 0 32 32;" xml:space="preserve">
<style type="text/css">
	.st0{fill:#FFFFFF;}
	.st1{fill:none;stroke:#FFFFFF;stroke-linecap:round;stroke-miterlimit:10;}
</style>
<g>
	<path class="st0" d="M-15.9,9.1L-15.9,9.1h-8.9l0,0l-1.1,1.3l0,0h11.1l0,0L-15.9,9.1z"/>
</g>
<g>
	<path class="st0" d="M-18.7,9.3L-18.7,9.3h-3.6l0,0V8.1l0,0h3.6l0,0V9.3z"/>
</g>
<g>
	<path class="st0" d="M-25.8,11.4L-25.8,11.4l1.9,10.7l0,0h7.2l0,0l1.9-10.7l0,0C-14.8,11.4-25.8,11.4-25.8,11.4z M-22.4,20.9
		c-0.3,0-0.6-0.5-0.6-0.5l0,0l-0.8-7.2l0,0c0,0,0.2-0.6,0.5-0.6c0.3,0,0.6,0.5,0.6,0.5l0,0l0.8,7.2l0,0
		C-21.9,20.3-22.1,20.9-22.4,20.9z M-19.7,20.4L-19.7,20.4c0,0-0.3,0.6-0.6,0.6c-0.3,0-0.6-0.6-0.6-0.6l0,0v-7.2l0,0
		c0,0,0.3-0.6,0.6-0.6s0.6,0.6,0.6,0.6l0,0V20.4z M-17.5,20.4L-17.5,20.4c0,0-0.3,0.6-0.6,0.5c-0.3,0-0.5-0.6-0.5-0.6l0,0l0.7-7.2
		l0,0c0,0,0.3-0.6,0.6-0.5c0.3,0,0.5,0.6,0.5,0.6l0,0L-17.5,20.4z"/>
</g>
<line class="st1" x1="15.5" y1="23.1" x2="15.5" y2="7.8"/>
<polyline class="st1" points="20.9,18.5 15.5,23.1 9.9,18.5 "/>
</svg>
