<?xml version="1.0" encoding="utf-8"?>
<!-- Generator: Adobe Illustrator 23.1.0, SVG Export Plug-In . SVG Version: 6.00 Build 0)  -->
<svg version="1.1" id="Layer_1" xmlns="http://www.w3.org/2000/svg" xmlns:xlink="http://www.w3.org/1999/xlink" x="0px" y="0px"
	 viewBox="0 0 60 60" style="enable-background:new 0 0 60 60;" xml:space="preserve">
<style type="text/css">
	.st0{display:none;}
	.st1{display:inline;stroke:#FFFFFF;stroke-miterlimit:10;}
	.st2{fill:#FFFFFF;}
</style>
<g class="st0">
	<circle class="st1" cx="30" cy="30" r="30"/>
</g>
<g>
	<g>
		<path class="st2" d="M39.4,36.5c0,0.6-1.1,1-2.5,1H23.2c-1.3,0-2.5-0.5-2.5-1c0-0.6,1.2-1,2.5-1H37C38.3,35.4,39.4,35.9,39.4,36.5
			z"/>
	</g>
	<path class="st2" d="M20.7,24.2v8.7c0,1.6,1.3,1.3,1.3,1.3h16.2c1.5,0,1.3-1.2,1.3-1.2v-9c0-1.2-1.2-1.2-1.2-1.2H21.9
		C20.6,22.9,20.7,24.2,20.7,24.2z M31.1,31v-1.9c-5.1-0.4-7.5,2.6-7.5,2.6c1.9-4,5.8-4.6,7.5-4.7v-1.5l4.8,2.7L31.1,31z"/>
</g>
</svg>
