<?xml version="1.0" encoding="utf-8"?>
<!-- Generator: Adobe Illustrator 23.1.0, SVG Export Plug-In . SVG Version: 6.00 Build 0)  -->
<svg version="1.1" id="Layer_1" xmlns="http://www.w3.org/2000/svg" xmlns:xlink="http://www.w3.org/1999/xlink" x="0px" y="0px"
	 viewBox="0 0 60 60" style="enable-background:new 0 0 60 60;" xml:space="preserve">
<style type="text/css">
	.st0{display:none;}
	.st1{display:inline;stroke:#FFFFFF;stroke-miterlimit:10;}
	.st2{fill:#F7F7F7;}
	.st3{fill:#FFFFFF;}
</style>
<g class="st0">
	<circle class="st1" cx="30" cy="30" r="30"/>
</g>
<g>
	<g>
		<path class="st2" d="M10.7,45.2c0.5,0.3,1.2,0.5,1.9,0.5c1.1,0,1.7-0.6,1.7-1.4c0-0.8-0.4-1.2-1.5-1.6c-1.3-0.5-2.1-1.2-2.1-2.3
			c0-1.3,1-2.2,2.6-2.2c0.8,0,1.4,0.2,1.8,0.4l-0.3,0.9c-0.3-0.1-0.8-0.4-1.5-0.4c-1.1,0-1.5,0.7-1.5,1.2c0,0.8,0.5,1.1,1.6,1.6
			c1.4,0.5,2.1,1.2,2.1,2.4s-0.9,2.3-2.8,2.3c-0.8,0-1.6-0.2-2.1-0.5L10.7,45.2z"/>
		<path class="st2" d="M17.4,43.8c0,1.4,0.9,2,2,2c0.8,0,1.2-0.1,1.6-0.3l0.2,0.8c-0.4,0.2-1,0.4-1.9,0.4c-1.8,0-2.9-1.2-2.9-2.9
			s1-3.1,2.7-3.1c1.9,0,2.4,1.7,2.4,2.7c0,0.2,0,0.4,0,0.5h-4.1V43.8z M20.5,43c0-0.7-0.3-1.7-1.5-1.7c-1.1,0-1.5,1-1.6,1.7H20.5z"
			/>
		<path class="st2" d="M24.1,39v1.7h1.5v0.8h-1.5v3.1c0,0.7,0.2,1.1,0.8,1.1c0.3,0,0.5,0,0.6-0.1v0.8c-0.2,0.1-0.5,0.1-0.9,0.1
			c-0.5,0-0.9-0.2-1.1-0.4c-0.3-0.3-0.4-0.8-0.4-1.5v-3.2h-0.9v-0.8H23v-1.4L24.1,39z"/>
		<path class="st2" d="M28,39v1.7h1.5v0.8H28v3.1c0,0.7,0.2,1.1,0.8,1.1c0.3,0,0.5,0,0.6-0.1v0.8c-0.2,0.1-0.5,0.1-0.9,0.1
			c-0.5,0-0.9-0.2-1.1-0.4c-0.3-0.3-0.4-0.8-0.4-1.5v-3.2h-0.9v-0.8H27v-1.4L28,39z"/>
		<path class="st2" d="M31.9,39.1c0,0.4-0.3,0.6-0.7,0.6c-0.4,0-0.6-0.3-0.6-0.6c0-0.4,0.3-0.7,0.7-0.7
			C31.7,38.4,31.9,38.7,31.9,39.1z M30.7,46.5v-5.8h1.1v5.8H30.7z"/>
		<path class="st2" d="M33.5,42.3c0-0.6,0-1.1,0-1.6h0.9l0.1,1l0,0c0.3-0.6,1-1.1,1.9-1.1c0.8,0,2.1,0.5,2.1,2.5v3.5h-1.1v-3.3
			c0-0.9-0.3-1.7-1.3-1.7c-0.7,0-1.2,0.5-1.4,1.1c0,0.1-0.1,0.3-0.1,0.5v3.5h-1.1C33.5,46.7,33.5,42.3,33.5,42.3z"/>
		<path class="st2" d="M45.2,40.7c0,0.4,0,0.9,0,1.6v3.4c0,1.3-0.3,2.1-0.8,2.7c-0.6,0.5-1.4,0.7-2.1,0.7c-0.7,0-1.5-0.2-1.9-0.5
			l0.3-0.8c0.4,0.2,1,0.5,1.7,0.5c1.1,0,1.9-0.6,1.9-2v-0.6l0,0c-0.3,0.5-0.9,1-1.8,1c-1.4,0-2.5-1.2-2.5-2.8c0-2,1.3-3.1,2.6-3.1
			c1,0,1.6,0.5,1.8,1l0,0v-0.9h0.8V40.7z M44.1,43c0-0.2,0-0.3-0.1-0.5c-0.2-0.6-0.7-1.1-1.5-1.1c-1,0-1.7,0.9-1.7,2.2
			c0,1.1,0.6,2.1,1.7,2.1c0.6,0,1.2-0.4,1.5-1.1c0.1-0.2,0.1-0.4,0.1-0.6V43z"/>
		<path class="st2" d="M46.8,45.4c0.3,0.2,0.9,0.4,1.4,0.4c0.8,0,1.1-0.4,1.1-0.9s-0.3-0.8-1.1-1.1c-1-0.4-1.5-0.9-1.5-1.6
			c0-0.9,0.8-1.7,2-1.7c0.6,0,1.1,0.2,1.4,0.4l-0.3,0.8c-0.2-0.1-0.6-0.3-1.2-0.3c-0.6,0-1,0.4-1,0.8c0,0.5,0.3,0.7,1.1,1
			c1,0.4,1.5,0.9,1.5,1.8c0,1-0.8,1.7-2.2,1.7c-0.6,0-1.2-0.2-1.6-0.4L46.8,45.4z"/>
	</g>
	<g>
		<path class="st3" d="M29.3,28.6c-1-0.3-1.7,0.2-2.3,0.8c-0.5,0.5-1.1,0.5-1.8,0.3c-0.4-0.2-0.8-0.4-1.2-0.7
			c-0.9-0.6-1.5-1.3-1-2.5c0.4-1-0.1-1.8-0.7-2.6c-0.3-0.4-0.9-0.5-1.3-0.7c-0.7-0.2-1.1-0.7-1.1-1.4c0-0.5-0.1-0.9-0.1-1.4
			c0.1-1.1,0.5-1.8,1.7-2.1c1.4-0.4,2.1-1.5,1.7-2.9c-0.3-1.2,0.2-2,1.2-2.5c0.5-0.3,1-0.5,1.4-0.6c0.5-0.2,1-0.1,1.4,0.3
			c0.2,0.1,0.4,0.3,0.5,0.4c0.7,0.8,1.7,0.7,2.5,0.6c0.5-0.1,0.9-0.6,1.3-1s0.9-0.5,1.5-0.3c0.3,0.1,0.6,0.2,0.9,0.4
			c1.6,0.8,1.9,1.3,1.6,3.1C35.3,16.9,36,18,37,18.4c1.8,0.6,2,1,2,2.9c0,1.1-0.3,2-1.5,2.2c-1.1,0.2-1.5,1.1-1.8,2
			c-0.1,0.5,0,1.1,0.2,1.6c0.2,0.7,0,1.2-0.5,1.5c-0.6,0.5-1.3,0.9-2,1.2c-0.5,0.3-1,0.2-1.5-0.2C31.1,28.9,30.4,28.3,29.3,28.6z
			 M29.2,25c2.1,0,3.9-1.7,3.9-3.9c0-2.1-1.7-3.8-3.9-3.8c-2.1,0-3.9,1.7-3.9,3.8C25.4,23.2,27.1,25,29.2,25z"/>
	</g>
</g>
</svg>
