<?xml version="1.0" encoding="utf-8"?>
<!-- Generator: Adobe Illustrator 23.1.0, SVG Export Plug-In . SVG Version: 6.00 Build 0)  -->
<svg version="1.1" id="Layer_1" xmlns="http://www.w3.org/2000/svg" xmlns:xlink="http://www.w3.org/1999/xlink" x="0px" y="0px"
	 viewBox="0 0 60 60" style="enable-background:new 0 0 60 60;" xml:space="preserve">
<style type="text/css">
	.st0{display:none;}
	.st1{display:inline;stroke:#FFFFFF;stroke-miterlimit:10;}
	.st2{fill:#FFFFFF;}
</style>
<g class="st0">
	<circle class="st1" cx="30" cy="30" r="30"/>
</g>
<g>
	<g>
		<path class="st2" d="M29.3,37.6c-1-0.3-1.7,0.2-2.3,0.8c-0.5,0.5-1.1,0.5-1.8,0.3c-0.4-0.2-0.8-0.4-1.2-0.7
			c-0.9-0.6-1.5-1.3-1-2.5c0.4-1-0.1-1.8-0.7-2.6c-0.3-0.4-0.9-0.5-1.3-0.7c-0.7-0.2-1.1-0.7-1.1-1.4c0-0.5-0.1-0.9-0.1-1.4
			c0.1-1.1,0.5-1.8,1.7-2.1c1.4-0.4,2.1-1.5,1.7-2.9c-0.3-1.2,0.2-2,1.2-2.5c0.5-0.3,1-0.5,1.4-0.6c0.5-0.2,1-0.1,1.4,0.3
			c0.2,0.1,0.4,0.3,0.5,0.4c0.7,0.8,1.7,0.7,2.5,0.6c0.5-0.1,0.9-0.6,1.3-1c0.4-0.4,0.9-0.5,1.5-0.3c0.3,0.1,0.6,0.2,0.9,0.4
			c1.6,0.8,1.9,1.3,1.6,3.1C35.3,25.9,36,27,37,27.4c1.8,0.6,2,1,2,2.9c0,1.1-0.3,2-1.5,2.2c-1.1,0.2-1.5,1.1-1.8,2
			c-0.1,0.5,0,1.1,0.2,1.6c0.2,0.7,0,1.2-0.5,1.5c-0.6,0.5-1.3,0.9-2,1.2c-0.5,0.3-1,0.2-1.5-0.2C31.1,37.9,30.4,37.3,29.3,37.6z
			 M29.2,34c2.1,0,3.9-1.7,3.9-3.9c0-2.1-1.7-3.8-3.9-3.8c-2.1,0-3.9,1.7-3.9,3.8C25.4,32.2,27.1,34,29.2,34z"/>
	</g>
</g>
</svg>
