<?xml version="1.0" encoding="utf-8"?>
<!-- Generator: Adobe Illustrator 23.1.0, SVG Export Plug-In . SVG Version: 6.00 Build 0)  -->
<svg version="1.1" id="Layer_1" xmlns="http://www.w3.org/2000/svg" xmlns:xlink="http://www.w3.org/1999/xlink" x="0px" y="0px"
	 viewBox="0 0 80 80" style="enable-background:new 0 0 80 80;" xml:space="preserve">
<style type="text/css">
	.st0{fill:#FFFFFF;}
</style>
<g>
	<path class="st0" d="M32.4,34.5c0.8,0,1.3,0,1.9,0c5.3,0,10.5,0,15.8,0c4.8,0,8.1,3.3,8.2,8c0.1,4.4,0.1,8.9,0,13.3
		c-0.1,4.7-3.4,8-8.2,8c-6.5,0-13.1,0-19.6,0c-4.7,0-8-3.2-8-7.9c-0.1-4.5-0.1-9,0-13.5c0.1-3.3,1.7-5.7,4.7-7.3c0.5-0.2,1-1,1-1.6
		c0.1-2.9,0-5.8,0.2-8.6c0.4-5.9,5.7-10.4,11.8-10.4c6,0.1,11.1,4.6,11.6,10.4c0.2,1.8-0.4,2.7-1.8,2.8c-1.4,0.1-2.1-0.7-2.3-2.4
		c-0.4-4.1-3.9-7.1-8-6.9c-4.3,0.3-7.3,3.4-7.3,7.7C32.4,28.9,32.4,31.6,32.4,34.5z M44.5,46c0-1.9-1.1-3.3-2.6-3.9
		c-1.6-0.6-3.5-0.2-4.5,1.1c-1.1,1.3-1.5,2.9-0.6,4.3c0.9,1.4,0.9,2.8,0.9,4.2c0,1-0.1,2.1,0.1,3.1c0.2,1.3,1.1,2.2,2.5,2.2
		c1.5,0.1,2.4-0.7,2.8-2.1c0.2-0.6,0.1-1.3,0.1-2c0.1-2-0.4-4.1,1.1-5.8C44.5,46.9,44.5,46.2,44.5,46z"/>
</g>
</svg>
