<?xml version="1.0" encoding="utf-8"?>
<!-- Generator: Adobe Illustrator 23.1.0, SVG Export Plug-In . SVG Version: 6.00 Build 0)  -->
<svg version="1.1" id="Layer_1" xmlns="http://www.w3.org/2000/svg" xmlns:xlink="http://www.w3.org/1999/xlink" x="0px" y="0px"
	 viewBox="0 0 50 50" style="enable-background:new 0 0 50 50;" xml:space="preserve">
<style type="text/css">
	.st0{fill:none;stroke:#FFFFFF;stroke-miterlimit:10;}
</style>
<g>
	<path class="st0" d="M21.8,23c-0.1,2.8-0.2,5.1-0.2,7.4c0.1,5.5-1,4.6,4.8,4.8c1.5,0.1,2-0.4,2-2c-0.1-3.2-0.1-6.4-0.2-10
		c1.5,0.1,2.7,0.2,3.8,0.2c0.4,0,1.2-0.3,1.2-0.6c0.1-0.6-0.1-1.2-0.4-1.6c-2.2-2.2-4.5-4.7-6.8-6.8c-0.3-0.3-1.8-0.4-2.1-0.1
		c-2.5,2.2-4.8,4.6-6.9,6.9c-0.3,0.3-0.6,1-0.4,1.3c0.2,0.4,0.9,0.7,1.3,0.7C19.1,23.4,20.2,23.2,21.8,23z"/>
	<path class="st0" d="M21.8,23c-1.6,0.2-2.7,0.4-3.8,0.4c-0.4,0-1.1-0.2-1.3-0.7c-0.2-0.2,0.1-1,0.4-1.3c2.3-2.3,4.6-4.8,6.9-6.9
		c0.3-0.3,1.7-0.3,2.1,0.1c2.3,2.1,4.7,4.5,6.8,6.8c0.3,0.3,0.4,1.1,0.4,1.6c-0.1,0.3-0.8,0.6-1.2,0.6c-1.1,0-2.3-0.1-3.8-0.2
		c0,3.6,0.1,6.8,0.2,10c0,1.6-0.6,2.1-2,2c-5.8-0.2-4.8,0.8-4.8-4.8C21.5,28.2,21.7,26,21.8,23z"/>
</g>
</svg>
