<?xml version="1.0" encoding="utf-8"?>
<!-- Generator: Adobe Illustrator 23.1.0, SVG Export Plug-In . SVG Version: 6.00 Build 0)  -->
<svg version="1.1" id="Layer_1" xmlns="http://www.w3.org/2000/svg" xmlns:xlink="http://www.w3.org/1999/xlink" x="0px" y="0px"
	 viewBox="0 0 60 60" style="enable-background:new 0 0 60 60;" xml:space="preserve">
<style type="text/css">
	.st0{display:none;}
	.st1{display:inline;stroke:#FFFFFF;stroke-miterlimit:10;}
	.st2{fill:#F7F7F7;}
	.st3{fill:#E42527;}
	.st4{fill:none;stroke:#E42527;stroke-width:3;stroke-linecap:round;stroke-miterlimit:10;}
</style>
<g class="st0">
	<circle class="st1" cx="30" cy="30" r="30"/>
</g>
<g>
	<g>
		<path class="st2" d="M19,46.4l-2.6-8.1h1.1l1.3,4c0.3,1.1,0.6,2.1,0.9,3l0,0c0.2-0.9,0.6-2,0.9-3l1.4-4h1l-2.9,8.1H19z"/>
		<path class="st2" d="M24.8,38.9c0,0.4-0.3,0.6-0.7,0.6c-0.4,0-0.6-0.3-0.6-0.6c0-0.4,0.3-0.7,0.7-0.7
			C24.6,38.3,24.8,38.6,24.8,38.9z M23.7,46.4v-5.8h1.1v5.8H23.7z"/>
		<path class="st2" d="M31.5,37.9v7c0,0.5,0,1.1,0,1.5h-0.9v-1l0,0c-0.3,0.6-1,1.1-2,1.1c-1.4,0-2.5-1.2-2.5-3
			c0-1.9,1.2-3.1,2.6-3.1c0.9,0,1.5,0.4,1.8,0.9l0,0v-3.5L31.5,37.9L31.5,37.9z M30.4,42.9c0-0.1,0-0.3,0-0.4
			c-0.2-0.7-0.7-1.2-1.5-1.2c-1.1,0-1.7,1-1.7,2.2s0.6,2.1,1.7,2.1c0.7,0,1.4-0.5,1.5-1.3c0-0.1,0-0.3,0-0.5V42.9z"/>
		<path class="st2" d="M33.8,43.7c0,1.4,0.9,2,2,2c0.8,0,1.2-0.1,1.6-0.3l0.2,0.8c-0.4,0.2-1,0.4-1.9,0.4c-1.8,0-2.9-1.2-2.9-2.9
			s1-3.1,2.7-3.1c1.9,0,2.4,1.7,2.4,2.7c0,0.2,0,0.4,0,0.5h-4.1V43.7z M36.9,42.9c0-0.7-0.3-1.7-1.5-1.7c-1.1,0-1.5,1-1.6,1.7H36.9z
			"/>
		<path class="st2" d="M44.5,43.4c0,2.1-1.5,3.1-2.9,3.1c-1.6,0-2.8-1.2-2.8-3c0-1.9,1.3-3.1,2.9-3.1C43.4,40.4,44.5,41.6,44.5,43.4
			z M39.9,43.5c0,1.3,0.7,2.2,1.8,2.2c1,0,1.8-0.9,1.8-2.3c0-1-0.5-2.2-1.7-2.2C40.4,41.2,39.9,42.4,39.9,43.5z"/>
	</g>
</g>
<g>
	<polygon class="st3" points="35.9,20.9 43.2,25.3 43.3,16.5 	"/>
	<path class="st3" d="M22.6,15.1c-1.6,0-2.9,1.3-2.9,2.9v5.8c0,0.8,0.4,1.6,1,2.1l10.8-10.8H22.6z"/>
	<path class="st3" d="M27.3,26.6h4.6c1.5,0,2.9-1.3,2.9-2.9v-4.6L27.3,26.6z"/>
</g>
<line class="st4" x1="21.6" y1="28.7" x2="35.9" y2="14"/>
</svg>
