<?xml version="1.0" encoding="utf-8"?>
<!-- Generator: Adobe Illustrator 23.1.0, SVG Export Plug-In . SVG Version: 6.00 Build 0)  -->
<svg version="1.1" xmlns="http://www.w3.org/2000/svg" xmlns:xlink="http://www.w3.org/1999/xlink" x="0px" y="0px"
	 viewBox="0 0 60 60" style="enable-background:new 0 0 60 60;" xml:space="preserve">
<style type="text/css">
	.st0{display:none;}
	.st1{display:inline;stroke:#FFFFFF;stroke-miterlimit:10;}
	.st2{fill:#F7F7F7;}
	.st3{fill:#FFFFFF;}
</style>
<g id="Layer_1" class="st0">
	<circle class="st1" cx="30" cy="30" r="30"/>
</g>
<g id="Layer_2">
	<g>
		<path class="st2" d="M19,46.4l-2.6-8.1h1.1l1.3,4c0.3,1.1,0.6,2.1,0.9,3h0c0.2-0.9,0.6-2,0.9-3l1.4-4H23l-2.9,8.1H19z"/>
		<path class="st2" d="M24.8,38.9c0,0.4-0.3,0.6-0.7,0.6c-0.4,0-0.6-0.3-0.6-0.6c0-0.4,0.3-0.7,0.7-0.7
			C24.6,38.3,24.8,38.6,24.8,38.9z M23.7,46.4v-5.8h1.1v5.8H23.7z"/>
		<path class="st2" d="M31.5,37.9v7c0,0.5,0,1.1,0,1.5h-0.9l0-1h0c-0.3,0.6-1,1.1-2,1.1c-1.4,0-2.5-1.2-2.5-3c0-1.9,1.2-3.1,2.6-3.1
			c0.9,0,1.5,0.4,1.8,0.9h0v-3.5H31.5z M30.4,42.9c0-0.1,0-0.3,0-0.4c-0.2-0.7-0.7-1.2-1.5-1.2c-1.1,0-1.7,1-1.7,2.2
			c0,1.2,0.6,2.1,1.7,2.1c0.7,0,1.4-0.5,1.5-1.3c0-0.1,0-0.3,0-0.5V42.9z"/>
		<path class="st2" d="M33.8,43.7c0,1.4,0.9,2,2,2c0.8,0,1.2-0.1,1.6-0.3l0.2,0.8c-0.4,0.2-1,0.4-1.9,0.4c-1.8,0-2.9-1.2-2.9-2.9
			s1-3.1,2.7-3.1c1.9,0,2.4,1.7,2.4,2.7c0,0.2,0,0.4,0,0.5H33.8z M36.9,42.9c0-0.7-0.3-1.7-1.5-1.7c-1.1,0-1.5,1-1.6,1.7H36.9z"/>
		<path class="st2" d="M44.5,43.4c0,2.1-1.5,3.1-2.9,3.1c-1.6,0-2.8-1.2-2.8-3c0-1.9,1.3-3.1,2.9-3.1C43.4,40.4,44.5,41.6,44.5,43.4
			z M39.9,43.5c0,1.3,0.7,2.2,1.8,2.2c1,0,1.8-0.9,1.8-2.3c0-1-0.5-2.2-1.7-2.2C40.4,41.2,39.9,42.4,39.9,43.5z"/>
	</g>
	<polygon class="st3" points="35.2,22.1 42.9,17.5 42.8,26.7 	"/>
	<g>
		<path class="st3" d="M34,25c0,1.6-1.4,3-3,3h-9.7c-1.7,0-3-1.4-3-3v-6c0-1.6,1.3-3,3-3H31c1.6,0,3,1.4,3,3V25z"/>
	</g>
</g>
</svg>
