<?xml version="1.0" encoding="utf-8"?>
<!-- Generator: Adobe Illustrator 23.1.0, SVG Export Plug-In . SVG Version: 6.00 Build 0)  -->
<svg version="1.1" id="Layer_1" xmlns="http://www.w3.org/2000/svg" xmlns:xlink="http://www.w3.org/1999/xlink" x="0px" y="0px"
	 viewBox="0 0 40 40" style="enable-background:new 0 0 40 40;" xml:space="preserve">
<style type="text/css">
	.st0{fill:#86D0CA;}
	.st1{fill:#E62628;}
</style>
<g>
	<g>
		<polygon class="st0" points="24.9,20.1 31.6,16.1 31.5,24.1 		"/>
		<g>
			<path class="st0" d="M23.8,22.6c0,1.4-1.2,2.6-2.6,2.6h-8.5c-1.5,0-2.6-1.2-2.6-2.6v-5.2c0-1.4,1.1-2.6,2.6-2.6h8.5
				c1.4,0,2.6,1.2,2.6,2.6V22.6z"/>
		</g>
	</g>
</g>
<g>
	<path class="st1" d="M63.8,8.8c-0.4-2.8-2.8-5-5.8-5c-3.2,0-5.8,2.5-5.8,5.8v5.9L63.8,8.8z"/>
	<path class="st1" d="M52.4,22.7c0.6,2.6,2.9,4.5,5.7,4.5c3.3,0,5.8-2.5,5.8-5.8V16L52.4,22.7z"/>
</g>
</svg>
