<svg width="172" height="112" viewBox="0 0 172 112" fill="none" xmlns="http://www.w3.org/2000/svg">

<style>
.draw {
  stroke-dasharray: 400;
  stroke-dashoffset: 800; 
  animation: drawThis 1s linear infinite;
}

@keyframes drawThis {
0% {
    stroke-dashoffset: 0;
  }
100% {
    stroke-dashoffset: 800;
  }
}

</style>

<path class="draw" d="M79.4727 1.02002C79.3084 18.6561 74.8032 31.6134 68.6318 41.8521C65.2187 46.7974 56.427 58.486 48.4307 65.897L48.4189 65.9067L48.4082 65.9175C44.0005 70.2591 39.2284 75.8746 37.0615 78.8901L36.6631 79.4575C35.4542 81.225 33.5141 83.9592 31.1465 87.2534L1.36328 63.0298C7.09021 55.1883 17.4007 43.1461 21.7412 38.8726H21.7422C27.7932 32.9112 32.7645 28.0176 36.1924 22.2124C39.5267 16.5656 41.3773 10.1054 41.5029 1.02002H79.4727Z" stroke="#F8663E" stroke-width="3"/>
<path class="draw" d="M89.0073 110.68C89.1716 93.0439 93.6768 80.0867 99.8481 69.848C103.261 64.9027 112.053 53.2141 120.049 45.8031L120.061 45.7933L120.072 45.7826C124.479 41.4409 129.252 35.8255 131.418 32.8099L131.817 32.2426C133.026 30.4751 134.966 27.7409 137.333 24.4467L167.117 48.6703C161.39 56.5118 151.079 68.554 146.739 72.8275H146.738C140.687 78.7889 135.715 83.6824 132.288 89.4877C128.953 95.1345 127.103 101.595 126.977 110.68H89.0073Z" stroke="#F8663E" stroke-width="3"/>
<path class="draw" d="M131.662 1C131.498 18.6542 126.985 31.6313 120.812 41.9053L120.812 41.9082C115.427 50.9377 107.741 59.0411 104.592 61.9443L104.577 61.959L104.562 61.9727C103.214 63.3207 101.887 64.6391 100.589 65.917L100.588 65.918C94.3075 72.1085 88.8688 77.5496 85.0293 84.4727C81.2794 91.2343 79.0852 99.3466 78.9658 110.88H41.0039C41.1617 89.8864 46.2868 74.8036 53.3926 63.2227L53.3916 63.2217C59.3829 53.4743 66.7305 45.7537 69.6201 43.1416L69.6416 43.123L69.6621 43.1025C71.1163 41.6284 72.5412 40.223 73.9316 38.8525C79.9826 32.8913 84.9563 27.9975 88.3867 22.1924C91.7235 16.5456 93.5764 10.0856 93.7021 1H131.662Z" stroke="#F8663E" stroke-width="3"/>
</svg>