<svg width="170" height="112" viewBox="0 0 170 112" fill="none" xmlns="http://www.w3.org/2000/svg">
<path d="M21.04 38.16C33.19 26.19 40.51 18.96 40.51 0.0200195H80.48C80.48 18.37 75.86 31.81 69.47 42.4C66.0533 47.3534 57.198 59.134 49.11 66.63C44.44 71.23 39.37 77.26 37.49 80.02C36.17 81.95 33.99 85.02 31.34 88.7L0 63.21C5.62 55.37 16.51 42.62 21.04 38.16Z" fill="#F8663E"/>
<path d="M40 111.88C40 90.19 45.22 74.63 52.54 62.7C58.588 52.86 66 45.0667 68.95 42.4C70.41 40.92 71.84 39.51 73.23 38.14C85.38 26.17 92.71 18.94 92.71 0H132.67C132.67 18.35 128.05 31.8 121.67 42.42C116.222 51.556 108.467 59.7333 105.27 62.68C103.92 64.03 102.59 65.35 101.29 66.63C88.7 79.04 79.96 88.01 79.96 111.88H40Z" fill="#F8663E"/>
</svg>
