<svg width="172" height="112" viewBox="0 0 172 112" fill="none" xmlns="http://www.w3.org/2000/svg">

<style>
.draw {
  stroke-dasharray: 400;
  stroke-dashoffset: 800; 
  animation: drawThis 2s linear infinite;
}

@keyframes drawThis {
0% {
    stroke-dashoffset: 0;
  }
100% {
    stroke-dashoffset: 800;
  }
}

</style>

<path class="draw" stroke="#fc6238" stroke-width="4" d="M40.51 -4.27291e-06C40.51 18.94 33.19 26.17 21.04 38.14C16.51 42.6 5.62 55.35 0 63.19L31.34 88.68C33.99 85 36.17 81.93 37.49 80C39.37 77.24 44.44 71.21 49.11 66.61C50.41 65.33 51.72 64.02 53.06 62.68C45.74 74.61 40.52 90.17 40.52 111.86H80.48C80.48 87.99 89.22 79.02 101.81 66.61C103.11 65.33 104.44 64.01 105.79 62.66C98.46 74.59 93.25 90.15 93.25 111.86H133.21C133.21 87.99 141.95 79.02 154.54 66.61C160.27 60.97 166.58 53.9 171.99 46.9L140.81 21.61C136.6 27.16 132.59 32.11 126.49 38.12C125.1 39.49 123.66 40.91 122.19 42.4C128.57 31.78 133.19 18.33 133.19 -0.0200043H93.23C93.23 18.92 85.9 26.15 73.75 38.12C72.36 39.49 70.93 40.9 69.47 42.38C75.86 31.79 80.48 18.35 80.48 -4.27291e-06H40.51Z"/>
</svg>
