<svg width="586" height="114" viewBox="0 0 586 114" fill="none" xmlns="http://www.w3.org/2000/svg">
<path d="M388.956 29.7314C402.85 29.7314 413.416 32.7809 420.682 38.8906C427.948 45.0005 431.576 55.8949 431.576 71.5732C431.576 79.5768 430.649 86.2646 428.805 91.627C426.971 96.9792 424.28 101.275 420.762 104.484C417.233 107.694 412.798 109.997 407.426 111.353C402.053 112.718 395.913 113.405 388.956 113.405C381.999 113.405 375.869 112.718 370.557 111.353C365.244 109.987 360.77 107.694 357.142 104.484C353.514 101.285 350.782 96.9893 348.938 91.627C347.095 86.2447 346.168 79.5668 346.168 71.5732C346.168 55.885 349.855 45.0005 357.221 38.8906C364.576 32.7808 375.152 29.7315 388.946 29.7314H388.956ZM519.519 112.083H499.534V30.2529H519.519V112.083ZM575.244 15.8291H559.366C556.914 15.8291 555.938 16.8063 555.938 19.248V30.4219H575.214V46.8076H556.008V112.082H535.714V46.9268H535.725L535.654 30.501V18.9297C535.654 8.42432 543.937 0.130859 554.423 0.130859H575.244V15.8291ZM250.134 0L276.5 93.2617L302.876 0H337V112.02H316.74V22.6035L291.458 112.02H261.531L236.26 22.6035V112.02H216V0H250.134ZM464.994 30.1895H485.124V46.5762H464.994V92.9424C464.994 95.2248 465.971 96.1923 468.264 96.1924H484.77V112.02H464.027C454.529 111.969 447.103 105.95 445.189 96.7402C444.93 95.4745 444.841 94.1589 444.841 92.8633C444.826 85.1215 444.806 65.2844 444.79 46.5762H435.607V30.1895H444.777C444.768 18.7058 444.761 9.62957 444.761 7.18555H464.994V30.1895ZM388.877 46.1865C374.863 46.1865 365.983 50.2136 365.982 71.6426C365.982 93.0719 377.205 96.9297 388.877 96.9297C400.366 96.9296 411.42 93.3657 411.763 72.9189L411.771 71.9424C411.771 50.6128 402.891 46.1866 388.877 46.1865ZM519.398 18.0586H499.494V0.0683594H519.398V18.0586Z" fill="#343434"/>
<g clip-path="url(#clip0_1_16)">
<path d="M41.0004 0.0142627C41.0004 18.9543 33.6804 26.1843 21.5304 38.1543C17.0004 42.6143 6.11039 55.3643 0.490387 63.2043L31.8304 88.6943C34.4804 85.0143 36.6604 81.9443 37.9804 80.0143C39.8604 77.2543 44.9304 71.2243 49.6004 66.6243C50.9004 65.3443 52.2104 64.0343 53.5504 62.6943C46.2304 74.6243 41.0104 90.1843 41.0104 111.874H80.9704C80.9704 88.0043 89.7104 79.0343 102.3 66.6243C103.6 65.3443 104.93 64.0243 106.28 62.6743C98.9504 74.6043 93.7404 90.1643 93.7404 111.874H133.7C133.7 88.0043 142.44 79.0343 155.03 66.6243C160.76 60.9843 167.07 53.9143 172.48 46.9143L141.3 21.6243C137.09 27.1743 133.08 32.1243 126.98 38.1343C125.59 39.5043 124.15 40.9243 122.68 42.4143C129.06 31.7943 133.68 18.3443 133.68 -0.0057373H93.7204C93.7204 18.9343 86.3904 26.1643 74.2404 38.1343C72.8504 39.5043 71.4204 40.9143 69.9604 42.3943C76.3504 31.8043 80.9704 18.3643 80.9704 0.0142627H41.0004Z" fill="#F8663E"/>
</g>
<defs>
<clipPath id="clip0_1_16">
<rect width="173" height="112" fill="white" transform="translate(0 0.0142822)"/>
</clipPath>
</defs>
</svg>
