<svg width="2386" height="1798" viewBox="0 0 2386 1798" fill="none" xmlns="http://www.w3.org/2000/svg">
<g clip-path="url(#clip0_45_56)">
<path d="M2010.48 120C2010.48 162.277 1994.15 178.415 1967.04 205.134C1956.93 215.089 1932.63 243.549 1920.09 261.049L1990.02 317.946C1995.93 309.732 2000.8 302.879 2003.74 298.571C2007.94 292.411 2019.25 278.951 2029.67 268.683C2032.57 265.826 2035.49 262.902 2038.48 259.911C2022.15 286.54 2010.5 321.272 2010.5 369.687H2099.66C2099.66 316.406 2119.16 296.384 2147.25 268.683C2150.15 265.826 2153.12 262.879 2156.13 259.866C2139.78 286.496 2128.15 321.228 2128.15 369.687H2217.31C2217.31 316.406 2236.81 296.384 2264.91 268.683C2277.69 256.094 2291.77 240.312 2303.84 224.687L2234.27 168.237C2224.88 180.625 2215.93 191.674 2202.32 205.089C2199.22 208.147 2196.01 211.317 2192.73 214.643C2206.96 190.937 2217.27 160.915 2217.27 119.955H2128.11C2128.11 162.232 2111.76 178.371 2084.65 205.089C2081.54 208.147 2078.35 211.295 2075.1 214.598C2089.35 190.96 2099.66 160.96 2099.66 120H2010.48Z" fill="#FAFAFA"/>
</g>
<g clip-path="url(#clip1_45_56)">
<path d="M2010.48 378C2010.48 420.277 1994.15 436.415 1967.04 463.134C1956.93 473.089 1932.63 501.549 1920.09 519.049L1990.02 575.946C1995.93 567.732 2000.8 560.879 2003.74 556.571C2007.94 550.411 2019.25 536.951 2029.67 526.683C2032.57 523.826 2035.49 520.902 2038.48 517.911C2022.15 544.54 2010.5 579.272 2010.5 627.687H2099.66C2099.66 574.406 2119.16 554.384 2147.25 526.683C2150.15 523.826 2153.12 520.879 2156.13 517.866C2139.78 544.496 2128.15 579.228 2128.15 627.687H2217.31C2217.31 574.406 2236.81 554.384 2264.91 526.683C2277.69 514.094 2291.77 498.312 2303.84 482.687L2234.27 426.237C2224.88 438.625 2215.93 449.674 2202.32 463.089C2199.22 466.147 2196.01 469.317 2192.73 472.643C2206.96 448.937 2217.27 418.915 2217.27 377.955H2128.11C2128.11 420.232 2111.76 436.371 2084.65 463.089C2081.54 466.147 2078.35 469.295 2075.1 472.598C2089.35 448.96 2099.66 418.96 2099.66 378H2010.48Z" fill="#FAFAFA"/>
</g>
<g clip-path="url(#clip2_45_56)">
<path d="M2010.48 636C2010.48 678.277 1994.15 694.415 1967.04 721.134C1956.93 731.089 1932.63 759.549 1920.09 777.049L1990.02 833.946C1995.93 825.732 2000.8 818.879 2003.74 814.571C2007.94 808.411 2019.25 794.951 2029.67 784.683C2032.57 781.826 2035.49 778.902 2038.48 775.911C2022.15 802.54 2010.5 837.272 2010.5 885.687H2099.66C2099.66 832.406 2119.16 812.384 2147.25 784.683C2150.15 781.826 2153.12 778.879 2156.13 775.866C2139.78 802.496 2128.15 837.228 2128.15 885.687H2217.31C2217.31 832.406 2236.81 812.384 2264.91 784.683C2277.69 772.094 2291.77 756.312 2303.84 740.687L2234.27 684.237C2224.88 696.625 2215.93 707.674 2202.32 721.089C2199.22 724.147 2196.01 727.317 2192.73 730.643C2206.96 706.937 2217.27 676.915 2217.27 635.955H2128.11C2128.11 678.232 2111.76 694.371 2084.65 721.089C2081.54 724.147 2078.35 727.295 2075.1 730.598C2089.35 706.96 2099.66 676.96 2099.66 636H2010.48Z" fill="#FAFAFA"/>
</g>
<g clip-path="url(#clip3_45_56)">
<path d="M2010.48 894C2010.48 936.277 1994.15 952.415 1967.04 979.134C1956.93 989.089 1932.63 1017.55 1920.09 1035.05L1990.02 1091.95C1995.93 1083.73 2000.8 1076.88 2003.74 1072.57C2007.94 1066.41 2019.25 1052.95 2029.67 1042.68C2032.57 1039.83 2035.49 1036.9 2038.48 1033.91C2022.15 1060.54 2010.5 1095.27 2010.5 1143.69H2099.66C2099.66 1090.41 2119.16 1070.38 2147.25 1042.68C2150.15 1039.83 2153.12 1036.88 2156.13 1033.87C2139.78 1060.5 2128.15 1095.23 2128.15 1143.69H2217.31C2217.31 1090.41 2236.81 1070.38 2264.91 1042.68C2277.69 1030.09 2291.77 1014.31 2303.84 998.687L2234.27 942.237C2224.88 954.625 2215.93 965.674 2202.32 979.089C2199.22 982.147 2196.01 985.317 2192.73 988.643C2206.96 964.937 2217.27 934.915 2217.27 893.955H2128.11C2128.11 936.232 2111.76 952.371 2084.65 979.089C2081.54 982.147 2078.35 985.295 2075.1 988.598C2089.35 964.96 2099.66 934.96 2099.66 894H2010.48Z" fill="#FAFAFA"/>
</g>
<g clip-path="url(#clip4_45_56)">
<path d="M2010.48 1152C2010.48 1194.28 1994.15 1210.42 1967.04 1237.13C1956.93 1247.09 1932.63 1275.55 1920.09 1293.05L1990.02 1349.95C1995.93 1341.73 2000.8 1334.88 2003.74 1330.57C2007.94 1324.41 2019.25 1310.95 2029.67 1300.68C2032.57 1297.83 2035.49 1294.9 2038.48 1291.91C2022.15 1318.54 2010.5 1353.27 2010.5 1401.69H2099.66C2099.66 1348.41 2119.16 1328.38 2147.25 1300.68C2150.15 1297.83 2153.12 1294.88 2156.13 1291.87C2139.78 1318.5 2128.15 1353.23 2128.15 1401.69H2217.31C2217.31 1348.41 2236.81 1328.38 2264.91 1300.68C2277.69 1288.09 2291.77 1272.31 2303.84 1256.69L2234.27 1200.24C2224.88 1212.62 2215.93 1223.67 2202.32 1237.09C2199.22 1240.15 2196.01 1243.32 2192.73 1246.64C2206.96 1222.94 2217.27 1192.92 2217.27 1151.96H2128.11C2128.11 1194.23 2111.76 1210.37 2084.65 1237.09C2081.54 1240.15 2078.35 1243.29 2075.1 1246.6C2089.35 1222.96 2099.66 1192.96 2099.66 1152H2010.48Z" fill="#FAFAFA"/>
</g>
<g clip-path="url(#clip5_45_56)">
<path d="M2010.48 1410C2010.48 1452.28 1994.15 1468.42 1967.04 1495.13C1956.93 1505.09 1932.63 1533.55 1920.09 1551.05L1990.02 1607.95C1995.93 1599.73 2000.8 1592.88 2003.74 1588.57C2007.94 1582.41 2019.25 1568.95 2029.67 1558.68C2032.57 1555.83 2035.49 1552.9 2038.48 1549.91C2022.15 1576.54 2010.5 1611.27 2010.5 1659.69H2099.66C2099.66 1606.41 2119.16 1586.38 2147.25 1558.68C2150.15 1555.83 2153.12 1552.88 2156.13 1549.87C2139.78 1576.5 2128.15 1611.23 2128.15 1659.69H2217.31C2217.31 1606.41 2236.81 1586.38 2264.91 1558.68C2277.69 1546.09 2291.77 1530.31 2303.84 1514.69L2234.27 1458.24C2224.88 1470.62 2215.93 1481.67 2202.32 1495.09C2199.22 1498.15 2196.01 1501.32 2192.73 1504.64C2206.96 1480.94 2217.27 1450.92 2217.27 1409.96H2128.11C2128.11 1452.23 2111.76 1468.37 2084.65 1495.09C2081.54 1498.15 2078.35 1501.29 2075.1 1504.6C2089.35 1480.96 2099.66 1450.96 2099.66 1410H2010.48Z" fill="#FAFAFA"/>
</g>
<g clip-path="url(#clip6_45_56)">
<path d="M1690.82 218.862C1690.82 261.139 1674.48 277.277 1647.37 303.996C1637.27 313.951 1612.97 342.411 1600.43 359.911L1670.36 416.808C1676.27 408.594 1681.13 401.741 1684.08 397.433C1688.27 391.272 1699.58 377.813 1710 367.545C1712.9 364.688 1715.83 361.764 1718.82 358.773C1702.48 385.402 1690.84 420.134 1690.84 468.549H1780C1780 415.268 1799.5 395.246 1827.59 367.545C1830.49 364.688 1833.46 361.741 1836.47 358.728C1820.11 385.357 1808.49 420.089 1808.49 468.549H1897.65C1897.65 415.268 1917.15 395.246 1945.24 367.545C1958.03 354.956 1972.1 339.174 1984.18 323.549L1914.61 267.098C1905.21 279.487 1896.27 290.536 1882.66 303.951C1879.55 307.009 1876.34 310.179 1873.06 313.505C1887.3 289.799 1897.6 259.777 1897.6 218.817H1808.45C1808.45 261.094 1792.09 277.232 1764.98 303.951C1761.88 307.009 1758.69 310.156 1755.43 313.46C1769.69 289.822 1780 259.822 1780 218.862H1690.82Z" fill="#FAFAFA"/>
</g>
<g clip-path="url(#clip7_45_56)">
<path d="M1690.82 476.862C1690.82 519.139 1674.48 535.277 1647.37 561.996C1637.27 571.951 1612.97 600.411 1600.43 617.911L1670.36 674.808C1676.27 666.594 1681.13 659.741 1684.08 655.433C1688.27 649.272 1699.58 635.813 1710 625.545C1712.9 622.688 1715.83 619.764 1718.82 616.773C1702.48 643.402 1690.84 678.134 1690.84 726.549H1780C1780 673.268 1799.5 653.246 1827.59 625.545C1830.49 622.688 1833.46 619.741 1836.47 616.728C1820.11 643.357 1808.49 678.089 1808.49 726.549H1897.65C1897.65 673.268 1917.15 653.246 1945.24 625.545C1958.03 612.956 1972.1 597.174 1984.18 581.549L1914.61 525.098C1905.21 537.487 1896.27 548.536 1882.66 561.951C1879.55 565.009 1876.34 568.179 1873.06 571.505C1887.3 547.799 1897.6 517.777 1897.6 476.817H1808.45C1808.45 519.094 1792.09 535.232 1764.98 561.951C1761.88 565.009 1758.69 568.156 1755.43 571.46C1769.69 547.822 1780 517.822 1780 476.862H1690.82Z" fill="#FAFAFA"/>
</g>
<g clip-path="url(#clip8_45_56)">
<path d="M1690.82 734.862C1690.82 777.139 1674.48 793.277 1647.37 819.996C1637.27 829.951 1612.97 858.411 1600.43 875.911L1670.36 932.808C1676.27 924.594 1681.13 917.741 1684.08 913.433C1688.27 907.272 1699.58 893.813 1710 883.545C1712.9 880.688 1715.83 877.764 1718.82 874.773C1702.48 901.402 1690.84 936.134 1690.84 984.549H1780C1780 931.268 1799.5 911.246 1827.59 883.545C1830.49 880.688 1833.46 877.741 1836.47 874.728C1820.11 901.357 1808.49 936.089 1808.49 984.549H1897.65C1897.65 931.268 1917.15 911.246 1945.24 883.545C1958.03 870.956 1972.1 855.174 1984.18 839.549L1914.61 783.098C1905.21 795.487 1896.27 806.536 1882.66 819.951C1879.55 823.009 1876.34 826.179 1873.06 829.505C1887.3 805.799 1897.6 775.777 1897.6 734.817H1808.45C1808.45 777.094 1792.09 793.232 1764.98 819.951C1761.88 823.009 1758.69 826.156 1755.43 829.46C1769.69 805.822 1780 775.822 1780 734.862H1690.82Z" fill="#FAFAFA"/>
</g>
<g clip-path="url(#clip9_45_56)">
<path d="M1690.82 992.862C1690.82 1035.14 1674.48 1051.28 1647.37 1078C1637.27 1087.95 1612.97 1116.41 1600.43 1133.91L1670.36 1190.81C1676.27 1182.59 1681.13 1175.74 1684.08 1171.43C1688.27 1165.27 1699.58 1151.81 1710 1141.54C1712.9 1138.69 1715.83 1135.76 1718.82 1132.77C1702.48 1159.4 1690.84 1194.13 1690.84 1242.55H1780C1780 1189.27 1799.5 1169.25 1827.59 1141.54C1830.49 1138.69 1833.46 1135.74 1836.47 1132.73C1820.11 1159.36 1808.49 1194.09 1808.49 1242.55H1897.65C1897.65 1189.27 1917.15 1169.25 1945.24 1141.54C1958.03 1128.96 1972.1 1113.17 1984.18 1097.55L1914.61 1041.1C1905.21 1053.49 1896.27 1064.54 1882.66 1077.95C1879.55 1081.01 1876.34 1084.18 1873.06 1087.5C1887.3 1063.8 1897.6 1033.78 1897.6 992.817H1808.45C1808.45 1035.09 1792.09 1051.23 1764.98 1077.95C1761.88 1081.01 1758.69 1084.16 1755.43 1087.46C1769.69 1063.82 1780 1033.82 1780 992.862H1690.82Z" fill="#FAFAFA"/>
</g>
<g clip-path="url(#clip10_45_56)">
<path d="M1690.82 1250.86C1690.82 1293.14 1674.48 1309.28 1647.37 1336C1637.27 1345.95 1612.97 1374.41 1600.43 1391.91L1670.36 1448.81C1676.27 1440.59 1681.13 1433.74 1684.08 1429.43C1688.27 1423.27 1699.58 1409.81 1710 1399.54C1712.9 1396.69 1715.83 1393.76 1718.82 1390.77C1702.48 1417.4 1690.84 1452.13 1690.84 1500.55H1780C1780 1447.27 1799.5 1427.25 1827.59 1399.54C1830.49 1396.69 1833.46 1393.74 1836.47 1390.73C1820.11 1417.36 1808.49 1452.09 1808.49 1500.55H1897.65C1897.65 1447.27 1917.15 1427.25 1945.24 1399.54C1958.03 1386.96 1972.1 1371.17 1984.18 1355.55L1914.61 1299.1C1905.21 1311.49 1896.27 1322.54 1882.66 1335.95C1879.55 1339.01 1876.34 1342.18 1873.06 1345.5C1887.3 1321.8 1897.6 1291.78 1897.6 1250.82H1808.45C1808.45 1293.09 1792.09 1309.23 1764.98 1335.95C1761.88 1339.01 1758.69 1342.16 1755.43 1345.46C1769.69 1321.82 1780 1291.82 1780 1250.86H1690.82Z" fill="#FAFAFA"/>
</g>
<g clip-path="url(#clip11_45_56)">
<path d="M1690.82 1508.86C1690.82 1551.14 1674.48 1567.28 1647.37 1594C1637.27 1603.95 1612.97 1632.41 1600.43 1649.91L1670.36 1706.81C1676.27 1698.59 1681.13 1691.74 1684.08 1687.43C1688.27 1681.27 1699.58 1667.81 1710 1657.54C1712.9 1654.69 1715.83 1651.76 1718.82 1648.77C1702.48 1675.4 1690.84 1710.13 1690.84 1758.55H1780C1780 1705.27 1799.5 1685.25 1827.59 1657.54C1830.49 1654.69 1833.46 1651.74 1836.47 1648.73C1820.11 1675.36 1808.49 1710.09 1808.49 1758.55H1897.65C1897.65 1705.27 1917.15 1685.25 1945.24 1657.54C1958.03 1644.96 1972.1 1629.17 1984.18 1613.55L1914.61 1557.1C1905.21 1569.49 1896.27 1580.54 1882.66 1593.95C1879.55 1597.01 1876.34 1600.18 1873.06 1603.5C1887.3 1579.8 1897.6 1549.78 1897.6 1508.82H1808.45C1808.45 1551.09 1792.09 1567.23 1764.98 1593.95C1761.88 1597.01 1758.69 1600.16 1755.43 1603.46C1769.69 1579.82 1780 1549.82 1780 1508.86H1690.82Z" fill="#FAFAFA"/>
</g>
<g clip-path="url(#clip12_45_56)">
<path d="M1371.32 60.5C1371.32 102.777 1354.98 118.915 1327.87 145.634C1317.77 155.589 1293.47 184.049 1280.93 201.549L1350.86 258.446C1356.77 250.232 1361.63 243.379 1364.58 239.071C1368.77 232.911 1380.08 219.451 1390.5 209.183C1393.4 206.326 1396.33 203.402 1399.32 200.411C1382.98 227.04 1371.34 261.772 1371.34 310.187H1460.5C1460.5 256.906 1480 236.884 1508.09 209.183C1510.99 206.326 1513.96 203.379 1516.97 200.366C1500.61 226.996 1488.99 261.728 1488.99 310.187H1578.15C1578.15 256.906 1597.65 236.884 1625.74 209.183C1638.53 196.594 1652.6 180.812 1664.68 165.187L1595.11 108.737C1585.71 121.125 1576.77 132.174 1563.16 145.589C1560.05 148.647 1556.84 151.817 1553.56 155.143C1567.8 131.437 1578.1 101.415 1578.1 60.4553H1488.95C1488.95 102.732 1472.59 118.871 1445.48 145.589C1442.38 148.647 1439.19 151.795 1435.93 155.098C1450.19 131.46 1460.5 101.46 1460.5 60.5H1371.32Z" fill="#FAFAFA"/>
</g>
<g clip-path="url(#clip13_45_56)">
<path d="M1371.32 318.5C1371.32 360.777 1354.98 376.915 1327.87 403.634C1317.77 413.589 1293.47 442.049 1280.93 459.549L1350.86 516.446C1356.77 508.232 1361.63 501.379 1364.58 497.071C1368.77 490.911 1380.08 477.451 1390.5 467.183C1393.4 464.326 1396.33 461.402 1399.32 458.411C1382.98 485.04 1371.34 519.772 1371.34 568.187H1460.5C1460.5 514.906 1480 494.884 1508.09 467.183C1510.99 464.326 1513.96 461.379 1516.97 458.366C1500.61 484.996 1488.99 519.728 1488.99 568.187H1578.15C1578.15 514.906 1597.65 494.884 1625.74 467.183C1638.53 454.594 1652.6 438.812 1664.68 423.187L1595.11 366.737C1585.71 379.125 1576.77 390.174 1563.16 403.589C1560.05 406.647 1556.84 409.817 1553.56 413.143C1567.8 389.437 1578.1 359.415 1578.1 318.455H1488.95C1488.95 360.732 1472.59 376.871 1445.48 403.589C1442.38 406.647 1439.19 409.795 1435.93 413.098C1450.19 389.46 1460.5 359.46 1460.5 318.5H1371.32Z" fill="#FAFAFA"/>
</g>
<g clip-path="url(#clip14_45_56)">
<path d="M1371.32 576.5C1371.32 618.777 1354.98 634.915 1327.87 661.634C1317.77 671.589 1293.47 700.049 1280.93 717.549L1350.86 774.446C1356.77 766.232 1361.63 759.379 1364.58 755.071C1368.77 748.911 1380.08 735.451 1390.5 725.183C1393.4 722.326 1396.33 719.402 1399.32 716.411C1382.98 743.04 1371.34 777.772 1371.34 826.187H1460.5C1460.5 772.906 1480 752.884 1508.09 725.183C1510.99 722.326 1513.96 719.379 1516.97 716.366C1500.61 742.996 1488.99 777.728 1488.99 826.187H1578.15C1578.15 772.906 1597.65 752.884 1625.74 725.183C1638.53 712.594 1652.6 696.812 1664.68 681.187L1595.11 624.737C1585.71 637.125 1576.77 648.174 1563.16 661.589C1560.05 664.647 1556.84 667.817 1553.56 671.143C1567.8 647.437 1578.1 617.415 1578.1 576.455H1488.95C1488.95 618.732 1472.59 634.871 1445.48 661.589C1442.38 664.647 1439.19 667.795 1435.93 671.098C1450.19 647.46 1460.5 617.46 1460.5 576.5H1371.32Z" fill="#FAFAFA"/>
</g>
<g clip-path="url(#clip15_45_56)">
<path d="M1371.32 834.5C1371.32 876.777 1354.98 892.915 1327.87 919.634C1317.77 929.589 1293.47 958.049 1280.93 975.549L1350.86 1032.45C1356.77 1024.23 1361.63 1017.38 1364.58 1013.07C1368.77 1006.91 1380.08 993.451 1390.5 983.183C1393.4 980.326 1396.33 977.402 1399.32 974.411C1382.98 1001.04 1371.34 1035.77 1371.34 1084.19H1460.5C1460.5 1030.91 1480 1010.88 1508.09 983.183C1510.99 980.326 1513.96 977.379 1516.97 974.366C1500.61 1001 1488.99 1035.73 1488.99 1084.19H1578.15C1578.15 1030.91 1597.65 1010.88 1625.74 983.183C1638.53 970.594 1652.6 954.812 1664.68 939.187L1595.11 882.737C1585.71 895.125 1576.77 906.174 1563.16 919.589C1560.05 922.647 1556.84 925.817 1553.56 929.143C1567.8 905.437 1578.1 875.415 1578.1 834.455H1488.95C1488.95 876.732 1472.59 892.871 1445.48 919.589C1442.38 922.647 1439.19 925.795 1435.93 929.098C1450.19 905.46 1460.5 875.46 1460.5 834.5H1371.32Z" fill="#FAFAFA"/>
</g>
<g clip-path="url(#clip16_45_56)">
<path d="M1371.32 1092.5C1371.32 1134.78 1354.98 1150.92 1327.87 1177.63C1317.77 1187.59 1293.47 1216.05 1280.93 1233.55L1350.86 1290.45C1356.77 1282.23 1361.63 1275.38 1364.58 1271.07C1368.77 1264.91 1380.08 1251.45 1390.5 1241.18C1393.4 1238.33 1396.33 1235.4 1399.32 1232.41C1382.98 1259.04 1371.34 1293.77 1371.34 1342.19H1460.5C1460.5 1288.91 1480 1268.88 1508.09 1241.18C1510.99 1238.33 1513.96 1235.38 1516.97 1232.37C1500.61 1259 1488.99 1293.73 1488.99 1342.19H1578.15C1578.15 1288.91 1597.65 1268.88 1625.74 1241.18C1638.53 1228.59 1652.6 1212.81 1664.68 1197.19L1595.11 1140.74C1585.71 1153.12 1576.77 1164.17 1563.16 1177.59C1560.05 1180.65 1556.84 1183.82 1553.56 1187.14C1567.8 1163.44 1578.1 1133.42 1578.1 1092.46H1488.95C1488.95 1134.73 1472.59 1150.87 1445.48 1177.59C1442.38 1180.65 1439.19 1183.79 1435.93 1187.1C1450.19 1163.46 1460.5 1133.46 1460.5 1092.5H1371.32Z" fill="#FAFAFA"/>
</g>
<g clip-path="url(#clip17_45_56)">
<path d="M1371.32 1350.5C1371.32 1392.78 1354.98 1408.92 1327.87 1435.63C1317.77 1445.59 1293.47 1474.05 1280.93 1491.55L1350.86 1548.45C1356.77 1540.23 1361.63 1533.38 1364.58 1529.07C1368.77 1522.91 1380.08 1509.45 1390.5 1499.18C1393.4 1496.33 1396.33 1493.4 1399.32 1490.41C1382.98 1517.04 1371.34 1551.77 1371.34 1600.19H1460.5C1460.5 1546.91 1480 1526.88 1508.09 1499.18C1510.99 1496.33 1513.96 1493.38 1516.97 1490.37C1500.61 1517 1488.99 1551.73 1488.99 1600.19H1578.15C1578.15 1546.91 1597.65 1526.88 1625.74 1499.18C1638.53 1486.59 1652.6 1470.81 1664.68 1455.19L1595.11 1398.74C1585.71 1411.12 1576.77 1422.17 1563.16 1435.59C1560.05 1438.65 1556.84 1441.82 1553.56 1445.14C1567.8 1421.44 1578.1 1391.42 1578.1 1350.46H1488.95C1488.95 1392.73 1472.59 1408.87 1445.48 1435.59C1442.38 1438.65 1439.19 1441.79 1435.93 1445.1C1450.19 1421.46 1460.5 1391.46 1460.5 1350.5H1371.32Z" fill="#FAFAFA"/>
</g>
<g clip-path="url(#clip18_45_56)">
<path d="M1052.32 158.5C1052.32 200.777 1035.98 216.915 1008.87 243.634C998.766 253.589 974.468 282.049 961.929 299.549L1031.86 356.446C1037.77 348.232 1042.63 341.379 1045.58 337.071C1049.77 330.911 1061.08 317.451 1071.5 307.183C1074.4 304.326 1077.33 301.402 1080.32 298.411C1063.98 325.04 1052.34 359.772 1052.34 408.187H1141.5C1141.5 354.906 1161 334.884 1189.09 307.183C1191.99 304.326 1194.96 301.379 1197.97 298.366C1181.61 324.996 1169.99 359.728 1169.99 408.187H1259.15C1259.15 354.906 1278.65 334.884 1306.74 307.183C1319.53 294.594 1333.6 278.812 1345.68 263.187L1276.11 206.737C1266.71 219.125 1257.77 230.174 1244.16 243.589C1241.05 246.647 1237.84 249.817 1234.56 253.143C1248.8 229.437 1259.1 199.415 1259.1 158.455H1169.94C1169.94 200.732 1153.59 216.871 1126.48 243.589C1123.38 246.647 1120.19 249.795 1116.93 253.098C1131.19 229.46 1141.5 199.46 1141.5 158.5H1052.32Z" fill="#FAFAFA"/>
</g>
<g clip-path="url(#clip19_45_56)">
<path d="M1052.32 416.5C1052.32 458.777 1035.98 474.915 1008.87 501.634C998.766 511.589 974.468 540.049 961.929 557.549L1031.86 614.446C1037.77 606.232 1042.63 599.379 1045.58 595.071C1049.77 588.911 1061.08 575.451 1071.5 565.183C1074.4 562.326 1077.33 559.402 1080.32 556.411C1063.98 583.04 1052.34 617.772 1052.34 666.187H1141.5C1141.5 612.906 1161 592.884 1189.09 565.183C1191.99 562.326 1194.96 559.379 1197.97 556.366C1181.61 582.996 1169.99 617.728 1169.99 666.187H1259.15C1259.15 612.906 1278.65 592.884 1306.74 565.183C1319.53 552.594 1333.6 536.812 1345.68 521.187L1276.11 464.737C1266.71 477.125 1257.77 488.174 1244.16 501.589C1241.05 504.647 1237.84 507.817 1234.56 511.143C1248.8 487.437 1259.1 457.415 1259.1 416.455H1169.94C1169.94 458.732 1153.59 474.871 1126.48 501.589C1123.38 504.647 1120.19 507.795 1116.93 511.098C1131.19 487.46 1141.5 457.46 1141.5 416.5H1052.32Z" fill="#FAFAFA"/>
</g>
<g clip-path="url(#clip20_45_56)">
<path d="M1052.32 674.5C1052.32 716.777 1035.98 732.915 1008.87 759.634C998.766 769.589 974.468 798.049 961.929 815.549L1031.86 872.446C1037.77 864.232 1042.63 857.379 1045.58 853.071C1049.77 846.911 1061.08 833.451 1071.5 823.183C1074.4 820.326 1077.33 817.402 1080.32 814.411C1063.98 841.04 1052.34 875.772 1052.34 924.187H1141.5C1141.5 870.906 1161 850.884 1189.09 823.183C1191.99 820.326 1194.96 817.379 1197.97 814.366C1181.61 840.996 1169.99 875.728 1169.99 924.187H1259.15C1259.15 870.906 1278.65 850.884 1306.74 823.183C1319.53 810.594 1333.6 794.812 1345.68 779.187L1276.11 722.737C1266.71 735.125 1257.77 746.174 1244.16 759.589C1241.05 762.647 1237.84 765.817 1234.56 769.143C1248.8 745.437 1259.1 715.415 1259.1 674.455H1169.94C1169.94 716.732 1153.59 732.871 1126.48 759.589C1123.38 762.647 1120.19 765.795 1116.93 769.098C1131.19 745.46 1141.5 715.46 1141.5 674.5H1052.32Z" fill="#FAFAFA"/>
</g>
<g clip-path="url(#clip21_45_56)">
<path d="M1052.32 932.5C1052.32 974.777 1035.98 990.915 1008.87 1017.63C998.766 1027.59 974.468 1056.05 961.929 1073.55L1031.86 1130.45C1037.77 1122.23 1042.63 1115.38 1045.58 1111.07C1049.77 1104.91 1061.08 1091.45 1071.5 1081.18C1074.4 1078.33 1077.33 1075.4 1080.32 1072.41C1063.98 1099.04 1052.34 1133.77 1052.34 1182.19H1141.5C1141.5 1128.91 1161 1108.88 1189.09 1081.18C1191.99 1078.33 1194.96 1075.38 1197.97 1072.37C1181.61 1099 1169.99 1133.73 1169.99 1182.19H1259.15C1259.15 1128.91 1278.65 1108.88 1306.74 1081.18C1319.53 1068.59 1333.6 1052.81 1345.68 1037.19L1276.11 980.737C1266.71 993.125 1257.77 1004.17 1244.16 1017.59C1241.05 1020.65 1237.84 1023.82 1234.56 1027.14C1248.8 1003.44 1259.1 973.415 1259.1 932.455H1169.94C1169.94 974.732 1153.59 990.871 1126.48 1017.59C1123.38 1020.65 1120.19 1023.79 1116.93 1027.1C1131.19 1003.46 1141.5 973.46 1141.5 932.5H1052.32Z" fill="#FAFAFA"/>
</g>
<g clip-path="url(#clip22_45_56)">
<path d="M1052.32 1190.5C1052.32 1232.78 1035.98 1248.92 1008.87 1275.63C998.766 1285.59 974.468 1314.05 961.929 1331.55L1031.86 1388.45C1037.77 1380.23 1042.63 1373.38 1045.58 1369.07C1049.77 1362.91 1061.08 1349.45 1071.5 1339.18C1074.4 1336.33 1077.33 1333.4 1080.32 1330.41C1063.98 1357.04 1052.34 1391.77 1052.34 1440.19H1141.5C1141.5 1386.91 1161 1366.88 1189.09 1339.18C1191.99 1336.33 1194.96 1333.38 1197.97 1330.37C1181.61 1357 1169.99 1391.73 1169.99 1440.19H1259.15C1259.15 1386.91 1278.65 1366.88 1306.74 1339.18C1319.53 1326.59 1333.6 1310.81 1345.68 1295.19L1276.11 1238.74C1266.71 1251.12 1257.77 1262.17 1244.16 1275.59C1241.05 1278.65 1237.84 1281.82 1234.56 1285.14C1248.8 1261.44 1259.1 1231.42 1259.1 1190.46H1169.94C1169.94 1232.73 1153.59 1248.87 1126.48 1275.59C1123.38 1278.65 1120.19 1281.79 1116.93 1285.1C1131.19 1261.46 1141.5 1231.46 1141.5 1190.5H1052.32Z" fill="#FAFAFA"/>
</g>
<g clip-path="url(#clip23_45_56)">
<path d="M1052.32 1448.5C1052.32 1490.78 1035.98 1506.92 1008.87 1533.63C998.766 1543.59 974.468 1572.05 961.929 1589.55L1031.86 1646.45C1037.77 1638.23 1042.63 1631.38 1045.58 1627.07C1049.77 1620.91 1061.08 1607.45 1071.5 1597.18C1074.4 1594.33 1077.33 1591.4 1080.32 1588.41C1063.98 1615.04 1052.34 1649.77 1052.34 1698.19H1141.5C1141.5 1644.91 1161 1624.88 1189.09 1597.18C1191.99 1594.33 1194.96 1591.38 1197.97 1588.37C1181.61 1615 1169.99 1649.73 1169.99 1698.19H1259.15C1259.15 1644.91 1278.65 1624.88 1306.74 1597.18C1319.53 1584.59 1333.6 1568.81 1345.68 1553.19L1276.11 1496.74C1266.71 1509.12 1257.77 1520.17 1244.16 1533.59C1241.05 1536.65 1237.84 1539.82 1234.56 1543.14C1248.8 1519.44 1259.1 1489.42 1259.1 1448.46H1169.94C1169.94 1490.73 1153.59 1506.87 1126.48 1533.59C1123.38 1536.65 1120.19 1539.79 1116.93 1543.1C1131.19 1519.46 1141.5 1489.46 1141.5 1448.5H1052.32Z" fill="#FAFAFA"/>
</g>
<g clip-path="url(#clip24_45_56)">
<path d="M731.815 -3.48762e-05C731.815 42.2768 715.483 58.4151 688.374 85.1339C678.266 95.0893 653.968 123.549 641.429 141.049L711.355 197.946C717.268 189.732 722.132 182.879 725.077 178.571C729.272 172.411 740.584 158.951 751.004 148.683C753.904 145.826 756.827 142.902 759.817 139.911C743.485 166.54 731.838 201.272 731.838 249.687H820.997C820.997 196.406 840.498 176.384 868.589 148.683C871.489 145.826 874.457 142.879 877.469 139.866C861.114 166.496 849.49 201.228 849.49 249.687H938.649C938.649 196.406 958.15 176.384 986.241 148.683C999.025 136.094 1013.1 120.312 1025.18 104.687L955.606 48.2366C946.213 60.625 937.265 71.6741 923.655 85.0892C920.554 88.1473 917.341 91.3169 914.061 94.6428C928.296 70.9375 938.604 40.9151 938.604 -0.0446777H849.445C849.445 42.2321 833.09 58.3705 805.981 85.0892C802.879 88.1473 799.689 91.2946 796.431 94.5982C810.689 70.9598 820.997 40.9598 820.997 -3.48762e-05H731.815Z" fill="#FAFAFA"/>
</g>
<g clip-path="url(#clip25_45_56)">
<path d="M731.815 258C731.815 300.277 715.483 316.415 688.374 343.134C678.266 353.089 653.968 381.549 641.429 399.049L711.355 455.946C717.268 447.732 722.132 440.879 725.077 436.571C729.272 430.411 740.584 416.951 751.004 406.683C753.904 403.826 756.827 400.902 759.817 397.911C743.485 424.54 731.838 459.272 731.838 507.687H820.997C820.997 454.406 840.498 434.384 868.589 406.683C871.489 403.826 874.457 400.879 877.469 397.866C861.114 424.496 849.49 459.228 849.49 507.687H938.649C938.649 454.406 958.15 434.384 986.241 406.683C999.025 394.094 1013.1 378.312 1025.18 362.687L955.606 306.237C946.213 318.625 937.265 329.674 923.655 343.089C920.554 346.147 917.341 349.317 914.061 352.643C928.296 328.937 938.604 298.915 938.604 257.955H849.445C849.445 300.232 833.09 316.371 805.981 343.089C802.879 346.147 799.689 349.295 796.431 352.598C810.689 328.96 820.997 298.96 820.997 258H731.815Z" fill="#FAFAFA"/>
</g>
<g clip-path="url(#clip26_45_56)">
<path d="M731.815 516C731.815 558.277 715.483 574.415 688.374 601.134C678.266 611.089 653.968 639.549 641.429 657.049L711.355 713.946C717.268 705.732 722.132 698.879 725.077 694.571C729.272 688.411 740.584 674.951 751.004 664.683C753.904 661.826 756.827 658.902 759.817 655.911C743.485 682.54 731.838 717.272 731.838 765.687H820.997C820.997 712.406 840.498 692.384 868.589 664.683C871.489 661.826 874.457 658.879 877.469 655.866C861.114 682.496 849.49 717.228 849.49 765.687H938.649C938.649 712.406 958.15 692.384 986.241 664.683C999.025 652.094 1013.1 636.312 1025.18 620.687L955.606 564.237C946.213 576.625 937.265 587.674 923.655 601.089C920.554 604.147 917.341 607.317 914.061 610.643C928.296 586.937 938.604 556.915 938.604 515.955H849.445C849.445 558.232 833.09 574.371 805.981 601.089C802.879 604.147 799.689 607.295 796.431 610.598C810.689 586.96 820.997 556.96 820.997 516H731.815Z" fill="#FAFAFA"/>
</g>
<g clip-path="url(#clip27_45_56)">
<path d="M731.815 774C731.815 816.277 715.483 832.415 688.374 859.134C678.266 869.089 653.968 897.549 641.429 915.049L711.355 971.946C717.268 963.732 722.132 956.879 725.077 952.571C729.272 946.411 740.584 932.951 751.004 922.683C753.904 919.826 756.827 916.902 759.817 913.911C743.485 940.54 731.838 975.272 731.838 1023.69H820.997C820.997 970.406 840.498 950.384 868.589 922.683C871.489 919.826 874.457 916.879 877.469 913.866C861.114 940.496 849.49 975.228 849.49 1023.69H938.649C938.649 970.406 958.15 950.384 986.241 922.683C999.025 910.094 1013.1 894.312 1025.18 878.687L955.606 822.237C946.213 834.625 937.265 845.674 923.655 859.089C920.554 862.147 917.341 865.317 914.061 868.643C928.296 844.937 938.604 814.915 938.604 773.955H849.445C849.445 816.232 833.09 832.371 805.981 859.089C802.879 862.147 799.689 865.295 796.431 868.598C810.689 844.96 820.997 814.96 820.997 774H731.815Z" fill="#FAFAFA"/>
</g>
<g clip-path="url(#clip28_45_56)">
<path d="M731.815 1032C731.815 1074.28 715.483 1090.42 688.374 1117.13C678.266 1127.09 653.968 1155.55 641.429 1173.05L711.355 1229.95C717.268 1221.73 722.132 1214.88 725.077 1210.57C729.272 1204.41 740.584 1190.95 751.004 1180.68C753.904 1177.83 756.827 1174.9 759.817 1171.91C743.485 1198.54 731.838 1233.27 731.838 1281.69H820.997C820.997 1228.41 840.498 1208.38 868.589 1180.68C871.489 1177.83 874.457 1174.88 877.469 1171.87C861.114 1198.5 849.49 1233.23 849.49 1281.69H938.649C938.649 1228.41 958.15 1208.38 986.241 1180.68C999.025 1168.09 1013.1 1152.31 1025.18 1136.69L955.606 1080.24C946.213 1092.62 937.265 1103.67 923.655 1117.09C920.554 1120.15 917.341 1123.32 914.061 1126.64C928.296 1102.94 938.604 1072.92 938.604 1031.96H849.445C849.445 1074.23 833.09 1090.37 805.981 1117.09C802.879 1120.15 799.689 1123.29 796.431 1126.6C810.689 1102.96 820.997 1072.96 820.997 1032H731.815Z" fill="#FAFAFA"/>
</g>
<g clip-path="url(#clip29_45_56)">
<path d="M731.815 1290C731.815 1332.28 715.483 1348.42 688.374 1375.13C678.266 1385.09 653.968 1413.55 641.429 1431.05L711.355 1487.95C717.268 1479.73 722.132 1472.88 725.077 1468.57C729.272 1462.41 740.584 1448.95 751.004 1438.68C753.904 1435.83 756.827 1432.9 759.817 1429.91C743.485 1456.54 731.838 1491.27 731.838 1539.69H820.997C820.997 1486.41 840.498 1466.38 868.589 1438.68C871.489 1435.83 874.457 1432.88 877.469 1429.87C861.114 1456.5 849.49 1491.23 849.49 1539.69H938.649C938.649 1486.41 958.15 1466.38 986.241 1438.68C999.025 1426.09 1013.1 1410.31 1025.18 1394.69L955.606 1338.24C946.213 1350.62 937.265 1361.67 923.655 1375.09C920.554 1378.15 917.341 1381.32 914.061 1384.64C928.296 1360.94 938.604 1330.92 938.604 1289.96H849.445C849.445 1332.23 833.09 1348.37 805.981 1375.09C802.879 1378.15 799.689 1381.29 796.431 1384.6C810.689 1360.96 820.997 1330.96 820.997 1290H731.815Z" fill="#FAFAFA"/>
</g>
<g clip-path="url(#clip30_45_56)">
<path d="M731.815 1548C731.815 1590.28 715.483 1606.42 688.374 1633.13C678.266 1643.09 653.968 1671.55 641.429 1689.05L711.355 1745.95C717.268 1737.73 722.132 1730.88 725.077 1726.57C729.272 1720.41 740.584 1706.95 751.004 1696.68C753.904 1693.83 756.827 1690.9 759.817 1687.91C743.485 1714.54 731.838 1749.27 731.838 1797.69H820.997C820.997 1744.41 840.498 1724.38 868.589 1696.68C871.489 1693.83 874.457 1690.88 877.469 1687.87C861.114 1714.5 849.49 1749.23 849.49 1797.69H938.649C938.649 1744.41 958.15 1724.38 986.241 1696.68C999.025 1684.09 1013.1 1668.31 1025.18 1652.69L955.606 1596.24C946.213 1608.62 937.265 1619.67 923.655 1633.09C920.554 1636.15 917.341 1639.32 914.061 1642.64C928.296 1618.94 938.604 1588.92 938.604 1547.96H849.445C849.445 1590.23 833.09 1606.37 805.981 1633.09C802.879 1636.15 799.689 1639.29 796.431 1642.6C810.689 1618.96 820.997 1588.96 820.997 1548H731.815Z" fill="#FAFAFA"/>
</g>
<g clip-path="url(#clip31_45_56)">
<path d="M412.515 99.4002C412.515 141.677 396.183 157.815 369.074 184.534C358.966 194.49 334.668 222.949 322.129 240.449L392.055 297.347C397.968 289.132 402.832 282.28 405.777 277.972C409.972 271.811 421.284 258.351 431.704 248.083C434.604 245.226 437.527 242.302 440.517 239.311C424.185 265.94 412.538 300.673 412.538 349.088H501.697C501.697 295.806 521.198 275.784 549.289 248.083C552.189 245.226 555.157 242.28 558.169 239.266C541.814 265.896 530.19 300.628 530.19 349.088H619.349C619.349 295.806 638.85 275.784 666.941 248.083C679.725 235.494 693.804 219.713 705.875 204.088L636.306 147.637C626.913 160.025 617.966 171.074 604.355 184.49C601.254 187.548 598.041 190.717 594.761 194.043C608.996 170.338 619.304 140.315 619.304 99.3556H530.145C530.145 141.632 513.79 157.771 486.681 184.49C483.58 187.548 480.389 190.695 477.131 193.998C491.389 170.36 501.697 140.36 501.697 99.4002H412.515Z" fill="#FAFAFA"/>
</g>
<g clip-path="url(#clip32_45_56)">
<path d="M412.515 357.4C412.515 399.677 396.183 415.815 369.074 442.534C358.966 452.49 334.668 480.949 322.129 498.449L392.055 555.347C397.968 547.132 402.832 540.28 405.777 535.972C409.972 529.811 421.284 516.351 431.704 506.083C434.604 503.226 437.527 500.302 440.517 497.311C424.185 523.94 412.538 558.673 412.538 607.088H501.697C501.697 553.806 521.198 533.784 549.289 506.083C552.189 503.226 555.157 500.28 558.169 497.266C541.814 523.896 530.19 558.628 530.19 607.088H619.349C619.349 553.806 638.85 533.784 666.941 506.083C679.725 493.494 693.804 477.713 705.875 462.088L636.306 405.637C626.913 418.025 617.966 429.074 604.355 442.49C601.254 445.548 598.041 448.717 594.761 452.043C608.996 428.338 619.304 398.315 619.304 357.356H530.145C530.145 399.632 513.79 415.771 486.681 442.49C483.58 445.548 480.389 448.695 477.131 451.998C491.389 428.36 501.697 398.36 501.697 357.4H412.515Z" fill="#FAFAFA"/>
</g>
<g clip-path="url(#clip33_45_56)">
<path d="M412.515 615.4C412.515 657.677 396.183 673.815 369.074 700.534C358.966 710.49 334.668 738.949 322.129 756.449L392.055 813.347C397.968 805.132 402.832 798.28 405.777 793.972C409.972 787.811 421.284 774.351 431.704 764.083C434.604 761.226 437.527 758.302 440.517 755.311C424.185 781.94 412.538 816.673 412.538 865.088H501.697C501.697 811.806 521.198 791.784 549.289 764.083C552.189 761.226 555.157 758.28 558.169 755.266C541.814 781.896 530.19 816.628 530.19 865.088H619.349C619.349 811.806 638.85 791.784 666.941 764.083C679.725 751.494 693.804 735.713 705.875 720.088L636.306 663.637C626.913 676.025 617.966 687.074 604.355 700.49C601.254 703.548 598.041 706.717 594.761 710.043C608.996 686.338 619.304 656.315 619.304 615.356H530.145C530.145 657.632 513.79 673.771 486.681 700.49C483.58 703.548 480.389 706.695 477.131 709.998C491.389 686.36 501.697 656.36 501.697 615.4H412.515Z" fill="#FAFAFA"/>
</g>
<g clip-path="url(#clip34_45_56)">
<path d="M412.515 873.4C412.515 915.677 396.183 931.815 369.074 958.534C358.966 968.49 334.668 996.949 322.129 1014.45L392.055 1071.35C397.968 1063.13 402.832 1056.28 405.777 1051.97C409.972 1045.81 421.284 1032.35 431.704 1022.08C434.604 1019.23 437.527 1016.3 440.517 1013.31C424.185 1039.94 412.538 1074.67 412.538 1123.09H501.697C501.697 1069.81 521.198 1049.78 549.289 1022.08C552.189 1019.23 555.157 1016.28 558.169 1013.27C541.814 1039.9 530.19 1074.63 530.19 1123.09H619.349C619.349 1069.81 638.85 1049.78 666.941 1022.08C679.725 1009.49 693.804 993.713 705.875 978.088L636.306 921.637C626.913 934.025 617.966 945.074 604.355 958.49C601.254 961.548 598.041 964.717 594.761 968.043C608.996 944.338 619.304 914.315 619.304 873.356H530.145C530.145 915.632 513.79 931.771 486.681 958.49C483.58 961.548 480.389 964.695 477.131 967.998C491.389 944.36 501.697 914.36 501.697 873.4H412.515Z" fill="#FAFAFA"/>
</g>
<g clip-path="url(#clip35_45_56)">
<path d="M412.515 1131.4C412.515 1173.68 396.183 1189.82 369.074 1216.53C358.966 1226.49 334.668 1254.95 322.129 1272.45L392.055 1329.35C397.968 1321.13 402.832 1314.28 405.777 1309.97C409.972 1303.81 421.284 1290.35 431.704 1280.08C434.604 1277.23 437.527 1274.3 440.517 1271.31C424.185 1297.94 412.538 1332.67 412.538 1381.09H501.697C501.697 1327.81 521.198 1307.78 549.289 1280.08C552.189 1277.23 555.157 1274.28 558.169 1271.27C541.814 1297.9 530.19 1332.63 530.19 1381.09H619.349C619.349 1327.81 638.85 1307.78 666.941 1280.08C679.725 1267.49 693.804 1251.71 705.875 1236.09L636.306 1179.64C626.913 1192.03 617.966 1203.07 604.355 1216.49C601.254 1219.55 598.041 1222.72 594.761 1226.04C608.996 1202.34 619.304 1172.32 619.304 1131.36H530.145C530.145 1173.63 513.79 1189.77 486.681 1216.49C483.58 1219.55 480.389 1222.7 477.131 1226C491.389 1202.36 501.697 1172.36 501.697 1131.4H412.515Z" fill="#FAFAFA"/>
</g>
<g clip-path="url(#clip36_45_56)">
<path d="M412.515 1389.4C412.515 1431.68 396.183 1447.82 369.074 1474.53C358.966 1484.49 334.668 1512.95 322.129 1530.45L392.055 1587.35C397.968 1579.13 402.832 1572.28 405.777 1567.97C409.972 1561.81 421.284 1548.35 431.704 1538.08C434.604 1535.23 437.527 1532.3 440.517 1529.31C424.185 1555.94 412.538 1590.67 412.538 1639.09H501.697C501.697 1585.81 521.198 1565.78 549.289 1538.08C552.189 1535.23 555.157 1532.28 558.169 1529.27C541.814 1555.9 530.19 1590.63 530.19 1639.09H619.349C619.349 1585.81 638.85 1565.78 666.941 1538.08C679.725 1525.49 693.804 1509.71 705.875 1494.09L636.306 1437.64C626.913 1450.03 617.966 1461.07 604.355 1474.49C601.254 1477.55 598.041 1480.72 594.761 1484.04C608.996 1460.34 619.304 1430.32 619.304 1389.36H530.145C530.145 1431.63 513.79 1447.77 486.681 1474.49C483.58 1477.55 480.389 1480.7 477.131 1484C491.389 1460.36 501.697 1430.36 501.697 1389.4H412.515Z" fill="#FAFAFA"/>
</g>
<g clip-path="url(#clip37_45_56)">
<path d="M94.0137 198.9C94.0137 241.177 77.6812 257.316 50.572 284.034C40.4646 293.99 16.1667 322.45 3.62724 339.95L73.5535 396.847C79.4662 388.633 84.3303 381.78 87.2754 377.472C91.4701 371.311 102.782 357.851 113.202 347.584C116.103 344.726 119.026 341.802 122.015 338.811C105.683 365.441 94.036 400.173 94.036 448.588H183.195C183.195 395.307 202.696 375.284 230.787 347.584C233.688 344.726 236.655 341.78 239.667 338.767C223.313 365.396 211.688 400.128 211.688 448.588H300.847C300.847 395.307 320.348 375.284 348.439 347.584C361.224 334.994 375.303 319.213 387.374 303.588L317.804 247.137C308.411 259.525 299.464 270.575 285.853 283.99C282.752 287.048 279.539 290.217 276.259 293.543C290.494 269.838 300.803 239.816 300.803 198.856H211.643C211.643 241.133 195.289 257.271 168.179 283.99C165.078 287.048 161.887 290.195 158.63 293.499C172.887 269.86 183.195 239.86 183.195 198.9H94.0137Z" fill="#FAFAFA"/>
</g>
<g clip-path="url(#clip38_45_56)">
<path d="M94.0137 456.9C94.0137 499.177 77.6812 515.316 50.572 542.034C40.4646 551.99 16.1667 580.45 3.62724 597.95L73.5535 654.847C79.4662 646.633 84.3303 639.78 87.2754 635.472C91.4701 629.311 102.782 615.851 113.202 605.584C116.103 602.726 119.026 599.802 122.015 596.811C105.683 623.441 94.036 658.173 94.036 706.588H183.195C183.195 653.307 202.696 633.284 230.787 605.584C233.688 602.726 236.655 599.78 239.667 596.767C223.313 623.396 211.688 658.128 211.688 706.588H300.847C300.847 653.307 320.348 633.284 348.439 605.584C361.224 592.994 375.303 577.213 387.374 561.588L317.804 505.137C308.411 517.525 299.464 528.575 285.853 541.99C282.752 545.048 279.539 548.217 276.259 551.543C290.494 527.838 300.803 497.816 300.803 456.856H211.643C211.643 499.133 195.289 515.271 168.179 541.99C165.078 545.048 161.887 548.195 158.63 551.499C172.887 527.86 183.195 497.86 183.195 456.9H94.0137Z" fill="#FAFAFA"/>
</g>
<g clip-path="url(#clip39_45_56)">
<path d="M94.0137 714.9C94.0137 757.177 77.6812 773.316 50.572 800.034C40.4646 809.99 16.1667 838.45 3.62724 855.95L73.5535 912.847C79.4662 904.633 84.3303 897.78 87.2754 893.472C91.4701 887.311 102.782 873.851 113.202 863.584C116.103 860.726 119.026 857.802 122.015 854.811C105.683 881.441 94.036 916.173 94.036 964.588H183.195C183.195 911.307 202.696 891.284 230.787 863.584C233.688 860.726 236.655 857.78 239.667 854.767C223.313 881.396 211.688 916.128 211.688 964.588H300.847C300.847 911.307 320.348 891.284 348.439 863.584C361.224 850.994 375.303 835.213 387.374 819.588L317.804 763.137C308.411 775.525 299.464 786.575 285.853 799.99C282.752 803.048 279.539 806.217 276.259 809.543C290.494 785.838 300.803 755.816 300.803 714.856H211.643C211.643 757.133 195.289 773.271 168.179 799.99C165.078 803.048 161.887 806.195 158.63 809.499C172.887 785.86 183.195 755.86 183.195 714.9H94.0137Z" fill="#FAFAFA"/>
</g>
<g clip-path="url(#clip40_45_56)">
<path d="M94.0137 972.9C94.0137 1015.18 77.6812 1031.32 50.572 1058.03C40.4646 1067.99 16.1667 1096.45 3.62724 1113.95L73.5535 1170.85C79.4662 1162.63 84.3303 1155.78 87.2754 1151.47C91.4701 1145.31 102.782 1131.85 113.202 1121.58C116.103 1118.73 119.026 1115.8 122.015 1112.81C105.683 1139.44 94.036 1174.17 94.036 1222.59H183.195C183.195 1169.31 202.696 1149.28 230.787 1121.58C233.688 1118.73 236.655 1115.78 239.667 1112.77C223.313 1139.4 211.688 1174.13 211.688 1222.59H300.847C300.847 1169.31 320.348 1149.28 348.439 1121.58C361.224 1108.99 375.303 1093.21 387.374 1077.59L317.804 1021.14C308.411 1033.53 299.464 1044.57 285.853 1057.99C282.752 1061.05 279.539 1064.22 276.259 1067.54C290.494 1043.84 300.803 1013.82 300.803 972.856H211.643C211.643 1015.13 195.289 1031.27 168.179 1057.99C165.078 1061.05 161.887 1064.2 158.63 1067.5C172.887 1043.86 183.195 1013.86 183.195 972.9H94.0137Z" fill="#FAFAFA"/>
</g>
<g clip-path="url(#clip41_45_56)">
<path d="M94.0137 1230.9C94.0137 1273.18 77.6812 1289.32 50.572 1316.03C40.4646 1325.99 16.1667 1354.45 3.62724 1371.95L73.5535 1428.85C79.4662 1420.63 84.3303 1413.78 87.2754 1409.47C91.4701 1403.31 102.782 1389.85 113.202 1379.58C116.103 1376.73 119.026 1373.8 122.015 1370.81C105.683 1397.44 94.036 1432.17 94.036 1480.59H183.195C183.195 1427.31 202.696 1407.28 230.787 1379.58C233.688 1376.73 236.655 1373.78 239.667 1370.77C223.313 1397.4 211.688 1432.13 211.688 1480.59H300.847C300.847 1427.31 320.348 1407.28 348.439 1379.58C361.224 1366.99 375.303 1351.21 387.374 1335.59L317.804 1279.14C308.411 1291.53 299.464 1302.57 285.853 1315.99C282.752 1319.05 279.539 1322.22 276.259 1325.54C290.494 1301.84 300.803 1271.82 300.803 1230.86H211.643C211.643 1273.13 195.289 1289.27 168.179 1315.99C165.078 1319.05 161.887 1322.2 158.63 1325.5C172.887 1301.86 183.195 1271.86 183.195 1230.9H94.0137Z" fill="#FAFAFA"/>
</g>
<g clip-path="url(#clip42_45_56)">
<path d="M94.0137 1488.9C94.0137 1531.18 77.6812 1547.32 50.572 1574.03C40.4646 1583.99 16.1667 1612.45 3.62724 1629.95L73.5535 1686.85C79.4662 1678.63 84.3303 1671.78 87.2754 1667.47C91.4701 1661.31 102.782 1647.85 113.202 1637.58C116.103 1634.73 119.026 1631.8 122.015 1628.81C105.683 1655.44 94.036 1690.17 94.036 1738.59H183.195C183.195 1685.31 202.696 1665.28 230.787 1637.58C233.688 1634.73 236.655 1631.78 239.667 1628.77C223.313 1655.4 211.688 1690.13 211.688 1738.59H300.847C300.847 1685.31 320.348 1665.28 348.439 1637.58C361.224 1624.99 375.303 1609.21 387.374 1593.59L317.804 1537.14C308.411 1549.53 299.464 1560.57 285.853 1573.99C282.752 1577.05 279.539 1580.22 276.259 1583.54C290.494 1559.84 300.803 1529.82 300.803 1488.86H211.643C211.643 1531.13 195.289 1547.27 168.179 1573.99C165.078 1577.05 161.887 1580.2 158.63 1583.5C172.887 1559.86 183.195 1529.86 183.195 1488.9H94.0137Z" fill="#FAFAFA"/>
</g>
<defs>
<clipPath id="clip0_45_56">
<rect width="386" height="250" fill="white" transform="translate(1919 120)"/>
</clipPath>
<clipPath id="clip1_45_56">
<rect width="386" height="250" fill="white" transform="translate(1919 378)"/>
</clipPath>
<clipPath id="clip2_45_56">
<rect width="386" height="250" fill="white" transform="translate(1919 636)"/>
</clipPath>
<clipPath id="clip3_45_56">
<rect width="386" height="250" fill="white" transform="translate(1919 894)"/>
</clipPath>
<clipPath id="clip4_45_56">
<rect width="386" height="250" fill="white" transform="translate(1919 1152)"/>
</clipPath>
<clipPath id="clip5_45_56">
<rect width="386" height="250" fill="white" transform="translate(1919 1410)"/>
</clipPath>
<clipPath id="clip6_45_56">
<rect width="386" height="250" fill="white" transform="translate(1599.34 218.862)"/>
</clipPath>
<clipPath id="clip7_45_56">
<rect width="386" height="250" fill="white" transform="translate(1599.34 476.862)"/>
</clipPath>
<clipPath id="clip8_45_56">
<rect width="386" height="250" fill="white" transform="translate(1599.34 734.862)"/>
</clipPath>
<clipPath id="clip9_45_56">
<rect width="386" height="250" fill="white" transform="translate(1599.34 992.862)"/>
</clipPath>
<clipPath id="clip10_45_56">
<rect width="386" height="250" fill="white" transform="translate(1599.34 1250.86)"/>
</clipPath>
<clipPath id="clip11_45_56">
<rect width="386" height="250" fill="white" transform="translate(1599.34 1508.86)"/>
</clipPath>
<clipPath id="clip12_45_56">
<rect width="386" height="250" fill="white" transform="translate(1279.84 60.5)"/>
</clipPath>
<clipPath id="clip13_45_56">
<rect width="386" height="250" fill="white" transform="translate(1279.84 318.5)"/>
</clipPath>
<clipPath id="clip14_45_56">
<rect width="386" height="250" fill="white" transform="translate(1279.84 576.5)"/>
</clipPath>
<clipPath id="clip15_45_56">
<rect width="386" height="250" fill="white" transform="translate(1279.84 834.5)"/>
</clipPath>
<clipPath id="clip16_45_56">
<rect width="386" height="250" fill="white" transform="translate(1279.84 1092.5)"/>
</clipPath>
<clipPath id="clip17_45_56">
<rect width="386" height="250" fill="white" transform="translate(1279.84 1350.5)"/>
</clipPath>
<clipPath id="clip18_45_56">
<rect width="386" height="250" fill="white" transform="translate(960.835 158.5)"/>
</clipPath>
<clipPath id="clip19_45_56">
<rect width="386" height="250" fill="white" transform="translate(960.835 416.5)"/>
</clipPath>
<clipPath id="clip20_45_56">
<rect width="386" height="250" fill="white" transform="translate(960.835 674.5)"/>
</clipPath>
<clipPath id="clip21_45_56">
<rect width="386" height="250" fill="white" transform="translate(960.835 932.5)"/>
</clipPath>
<clipPath id="clip22_45_56">
<rect width="386" height="250" fill="white" transform="translate(960.835 1190.5)"/>
</clipPath>
<clipPath id="clip23_45_56">
<rect width="386" height="250" fill="white" transform="translate(960.835 1448.5)"/>
</clipPath>
<clipPath id="clip24_45_56">
<rect width="386" height="250" fill="white" transform="translate(640.335)"/>
</clipPath>
<clipPath id="clip25_45_56">
<rect width="386" height="250" fill="white" transform="translate(640.335 258)"/>
</clipPath>
<clipPath id="clip26_45_56">
<rect width="386" height="250" fill="white" transform="translate(640.335 516)"/>
</clipPath>
<clipPath id="clip27_45_56">
<rect width="386" height="250" fill="white" transform="translate(640.335 774)"/>
</clipPath>
<clipPath id="clip28_45_56">
<rect width="386" height="250" fill="white" transform="translate(640.335 1032)"/>
</clipPath>
<clipPath id="clip29_45_56">
<rect width="386" height="250" fill="white" transform="translate(640.335 1290)"/>
</clipPath>
<clipPath id="clip30_45_56">
<rect width="386" height="250" fill="white" transform="translate(640.335 1548)"/>
</clipPath>
<clipPath id="clip31_45_56">
<rect width="386" height="250" fill="white" transform="translate(321.035 99.4003)"/>
</clipPath>
<clipPath id="clip32_45_56">
<rect width="386" height="250" fill="white" transform="translate(321.035 357.4)"/>
</clipPath>
<clipPath id="clip33_45_56">
<rect width="386" height="250" fill="white" transform="translate(321.035 615.4)"/>
</clipPath>
<clipPath id="clip34_45_56">
<rect width="386" height="250" fill="white" transform="translate(321.035 873.4)"/>
</clipPath>
<clipPath id="clip35_45_56">
<rect width="386" height="250" fill="white" transform="translate(321.035 1131.4)"/>
</clipPath>
<clipPath id="clip36_45_56">
<rect width="386" height="250" fill="white" transform="translate(321.035 1389.4)"/>
</clipPath>
<clipPath id="clip37_45_56">
<rect width="386" height="250" fill="white" transform="translate(2.53307 198.901)"/>
</clipPath>
<clipPath id="clip38_45_56">
<rect width="386" height="250" fill="white" transform="translate(2.53307 456.901)"/>
</clipPath>
<clipPath id="clip39_45_56">
<rect width="386" height="250" fill="white" transform="translate(2.53307 714.901)"/>
</clipPath>
<clipPath id="clip40_45_56">
<rect width="386" height="250" fill="white" transform="translate(2.53307 972.9)"/>
</clipPath>
<clipPath id="clip41_45_56">
<rect width="386" height="250" fill="white" transform="translate(2.53307 1230.9)"/>
</clipPath>
<clipPath id="clip42_45_56">
<rect width="386" height="250" fill="white" transform="translate(2.53307 1488.9)"/>
</clipPath>
</defs>
</svg>
